<?xml version="1.0" encoding="utf-8"?>
<!-- Generator: Adobe Illustrator 19.1.0, SVG Export Plug-In . SVG Version: 6.00 Build 0)  -->
<svg version="1.1" id="Layer_1" xmlns="http://www.w3.org/2000/svg" xmlns:xlink="http://www.w3.org/1999/xlink" x="0px" y="0px"
	 viewBox="0 0 279.8 173.5" style="enable-background:new 0 0 279.8 173.5;" xml:space="preserve">
<g>
	<path d="M124.4,13.6h-6.3c-1.1,0-2.1-0.4-2.9-1.2c-0.8-0.8-1.2-1.8-1.2-2.9V8.1c0-1.1,0.4-2.1,1.2-2.9C116,4.4,117,4,118.1,4
		c1.1,0,2.1,0.4,2.9,1.2c0.8,0.8,1.2,1.8,1.2,2.9v3.5h2.2V13.6z M115.5,2.2V0.8c0-0.2,0.1-0.2,0.3-0.2h1.3c0.2,0,0.2,0.1,0.2,0.2
		v1.4c0,0.2-0.1,0.2-0.2,0.2h-1.3C115.6,2.4,115.5,2.3,115.5,2.2z M118.1,11.7h2.2V8.1c0-1.2-1-2.2-2.2-2.2c-1.2,0-2.2,1-2.2,2.2
		v1.4C115.9,10.7,116.9,11.7,118.1,11.7z M118.4,2.2V0.8c0-0.2,0.1-0.2,0.3-0.2h1.3c0.2,0,0.3,0.1,0.3,0.2v1.4
		c0,0.2-0.1,0.2-0.3,0.2h-1.3C118.5,2.4,118.4,2.3,118.4,2.2z"/>
	<path d="M127.7,11V4.6c0-0.2,0.1-0.2,0.3-0.2h1.4c0.2,0,0.3,0.1,0.3,0.2v6.6c0,0.1,0,0.2,0.1,0.3c0.1,0.1,0.4,0.2,0.8,0.2h1.3v1.9
		h-1c-0.9,0-1.5-0.2-2.1-0.6c-0.5,0.4-1.1,0.6-1.8,0.6h-3.1v-1.9h3.1C127.5,11.7,127.7,11.5,127.7,11z M127,15.6V17
		c0,0.2-0.1,0.3-0.3,0.3h-1.3c-0.2,0-0.2-0.1-0.2-0.3v-1.4c0-0.2,0.1-0.2,0.2-0.2h1.3C126.9,15.4,127,15.5,127,15.6z M129.9,15.6V17
		c0,0.2-0.1,0.3-0.2,0.3h-1.3c-0.2,0-0.2-0.1-0.2-0.3v-1.4c0-0.2,0.1-0.2,0.2-0.2h1.3C129.8,15.4,129.9,15.5,129.9,15.6z"/>
	<path d="M145.1,13.6h-2.4v0.3c0,1.1-0.4,2-1.2,2.8c-0.8,0.7-1.7,1.1-2.9,1.1c-1.2,0-2.2-0.4-2.9-1.1s-1.2-1.7-1.2-2.8v-0.3h-3.3
		v-1.9h3.3V8.1c0-1.1,0.4-2.1,1.2-2.9c0.8-0.8,1.8-1.2,2.9-1.2c1.1,0,2.1,0.4,2.9,1.2c0.8,0.8,1.2,1.8,1.2,2.9v1.4
		c0,0.8-0.2,1.5-0.6,2.2h3V13.6z M140.8,9.5V8.1c0-1.2-1-2.2-2.2-2.2c-1.2,0-2.2,1-2.2,2.2v3.5h2.2C139.8,11.7,140.8,10.7,140.8,9.5
		z M140.8,13.9V13c-0.7,0.4-1.4,0.6-2.2,0.6h-2.2v0.3c0,1.2,1,1.9,2.2,1.9C139.8,15.8,140.8,15,140.8,13.9z"/>
	<path d="M154.7,10.2V8.5c0-0.7-0.3-1.3-0.8-1.8c-0.5-0.5-1.1-0.8-1.8-0.8c-1.2,0-2.1,0.4-2.6,1.2l-0.4,0.6
		c-0.1,0.1-0.1,0.1-0.2,0.1c-0.1,0-0.1,0-0.1-0.1L147.6,7c-0.1-0.1-0.1-0.1-0.1-0.2c0-0.1,0-0.1,0.1-0.2l0.4-0.6c1-1.4,2.4-2,4.2-2
		c1.2,0,2.3,0.4,3.2,1.3c0.9,0.9,1.3,1.9,1.3,3.2v2.8c0,0.1,0,0.2,0.1,0.2c0.1,0.1,0.4,0.2,0.8,0.2h1.4v1.9h-1.1
		c-1,0-1.7-0.3-2.3-0.8c-0.6,0.5-1.4,0.8-2.4,0.8h-8.7v-1.9h8.7C154.3,11.7,154.7,11.3,154.7,10.2z M152.1,15.5v1.4
		c0,0.2-0.1,0.3-0.3,0.3h-1.3c-0.2,0-0.3-0.1-0.3-0.3v-1.4c0-0.2,0.1-0.2,0.3-0.2h1.3C152,15.3,152.1,15.3,152.1,15.5z"/>
	<path d="M161.9,11V4.6c0-0.2,0.1-0.2,0.3-0.2h1.4c0.1,0,0.2,0.1,0.2,0.2v6.6c0,0.1,0,0.2,0.1,0.2c0.1,0.1,0.4,0.2,0.8,0.2h1.3v1.9
		h-1c-0.9,0-1.6-0.2-2.1-0.6c-0.5,0.4-1,0.6-1.8,0.6h-3v-1.9h3C161.8,11.7,161.9,11.5,161.9,11z M160.6,2.2V0.8
		c0-0.2,0.1-0.2,0.2-0.2h1.3c0.1,0,0.2,0.1,0.2,0.2v1.4c0,0.2-0.1,0.2-0.2,0.2h-1.3C160.6,2.4,160.6,2.3,160.6,2.2z M163.4,2.2V0.8
		c0-0.2,0.1-0.2,0.3-0.2h1.3c0.1,0,0.2,0.1,0.2,0.2v1.4c0,0.2-0.1,0.2-0.2,0.2h-1.3C163.5,2.4,163.4,2.3,163.4,2.2z"/>
	<path d="M177.6,13.6c-0.9,0-1.6-0.3-2.1-0.8c0,0,0,0-0.1,0c-0.7,0.6-1.6,0.8-2.5,0.8h-7.5v-1.9h3.3V8.1c0-1.1,0.4-2.1,1.2-2.9
		c0.8-0.8,1.8-1.2,2.9-1.2c1.1,0,2.1,0.4,2.9,1.2C176.6,6,177,7,177,8.1v1.4c0,0.7-0.2,1.4-0.5,2c0.2,0.1,0.4,0.2,0.7,0.2h2v1.9
		H177.6z M175.1,9.5V8.1c0-1.2-1-2.2-2.2-2.2c-1.2,0-2.2,1-2.2,2.2v3.5h2.2C174.1,11.7,175.1,10.7,175.1,9.5z"/>
	<path d="M181.1,13.6h-2.5v-1.9h2.6c0.5,0,0.6-0.2,0.6-0.7V0.2c0-0.2,0.1-0.2,0.2-0.2h1.5c0.1,0,0.2,0.1,0.2,0.2V11
		C183.7,12.5,182.7,13.6,181.1,13.6z"/>
	<path d="M188.5,0.2v13.1c0,0.2-0.1,0.2-0.2,0.2h-1.4c-0.2,0-0.3-0.1-0.3-0.2V0.2c0-0.2,0.1-0.2,0.3-0.2h1.4
		C188.4,0,188.5,0.1,188.5,0.2z"/>
	<path d="M206.4,11V4.6c0-0.2,0.1-0.2,0.3-0.2h1.4c0.1,0,0.2,0.1,0.2,0.2V11c0,1.6-1,2.6-2.6,2.6h-6.3c-1.2,0-2.1-0.4-3-1.2
		c-0.8-0.8-1.2-1.8-1.2-3c0-1.8,1.1-3.2,2.3-3.8l0.6-0.3c0,0,0.1,0,0.1,0c0.1,0,0.2,0.1,0.2,0.1l0.7,1.3c0,0,0,0.1,0,0.1
		c0,0.1-0.1,0.2-0.1,0.2l-0.6,0.3c-0.7,0.3-1.3,1.2-1.3,2.1c0,1.3,1,2.3,2.3,2.3h6.3C206.2,11.7,206.4,11.5,206.4,11z M200.1,3.8
		V2.4c0-0.2,0.1-0.2,0.2-0.2h1.3c0.2,0,0.3,0.1,0.3,0.2v1.4c0,0.2-0.1,0.3-0.3,0.3h-1.3C200.1,4.1,200.1,4,200.1,3.8z M203,3.8V2.4
		c0-0.2,0.1-0.2,0.2-0.2h1.3c0.2,0,0.3,0.1,0.3,0.2v1.4c0,0.2-0.1,0.3-0.3,0.3h-1.3C203,4.1,203,4,203,3.8z"/>
	<path d="M213.9,11.7h1.3v1.9h-1.3c-1.5,0-2.6-1-2.6-2.6V0.2c0-0.2,0.1-0.2,0.2-0.2h1.5c0.2,0,0.2,0.1,0.2,0.2V11
		C213.2,11.5,213.4,11.7,213.9,11.7z"/>
	<path d="M218.4,11V4.6c0-0.2,0.1-0.2,0.3-0.2h1.4c0.2,0,0.3,0.1,0.3,0.2v6.6c0,0.1,0,0.2,0.1,0.3c0.1,0.1,0.4,0.2,0.8,0.2h1.3v1.9
		h-1c-0.9,0-1.5-0.2-2.1-0.6c-0.5,0.4-1.1,0.6-1.8,0.6h-3.1v-1.9h3.1C218.2,11.7,218.4,11.5,218.4,11z M217.7,15.6V17
		c0,0.2-0.1,0.3-0.3,0.3h-1.3c-0.2,0-0.2-0.1-0.2-0.3v-1.4c0-0.2,0.1-0.2,0.2-0.2h1.3C217.6,15.4,217.7,15.5,217.7,15.6z
		 M220.6,15.6V17c0,0.2-0.1,0.3-0.2,0.3H219c-0.2,0-0.2-0.1-0.2-0.3v-1.4c0-0.2,0.1-0.2,0.2-0.2h1.3
		C220.5,15.4,220.6,15.5,220.6,15.6z"/>
	<path d="M221.9,11.7h3.1V8.1c0-1.1,0.4-2.1,1.2-2.9c0.8-0.8,1.8-1.2,2.9-1.2c1.1,0,2.1,0.4,2.9,1.2c0.8,0.8,1.2,1.8,1.2,2.9v1.4
		c0,1.1-0.4,2.1-1.2,2.9c-0.8,0.8-1.8,1.2-2.9,1.2h-7.2V11.7z M226.9,8.1v3.5h2.2c1.2,0,2.2-1,2.2-2.2V8.1c0-1.2-1-2.2-2.2-2.2
		C227.9,6,226.9,6.9,226.9,8.1z"/>
	<path d="M245.9,13.6h-2.2c0,1-0.4,1.9-1.2,2.6c-0.8,0.7-1.6,1.1-2.7,1.1h-2.2c-0.2,0-0.2-0.1-0.2-0.2v-1.4c0-0.2,0.1-0.2,0.2-0.2
		h2.2c0.5,0,0.9-0.2,1.3-0.5c0.4-0.4,0.6-0.8,0.6-1.3h-2.2c-1.1,0-2.1-0.4-2.9-1.2c-0.8-0.8-1.2-1.8-1.2-2.9V8.1
		c0-1.1,0.4-2.1,1.2-2.9c0.8-0.8,1.7-1.2,2.9-1.2c1.1,0,2.1,0.4,2.9,1.2c0.8,0.8,1.2,1.7,1.2,2.9v3.5h2.2V13.6z M239.5,11.7h2.2V8.1
		c0-1.2-1-2.2-2.2-2.2c-1.2,0-2.2,1-2.2,2.2v1.4C237.4,10.7,238.3,11.7,239.5,11.7z"/>
	<path d="M259.2,11V4.6c0-0.2,0.1-0.2,0.2-0.2h1.4c0.2,0,0.3,0.1,0.3,0.2V11c0,1.5-1,2.6-2.6,2.6h-1.3c-0.9,0-1.5-0.2-2.1-0.6
		c-0.5,0.4-1.1,0.6-1.8,0.6h-1.3c-0.9,0-1.6-0.2-2.1-0.6c-0.5,0.4-1.1,0.6-1.8,0.6h-3v-1.9h3c0.5,0,0.6-0.2,0.6-0.7V4.6
		c0-0.2,0.1-0.2,0.3-0.2h1.4c0.2,0,0.2,0.1,0.2,0.2v6.6c0,0.1,0,0.2,0.1,0.2c0.1,0.1,0.4,0.2,0.9,0.2h1.6c0.5,0,0.7-0.2,0.7-0.7V5.1
		c0-0.2,0.1-0.3,0.2-0.3h1.4c0.1,0,0.2,0.1,0.2,0.3v6.1c0,0.1,0,0.2,0.1,0.2c0.1,0.1,0.4,0.2,0.8,0.2h1.6
		C259.1,11.7,259.2,11.5,259.2,11z"/>
	<path d="M264.9,14V4.6c0-0.2,0.1-0.2,0.3-0.2h1.4c0.2,0,0.2,0.1,0.2,0.2v7h2.2v1.9h-2.2V14c0,2.1-1.3,3.4-3.4,3.4h-1.2
		c-0.2,0-0.2-0.1-0.2-0.2v-1.4c0-0.2,0.1-0.2,0.2-0.2h1.2C264.5,15.4,264.9,15,264.9,14z"/>
	<path d="M271.1,13.6h-2.5v-1.9h2.6c0.5,0,0.6-0.2,0.6-0.7V0.2c0-0.2,0.1-0.2,0.2-0.2h1.5c0.1,0,0.2,0.1,0.2,0.2V11
		C273.6,12.5,272.6,13.6,271.1,13.6z"/>
	<path d="M278.4,0.2v13.1c0,0.2-0.1,0.2-0.2,0.2h-1.4c-0.2,0-0.3-0.1-0.3-0.2V0.2c0-0.2,0.1-0.2,0.3-0.2h1.4
		C278.4,0,278.4,0.1,278.4,0.2z"/>
	<path d="M12,54.8V49c0-0.2,0.1-0.2,0.3-0.2h0.2c0.2,0,0.2,0.1,0.2,0.2v5.8c0,1.2-0.8,2-2,2H4.5c-1,0-1.9-0.3-2.6-1s-1-1.6-1-2.6
		c0-1.6,1-2.8,2.1-3.3c0,0,0.1,0,0.1,0c0.1,0,0.2,0.1,0.2,0.1l0.1,0.2c0,0,0,0.1,0,0.1c0,0.2-0.1,0.2-0.2,0.3
		c-0.9,0.5-1.6,1.4-1.6,2.6c0,0.8,0.3,1.5,0.8,2.1c0.6,0.6,1.3,0.8,2.1,0.8h6.3C11.6,56.1,12,55.6,12,54.8z M6,47.8V47
		c0-0.2,0.1-0.3,0.3-0.3h0.2c0.2,0,0.3,0.1,0.3,0.3v0.7c0,0.2-0.1,0.3-0.3,0.3H6.4C6.2,48,6,47.9,6,47.8z M8.5,47.8V47
		c0-0.2,0.1-0.3,0.3-0.3H9c0.2,0,0.3,0.1,0.3,0.3v0.7C9.3,47.9,9.2,48,9,48H8.8C8.6,48,8.5,47.9,8.5,47.8z"/>
	<path d="M15.6,54.8V44.6c0-0.2,0.1-0.2,0.2-0.2h0.3c0.1,0,0.2,0.1,0.2,0.2v10.2c0,0.8,0.4,1.3,1.3,1.3h0.7v0.7h-0.7
		C16.4,56.8,15.6,56,15.6,54.8z"/>
	<path d="M17.9,56.1h2.7v-4.1c0-1,0.3-1.8,1-2.5s1.5-1,2.5-1s1.8,0.3,2.5,1c0.7,0.7,1,1.5,1,2.5v1.4c0,1-0.3,1.8-1,2.5
		c-0.7,0.7-1.5,1-2.5,1h-6.2V56.1z M24.1,56.1c0.8,0,1.4-0.3,2-0.8c0.5-0.5,0.8-1.2,0.8-2v-1.4c0-0.8-0.3-1.4-0.8-2
		c-0.5-0.5-1.2-0.8-2-0.8s-1.4,0.3-1.9,0.8c-0.5,0.5-0.8,1.2-0.8,2v4.1H24.1z"/>
	<path d="M32.1,60.3v-0.2c0-0.2,0.1-0.3,0.2-0.3h1.6c0.7,0,1.3-0.2,1.8-0.7c0.5-0.5,0.7-1.1,0.7-1.8v-0.5h-2.8c-1,0-1.8-0.3-2.5-1
		s-1-1.5-1-2.5v-1.4c0-1,0.4-1.8,1-2.5s1.5-1,2.5-1c1,0,1.8,0.3,2.5,1c0.7,0.7,1,1.5,1,2.5v4.1h2.5v0.7h-2.5v0.5
		c0,0.9-0.3,1.7-1,2.3c-0.6,0.6-1.4,1-2.3,1h-1.6C32.2,60.5,32.1,60.5,32.1,60.3z M30.9,53.3c0,0.8,0.3,1.4,0.8,2
		c0.5,0.5,1.2,0.8,2,0.8h2.8v-4.1c0-0.8-0.3-1.4-0.8-1.9c-0.5-0.5-1.2-0.8-2-0.8c-0.8,0-1.4,0.3-2,0.8c-0.5,0.5-0.8,1.2-0.8,1.9
		V53.3z"/>
	<path d="M51.3,54.8V49c0-0.2,0.1-0.3,0.2-0.3h0.3c0.2,0,0.2,0.1,0.2,0.3v5.8c0,1.2-0.8,2-2,2h-0.8c-0.9,0-1.6-0.3-2-0.8
		c-0.3,0.5-0.9,0.8-1.7,0.8h-0.8c-0.8,0-1.4-0.2-1.8-0.6c0,0-0.1-0.1-0.2-0.2c-0.3,0.5-0.9,0.8-1.7,0.8h-2v-0.7h2
		c0.8,0,1.2-0.4,1.2-1.3V49c0-0.2,0.1-0.3,0.2-0.3h0.3c0.2,0,0.2,0.1,0.2,0.3v6c0,0.3,0.1,0.5,0.3,0.6c0.2,0.3,0.6,0.4,1.3,0.4h1
		c0.8,0,1.2-0.5,1.2-1.3v-5.3c0-0.2,0.1-0.2,0.2-0.2h0.2c0.2,0,0.3,0.1,0.3,0.2V55c0,0.3,0.1,0.5,0.2,0.6c0.2,0.3,0.6,0.4,1.3,0.4
		H50C50.8,56.1,51.3,55.6,51.3,54.8z"/>
	<path d="M53.7,60.5h-0.6c-0.2,0-0.2-0.1-0.2-0.2v-0.2c0-0.2,0.1-0.3,0.2-0.3h0.6c1.4,0,2-0.7,2-2V49c0-0.2,0.1-0.2,0.3-0.2h0.2
		c0.2,0,0.2,0.1,0.2,0.2v8.8C56.5,59.5,55.5,60.5,53.7,60.5z"/>
	<path d="M91.2,51.1v4.9h2.1v0.7h-2.4c-0.2,0-0.4-0.2-0.4-0.4v-5.3c0-1.1-0.9-2-2-2c-1.1,0-2,0.9-2,2v7.1c0,0.2-0.2,0.4-0.4,0.4
		h-6.3c-1,0-1.9-0.4-2.6-1.1s-1-1.5-1-2.6c0-1.6,1-2.8,2.1-3.3c0,0,0.1,0,0.1,0c0.1,0,0.2,0.1,0.2,0.1l0.1,0.2c0,0,0,0.1,0,0.1
		s0,0.1,0,0.1c0,0.1-0.1,0.1-0.2,0.2c-0.9,0.4-1.6,1.4-1.6,2.6c0,0.8,0.3,1.5,0.9,2.1c0.6,0.6,1.2,0.8,2,0.8h5.9v-6.7
		c0-1.5,1.2-2.7,2.7-2.7S91.2,49.7,91.2,51.1z M81.4,60.6v0.7c0,0.2-0.1,0.3-0.3,0.3h-0.2c-0.2,0-0.3-0.1-0.3-0.3v-0.7
		c0-0.2,0.1-0.3,0.3-0.3h0.2C81.3,60.3,81.4,60.4,81.4,60.6z M83.8,60.6v0.7c0,0.2-0.1,0.3-0.3,0.3h-0.2c-0.2,0-0.3-0.1-0.3-0.3
		v-0.7c0-0.2,0.1-0.3,0.3-0.3h0.2C83.7,60.3,83.8,60.4,83.8,60.6z"/>
	<path d="M103.9,48.8c0.7,0.7,1.1,1.6,1.1,2.6v1.8c0,1-0.4,1.9-1.1,2.6c-0.7,0.7-1.6,1.1-2.6,1.1h-8.5v-0.7h3.5
		c-0.5-0.5-0.8-1.1-0.8-1.8v-1.6c0-0.7,0.2-1.3,0.7-1.8c0.4-0.5,1-0.8,1.6-0.9c0.5-1.2,1.7-2.3,3.4-2.3
		C102.3,47.7,103.2,48,103.9,48.8z M98.2,56.1h2v-3.4c0-0.6-0.2-1.1-0.6-1.4c-0.4-0.4-0.8-0.6-1.4-0.6c-0.5,0-1,0.2-1.4,0.6
		c-0.4,0.3-0.6,0.7-0.6,1.4v1.6C96.4,55.2,97.2,56.1,98.2,56.1z M101,52.7v3.4h0.4c0.8,0,1.5-0.3,2.1-0.9s0.9-1.3,0.9-2.1v-1.8
		c0-0.8-0.3-1.5-0.9-2.1s-1.3-0.9-2.1-0.9c-1.2,0-2.2,0.8-2.6,1.6C99.9,50.2,101,51.3,101,52.7z"/>
	<path d="M134.4,56.8h-6.1c-1,0-1.8-0.3-2.5-1s-1-1.5-1-2.5v-1.4c0-1,0.3-1.8,1-2.5s1.5-1,2.5-1c1,0,1.8,0.3,2.5,1
		c0.7,0.7,1,1.5,1,2.5v4.1h2.6V56.8z M130.3,50c-0.5-0.5-1.2-0.8-2-0.8c-0.8,0-1.4,0.3-2,0.8c-0.5,0.5-0.8,1.2-0.8,2v1.4
		c0,0.8,0.3,1.4,0.8,2c0.5,0.5,1.2,0.8,2,0.8h2.8v-4.1C131.1,51.2,130.9,50.5,130.3,50z M126.6,46.1v-0.7c0-0.2,0.1-0.3,0.3-0.3h0.2
		c0.2,0,0.3,0.1,0.3,0.3v0.7c0,0.2-0.1,0.3-0.3,0.3h-0.2C126.7,46.4,126.6,46.3,126.6,46.1z M129.1,46.1v-0.7c0-0.2,0.1-0.3,0.3-0.3
		h0.2c0.2,0,0.3,0.1,0.3,0.3v0.7c0,0.2-0.1,0.3-0.3,0.3h-0.2C129.1,46.4,129.1,46.3,129.1,46.1z"/>
	<path d="M139.3,56.1h0.5v0.7h-0.4c-0.9,0-1.6-0.3-2-0.8c-0.3,0.5-0.9,0.8-1.7,0.8h-2v-0.7h2c0.8,0,1.2-0.4,1.2-1.3V49
		c0-0.2,0.1-0.2,0.3-0.2h0.2c0.2,0,0.2,0.1,0.2,0.2v6C137.8,55.9,138.4,56.1,139.3,56.1z M135.8,58.9v0.7c0,0.2-0.1,0.3-0.3,0.3
		h-0.3c-0.2,0-0.3-0.1-0.3-0.3v-0.7c0-0.2,0.1-0.3,0.3-0.3h0.3C135.7,58.6,135.8,58.7,135.8,58.9z M138.2,58.9v0.7
		c0,0.2-0.1,0.3-0.3,0.3h-0.2c-0.2,0-0.3-0.1-0.3-0.3v-0.7c0-0.2,0.1-0.3,0.3-0.3h0.2C138.1,58.6,138.2,58.7,138.2,58.9z"/>
	<path d="M149.1,56.1h2.8v0.7h-2.4v0.4c0,1-0.3,1.8-1,2.5c-0.7,0.7-1.5,1-2.5,1c-1,0-1.8-0.3-2.5-1c-0.7-0.7-1-1.5-1-2.5v-0.4h-3.1
		v-0.7h3.1v-4.1c0-1,0.3-1.8,1-2.5c0.7-0.7,1.5-1,2.5-1c1,0,1.8,0.3,2.5,1c0.7,0.7,1,1.5,1,2.5v1.4c0,1-0.3,1.8-1,2.5
		c-0.7,0.7-1.5,1-2.5,1h-2.8v0.4c0,0.8,0.3,1.4,0.8,2s1.2,0.8,2,0.8c0.8,0,1.4-0.3,2-0.8s0.8-1.2,0.8-2v-0.7
		C148.8,56.2,148.9,56.1,149.1,56.1z M146,56.1c0.8,0,1.4-0.3,2-0.8c0.5-0.5,0.8-1.2,0.8-2v-1.4c0-0.8-0.3-1.4-0.8-2
		c-0.5-0.5-1.2-0.8-2-0.8c-0.8,0-1.4,0.3-2,0.8c-0.5,0.5-0.8,1.2-0.8,2v4.1H146z"/>
	<path d="M162.5,56.1h0.5v0.7h-0.5c-1,0-1.7-0.3-2.1-1c-0.5,0.7-1.2,1-2.3,1h-6.8v-0.7h6.8c1.4,0,2-0.7,2-2v-1.7
		c0-0.9-0.3-1.6-0.9-2.2c-0.6-0.6-1.4-0.9-2.2-0.9c-1.3,0-2.3,0.5-3,1.6c-0.1,0.1-0.1,0.1-0.2,0.1c-0.1,0-0.1,0-0.1,0l-0.2-0.1
		c-0.1-0.1-0.1-0.1-0.1-0.2c0-0.1,0.1-0.2,0.1-0.2c0.7-1,1.9-1.8,3.5-1.8c1.1,0,2,0.4,2.7,1.1s1.1,1.7,1.1,2.7V55
		C160.9,55.8,161.6,56.1,162.5,56.1z M156.5,58.7v0.7c0,0.2-0.1,0.3-0.3,0.3H156c-0.2,0-0.3-0.1-0.3-0.3v-0.7c0-0.2,0.1-0.3,0.3-0.3
		h0.2C156.4,58.4,156.5,58.5,156.5,58.7z"/>
	<path d="M166.3,54.8V49c0-0.2,0.1-0.2,0.2-0.2h0.2c0.2,0,0.3,0.1,0.3,0.2v6c0,0.3,0.1,0.5,0.2,0.6c0.2,0.3,0.7,0.4,1.3,0.4h0.6v0.7
		h-0.4c-0.8,0-1.4-0.2-1.8-0.6c-0.1-0.1-0.1-0.1-0.2-0.2c-0.1,0.1-0.2,0.2-0.2,0.3c-0.4,0.4-0.8,0.5-1.5,0.5h-2.5v-0.7h2.5
		C165.9,56.1,166.3,55.6,166.3,54.8z M165.1,46.1v-0.7c0-0.2,0.1-0.3,0.3-0.3h0.2c0.2,0,0.3,0.1,0.3,0.3v0.7c0,0.2-0.1,0.3-0.3,0.3
		h-0.2C165.2,46.4,165.1,46.3,165.1,46.1z M167.8,45.1h0.2c0.2,0,0.3,0.1,0.3,0.3v0.7c0,0.2-0.1,0.3-0.3,0.3h-0.2
		c-0.2,0-0.3-0.1-0.3-0.3v-0.7C167.4,45.2,167.6,45.1,167.8,45.1z"/>
	<path d="M179.4,56.1h1v0.7h-0.9c-0.9,0-1.8-0.4-2.1-1.2c-0.7,0.8-1.6,1.2-2.6,1.2h-6.2v-0.7h2.7v-4.1c0-1,0.3-1.8,1-2.5
		s1.5-1,2.5-1s1.8,0.3,2.5,1s1,1.5,1,2.5v1.4c0,0.6-0.2,1.2-0.5,1.7C178,55.7,178.6,56.1,179.4,56.1z M176.8,55.3
		c0.5-0.5,0.8-1.2,0.8-2v-1.4c0-0.8-0.3-1.4-0.8-2c-0.5-0.5-1.2-0.8-2-0.8s-1.4,0.3-1.9,0.8c-0.5,0.5-0.8,1.2-0.8,2v4.1h2.8
		C175.6,56.1,176.3,55.8,176.8,55.3z"/>
	<path d="M182,56.8H180v-0.7h2.1c0.8,0,1.3-0.5,1.3-1.3V44.6c0-0.2,0.1-0.2,0.2-0.2h0.3c0.2,0,0.2,0.1,0.2,0.2v10.2
		C184,56,183.3,56.8,182,56.8z"/>
	<path d="M187.5,56.8h-0.3c-0.2,0-0.2-0.1-0.2-0.2V44.6c0-0.2,0.1-0.2,0.2-0.2h0.3c0.1,0,0.2,0.1,0.2,0.2v11.9
		C187.7,56.7,187.6,56.8,187.5,56.8z"/>
	<path d="M218.7,54.8V49c0-0.2,0.1-0.2,0.3-0.2h0.2c0.2,0,0.2,0.1,0.2,0.2v5.8c0,1.2-0.8,2-2,2h-6.3c-1,0-1.9-0.3-2.6-1
		s-1-1.6-1-2.6c0-1.6,1-2.8,2.1-3.3c0,0,0.1,0,0.1,0c0.1,0,0.2,0.1,0.2,0.1l0.1,0.2c0,0,0,0.1,0,0.1c0,0.2-0.1,0.2-0.2,0.3
		c-0.9,0.5-1.6,1.4-1.6,2.6c0,0.8,0.3,1.5,0.8,2.1c0.6,0.6,1.3,0.8,2.1,0.8h6.3C218.3,56.1,218.7,55.6,218.7,54.8z M212.7,47.8V47
		c0-0.2,0.1-0.3,0.3-0.3h0.2c0.2,0,0.3,0.1,0.3,0.3v0.7c0,0.2-0.1,0.3-0.3,0.3h-0.2C212.9,48,212.7,47.9,212.7,47.8z M215.2,47.8V47
		c0-0.2,0.1-0.3,0.3-0.3h0.3c0.2,0,0.3,0.1,0.3,0.3v0.7c0,0.2-0.1,0.3-0.3,0.3h-0.3C215.3,48,215.2,47.9,215.2,47.8z"/>
	<path d="M222.3,54.8V44.6c0-0.2,0.1-0.2,0.2-0.2h0.3c0.1,0,0.2,0.1,0.2,0.2v10.2c0,0.8,0.4,1.3,1.3,1.3h0.7v0.7h-0.7
		C223.1,56.8,222.3,56,222.3,54.8z"/>
	<path d="M230.1,56.1h0.5v0.7h-0.4c-0.9,0-1.6-0.3-2-0.8c-0.3,0.5-0.9,0.8-1.7,0.8h-2v-0.7h2c0.8,0,1.2-0.4,1.2-1.3V49
		c0-0.2,0.1-0.2,0.3-0.2h0.2c0.2,0,0.2,0.1,0.2,0.2v6C228.6,55.9,229.2,56.1,230.1,56.1z M226.6,58.9v0.7c0,0.2-0.1,0.3-0.3,0.3H226
		c-0.2,0-0.3-0.1-0.3-0.3v-0.7c0-0.2,0.1-0.3,0.3-0.3h0.3C226.5,58.6,226.6,58.7,226.6,58.9z M228.9,58.9v0.7c0,0.2-0.1,0.3-0.3,0.3
		h-0.2c-0.2,0-0.3-0.1-0.3-0.3v-0.7c0-0.2,0.1-0.3,0.3-0.3h0.2C228.9,58.6,228.9,58.7,228.9,58.9z"/>
	<path d="M230.2,56.1h2.7v-4.1c0-1,0.3-1.8,1-2.5s1.5-1,2.5-1s1.8,0.3,2.5,1c0.7,0.7,1,1.5,1,2.5v1.4c0,1-0.3,1.8-1,2.5
		c-0.7,0.7-1.5,1-2.5,1h-6.2V56.1z M236.4,56.1c0.8,0,1.4-0.3,2-0.8c0.5-0.5,0.8-1.2,0.8-2v-1.4c0-0.8-0.3-1.4-0.8-2
		c-0.5-0.5-1.2-0.8-2-0.8s-1.4,0.3-1.9,0.8c-0.5,0.5-0.8,1.2-0.8,2v4.1H236.4z"/>
	<path d="M244.4,60.3v-0.2c0-0.2,0.1-0.3,0.2-0.3h1.6c0.7,0,1.3-0.2,1.8-0.7c0.5-0.5,0.7-1.1,0.7-1.8v-0.5H246c-1,0-1.8-0.3-2.5-1
		s-1-1.5-1-2.5v-1.4c0-1,0.4-1.8,1-2.5s1.5-1,2.5-1c1,0,1.8,0.3,2.5,1c0.7,0.7,1,1.5,1,2.5v4.1h2.5v0.7h-2.5v0.5
		c0,0.9-0.3,1.7-1,2.3c-0.6,0.6-1.4,1-2.3,1h-1.6C244.5,60.5,244.4,60.5,244.4,60.3z M243.2,53.3c0,0.8,0.3,1.4,0.8,2
		c0.5,0.5,1.2,0.8,2,0.8h2.8v-4.1c0-0.8-0.3-1.4-0.8-1.9c-0.5-0.5-1.2-0.8-2-0.8c-0.8,0-1.4,0.3-2,0.8c-0.5,0.5-0.8,1.2-0.8,1.9
		V53.3z"/>
	<path d="M263.6,54.8V49c0-0.2,0.1-0.3,0.2-0.3h0.3c0.2,0,0.2,0.1,0.2,0.3v5.8c0,1.2-0.8,2-2,2h-0.8c-0.9,0-1.6-0.3-2-0.8
		c-0.3,0.5-0.9,0.8-1.7,0.8h-0.8c-0.8,0-1.4-0.2-1.8-0.6c0,0-0.1-0.1-0.2-0.2c-0.3,0.5-0.9,0.8-1.7,0.8h-2v-0.7h2
		c0.8,0,1.2-0.4,1.2-1.3V49c0-0.2,0.1-0.3,0.2-0.3h0.3c0.2,0,0.2,0.1,0.2,0.3v6c0,0.3,0.1,0.5,0.3,0.6c0.2,0.3,0.6,0.4,1.3,0.4h1
		c0.8,0,1.2-0.5,1.2-1.3v-5.3c0-0.2,0.1-0.2,0.2-0.2h0.2c0.2,0,0.3,0.1,0.3,0.2V55c0,0.3,0.1,0.5,0.2,0.6c0.2,0.3,0.6,0.4,1.3,0.4
		h0.9C263.1,56.1,263.6,55.6,263.6,54.8z"/>
	<path d="M266,60.5h-0.6c-0.2,0-0.2-0.1-0.2-0.2v-0.2c0-0.2,0.1-0.3,0.2-0.3h0.6c1.4,0,2.1-0.7,2.1-2V49c0-0.2,0.1-0.2,0.2-0.2h0.2
		c0.2,0,0.2,0.1,0.2,0.2v7h2.5v0.7h-2.5v1C268.8,59.5,267.8,60.5,266,60.5z"/>
	<path d="M272.8,56.8h-2.1v-0.7h2.1c0.8,0,1.3-0.5,1.3-1.3V44.6c0-0.2,0.1-0.2,0.2-0.2h0.3c0.2,0,0.2,0.1,0.2,0.2v10.2
		C274.8,56,274,56.8,272.8,56.8z"/>
	<path d="M278.2,56.8H278c-0.2,0-0.2-0.1-0.2-0.2V44.6c0-0.2,0.1-0.2,0.2-0.2h0.3c0.1,0,0.2,0.1,0.2,0.2v11.9
		C278.5,56.7,278.4,56.8,278.2,56.8z"/>
	<path d="M0.9,74c0-0.2,0.1-0.2,0.2-0.2h0.3c0.2,0,0.2,0.1,0.2,0.2V78c0,0.8,0.3,1.5,0.8,2s1.2,0.8,2,0.8c0.8,0,1.5-0.3,2-0.8
		s0.8-1.2,0.8-2V66.2c0-0.2,0.1-0.3,0.2-0.3h0.3c0.1,0,0.2,0.1,0.2,0.3V78c0,1-0.4,1.9-1.1,2.6s-1.5,1-2.5,1s-1.9-0.3-2.6-1
		s-1-1.6-1-2.6V74z"/>
	<path d="M11,76.4V66.2c0-0.2,0.1-0.2,0.2-0.2h0.3c0.1,0,0.2,0.1,0.2,0.2v10.2c0,0.8,0.4,1.3,1.3,1.3h0.7v0.7h-0.7
		C11.7,78.4,11,77.6,11,76.4z"/>
	<path d="M24.9,77.7h0.5v0.7H25c-0.9,0-1.5-0.3-1.9-0.8c-0.3,0.5-0.9,0.8-1.7,0.8h-8.2v-0.7h8.2c0.8,0,1.3-0.4,1.3-1.3v-1.7
		c0-1.8-1.2-3-3-3h-3.7c-0.2,0-0.4-0.2-0.4-0.4c0-1.1,0.2-2,0.7-2.8c0.7-1.2,1.9-1.8,3.5-1.8H21c0.2,0,0.3,0.1,0.3,0.3v0.2
		c0,0.2-0.1,0.3-0.3,0.3h-1.2c-2.2,0-3.3,1.2-3.4,3.5h3.4c1.1,0,1.9,0.4,2.6,1.1c0.7,0.7,1,1.6,1,2.7v2C23.4,77.4,24,77.7,24.9,77.7
		z"/>
	<path d="M37,76.4v-5.8c0-0.2,0.1-0.3,0.3-0.3h0.2c0.2,0,0.2,0.1,0.2,0.3v5.8c0,1.2-0.8,2-2,2h-0.9c-0.8,0-1.4-0.2-1.8-0.6
		C33,77.7,33,77.7,33,77.7c-0.4,0.5-0.9,0.7-1.6,0.7h-0.9c-0.8,0-1.4-0.2-1.8-0.6c-0.1-0.1-0.1-0.1-0.1-0.1
		c-0.1,0.1-0.1,0.2-0.1,0.2c-0.4,0.4-0.8,0.5-1.5,0.5h-2v-0.7h2c0.8,0,1.2-0.4,1.2-1.3v-5.8c0-0.2,0.1-0.3,0.3-0.3h0.2
		c0.2,0,0.2,0.1,0.2,0.3v6c0,0.3,0.1,0.5,0.3,0.6c0.2,0.3,0.7,0.4,1.3,0.4h1c0.8,0,1.2-0.5,1.2-1.3v-5.3c0-0.2,0.1-0.2,0.2-0.2h0.2
		c0.2,0,0.3,0.1,0.3,0.2v5.5c0,0.8,0.6,1,1.5,1h0.9C36.6,77.7,37,77.2,37,76.4z M31.4,67.7v-0.7c0-0.2,0.1-0.3,0.3-0.3h0.3
		c0.2,0,0.3,0.1,0.3,0.3v0.7c0,0.2-0.1,0.3-0.3,0.3h-0.3C31.5,68,31.4,67.9,31.4,67.7z M32.9,64.6h0.2c0.2,0,0.3,0.1,0.3,0.3v0.7
		c0,0.2-0.1,0.3-0.3,0.3h-0.2c-0.2,0-0.3-0.1-0.3-0.3v-0.7C32.6,64.8,32.7,64.6,32.9,64.6z M33.8,67.7v-0.7c0-0.2,0.1-0.3,0.3-0.3
		h0.2c0.2,0,0.3,0.1,0.3,0.3v0.7c0,0.2-0.1,0.3-0.3,0.3h-0.2C33.9,68,33.8,67.9,33.8,67.7z"/>
	<path d="M49.6,77.7h0.6v0.7h-0.4c-1,0-1.7-0.4-2-1.1c-0.5,0.8-1.2,1.1-2.4,1.1h-5c-0.2,0-0.2-0.1-0.2-0.2v-0.3
		c0-0.2,0.1-0.2,0.2-0.2h5c1.4,0,2-0.7,2-2v-9.4c0-0.2,0.1-0.2,0.2-0.2h0.2c0.2,0,0.3,0.1,0.3,0.2v10.2
		C48.1,77.2,48.7,77.7,49.6,77.7z M42.8,64.2v1h1.6c0.2,0,0.2,0.1,0.2,0.2v0c0,0.2-0.1,0.3-0.2,0.3h-2.5c-0.1,0-0.2-0.1-0.2-0.3v0
		c0-0.2,0.1-0.2,0.2-0.2h0.4v-1c0-0.6,0.5-1.2,1.2-1.2c0.5,0,0.8,0.2,1.1,0.7c0,0.1,0,0.1,0,0.1c0,0.1-0.2,0.3-0.3,0.3
		c-0.1,0-0.1-0.1-0.2-0.2c-0.1-0.3-0.3-0.4-0.6-0.4C43.1,63.6,42.8,63.9,42.8,64.2z M43.5,67.7v7.7c0,0.2-0.1,0.2-0.2,0.2H43
		c-0.2,0-0.2-0.1-0.2-0.2v-7.7c0-0.2,0.1-0.2,0.2-0.2h0.3C43.5,67.4,43.5,67.5,43.5,67.7z"/>
	<path d="M51.8,78.4h-2.1v-0.7h2.1c0.8,0,1.3-0.5,1.3-1.3V66.2c0-0.2,0.1-0.2,0.2-0.2h0.3c0.2,0,0.2,0.1,0.2,0.2v10.2
		C53.7,77.6,53,78.4,51.8,78.4z"/>
	<path d="M97.5,78.4H81.2c-1,0-1.8-0.3-2.5-1c-0.7-0.7-1.1-1.5-1.1-2.6c0-0.7,0.2-1.3,0.5-1.9c0.4-0.6,0.9-1.1,1.6-1.4
		c0,0,0.1,0,0.1,0c0.1,0,0.2,0.1,0.2,0.1l0.1,0.2c0,0,0,0.1,0,0.1c0,0.2-0.1,0.2-0.2,0.3c-0.9,0.5-1.6,1.4-1.6,2.6
		c0,0.8,0.3,1.5,0.8,2.1c0.5,0.5,1.2,0.8,2,0.8H89c-0.9-0.7-1.4-1.6-1.4-2.8v-1.4c0-1,0.4-1.8,1-2.5c0.7-0.7,1.5-1,2.5-1
		s1.8,0.3,2.5,1s1,1.5,1,2.5v4.1h2.9V78.4z M89.1,76.9c0.5,0.5,1.2,0.8,2,0.8h2.8v-4.1c0-0.8-0.3-1.4-0.8-2c-0.5-0.5-1.2-0.8-2-0.8
		s-1.4,0.3-2,0.8c-0.5,0.5-0.8,1.2-0.8,2v1.4C88.3,75.7,88.6,76.3,89.1,76.9z M90.5,67.7v-0.7c0-0.2,0.1-0.3,0.3-0.3H91
		c0.2,0,0.3,0.1,0.3,0.3v0.7c0,0.2-0.1,0.3-0.3,0.3h-0.2C90.6,68,90.5,67.9,90.5,67.7z"/>
	<path d="M105,78.4h-8.5v-0.7H99v-6.8c0-0.2,0.1-0.3,0.2-0.3h0.2c0.2,0,0.3,0.1,0.3,0.3v1.9c1.8-1.8,3.3-2.7,4.7-2.7
		c2.1,0,3.4,1.6,3.4,3.9v1.7C107.8,77.4,106.7,78.4,105,78.4z M106,71.2c-0.5-0.3-1-0.5-1.6-0.5c-1.3,0-2.8,1-4.6,3l0,0.1v3.8h5.3
		c1.4,0,2.1-0.7,2.1-2v-1.7C107.1,72.6,106.7,71.8,106,71.2z"/>
	<path d="M116.6,78.9v-0.5h-2.8c-1,0-1.8-0.3-2.5-1s-1-1.5-1-2.5v-1.4c0-1,0.4-1.8,1-2.5s1.5-1,2.5-1s1.8,0.3,2.5,1
		c0.7,0.7,1,1.5,1,2.5v5.4c0,0.9-0.3,1.7-1,2.3c-0.6,0.6-1.4,1-2.3,1h-1.6c-0.2,0-0.2-0.1-0.2-0.2v-0.2c0-0.2,0.1-0.3,0.2-0.3h1.6
		C115.4,81.4,116.6,80.2,116.6,78.9z M111,74.9c0,0.8,0.3,1.4,0.8,2c0.5,0.5,1.2,0.8,2,0.8h2.8v-4.1c0-0.8-0.3-1.4-0.8-1.9
		c-0.5-0.5-1.2-0.8-2-0.8c-0.8,0-1.4,0.3-2,0.8c-0.5,0.5-0.8,1.2-0.8,1.9V74.9z"/>
	<path d="M148.2,78.4c-0.1,0.9-0.5,1.6-1.2,2.3c-0.7,0.6-1.5,0.9-2.4,0.9c-1,0-1.9-0.3-2.6-1c-0.7-0.7-1-1.6-1-2.6V74
		c0-0.2,0.1-0.2,0.2-0.2h0.2c0.2,0,0.2,0.1,0.2,0.2V78c0,0.8,0.3,1.5,0.8,2s1.2,0.8,2.1,0.8c0.8,0,1.5-0.3,2-0.8s0.8-1.2,0.8-2V66.2
		c0-0.2,0.1-0.3,0.3-0.3h0.2c0.2,0,0.3,0.1,0.3,0.3v11.4h2.4v0.7H148.2z"/>
	<path d="M160.9,77.7h1v0.7h-0.9c-0.9,0-1.8-0.4-2.1-1.2c-0.7,0.8-1.6,1.2-2.6,1.2h-6.2v-0.7h2.7v-4.1c0-1,0.3-1.8,1-2.5
		s1.5-1,2.5-1s1.8,0.3,2.5,1s1,1.5,1,2.5v1.4c0,0.6-0.2,1.2-0.5,1.7C159.6,77.3,160.2,77.7,160.9,77.7z M158.4,76.9
		c0.5-0.5,0.8-1.2,0.8-2v-1.4c0-0.8-0.3-1.4-0.8-2c-0.5-0.5-1.2-0.8-2-0.8s-1.4,0.3-1.9,0.8c-0.5,0.5-0.8,1.2-0.8,2v4.1h2.8
		C157.2,77.7,157.8,77.4,158.4,76.9z"/>
	<path d="M172.3,78.4h-10.7v-0.7h3.9l-2-4.2c0-0.1,0-0.1,0-0.2v-0.1c0.1-0.8,0.5-1.5,1.2-2.2c0.7-0.7,1.6-1,2.5-1
		c0.9,0,1.8,0.3,2.5,1c0.7,0.6,1.1,1.4,1.2,2.3v0c0,0.1,0,0.1,0,0.2l-2,4.2h3.4V78.4z M165.1,71.6c-0.6,0.5-0.9,1.1-1,1.7l2.1,4.4
		h1.9l2.1-4.4c-0.1-0.7-0.4-1.3-1-1.8c-0.6-0.5-1.3-0.8-2-0.8C166.4,70.8,165.7,71,165.1,71.6z"/>
	<path d="M175.6,76.4v-5.8c0-0.2,0.1-0.2,0.2-0.2h0.2c0.2,0,0.3,0.1,0.3,0.2v6c0,0.3,0.1,0.5,0.2,0.6c0.2,0.3,0.7,0.4,1.3,0.4h0.6
		v0.7h-0.4c-0.8,0-1.4-0.2-1.8-0.6c-0.1-0.1-0.1-0.1-0.2-0.2c-0.1,0.1-0.2,0.2-0.2,0.3c-0.4,0.4-0.8,0.5-1.5,0.5h-2.5v-0.7h2.5
		C175.1,77.7,175.6,77.2,175.6,76.4z M174.3,67.7v-0.7c0-0.2,0.1-0.3,0.3-0.3h0.2c0.2,0,0.3,0.1,0.3,0.3v0.7c0,0.2-0.1,0.3-0.3,0.3
		h-0.2C174.4,68,174.3,67.9,174.3,67.7z M177,66.7h0.2c0.2,0,0.3,0.1,0.3,0.3v0.7c0,0.2-0.1,0.3-0.3,0.3H177c-0.2,0-0.3-0.1-0.3-0.3
		v-0.7C176.7,66.8,176.8,66.7,177,66.7z"/>
	<path d="M192.2,77.7h0.6v0.7h-0.4c-0.7,0-1.3-0.2-1.7-0.6c-0.1-0.1-0.1-0.2-0.2-0.3c-0.1,0.1-0.2,0.3-0.3,0.4
		c-0.4,0.4-0.8,0.5-1.5,0.5h-0.8c-0.8,0-1.4-0.2-1.8-0.6c-0.1-0.1-0.1-0.1-0.2-0.2c-0.1,0.1-0.2,0.2-0.2,0.3
		c-0.4,0.4-0.8,0.5-1.5,0.5h-0.8c-0.8,0-1.4-0.2-1.8-0.6c-0.1-0.1-0.1-0.1-0.2-0.2c-0.3,0.5-0.9,0.8-1.7,0.8h-2v-0.7h2
		c0.8,0,1.2-0.5,1.2-1.3v-5.8c0-0.2,0.1-0.3,0.3-0.3h0.2c0.2,0,0.2,0.1,0.2,0.3v6c0,0.8,0.6,1,1.5,1h1c0.8,0,1.2-0.5,1.2-1.3v-5.3
		c0-0.2,0.1-0.2,0.3-0.2h0.2c0.2,0,0.3,0.1,0.3,0.2v5.5c0,0.3,0.1,0.5,0.2,0.6c0.3,0.3,0.7,0.4,1.3,0.4h0.9c0.8,0,1.3-0.4,1.3-1.3
		v-5.8c0-0.2,0.1-0.3,0.3-0.3h0.2c0.2,0,0.2,0.1,0.2,0.3v5.8C190.7,77.2,191.4,77.7,192.2,77.7z"/>
	<path d="M196.1,76.4v-5.8c0-0.2,0.1-0.2,0.2-0.2h0.3c0.2,0,0.2,0.1,0.2,0.2v5.8c0,1.2-0.8,2-2,2h-2.5v-0.7h2.5
		C195.6,77.7,196.1,77.2,196.1,76.4z M194.8,67.7v-0.7c0-0.2,0.1-0.3,0.3-0.3h0.2c0.2,0,0.3,0.1,0.3,0.3v0.7c0,0.2-0.1,0.3-0.3,0.3
		h-0.2C194.9,68,194.8,67.9,194.8,67.7z M197.2,67.7v-0.7c0-0.2,0.1-0.3,0.3-0.3h0.2c0.2,0,0.3,0.1,0.3,0.3v0.7
		c0,0.2-0.1,0.3-0.3,0.3h-0.2C197.3,68,197.2,67.8,197.2,67.7z"/>
	<path d="M230.4,78.4h-6.1c-1,0-1.8-0.3-2.5-1s-1-1.5-1-2.5v-1.4c0-1,0.3-1.8,1-2.5s1.5-1,2.5-1c1,0,1.8,0.3,2.5,1
		c0.7,0.7,1,1.5,1,2.5v4.1h2.6V78.4z M226.3,71.6c-0.5-0.5-1.2-0.8-2-0.8c-0.8,0-1.4,0.3-2,0.8c-0.5,0.5-0.8,1.2-0.8,2v1.4
		c0,0.8,0.3,1.4,0.8,2c0.5,0.5,1.2,0.8,2,0.8h2.8v-4.1C227.1,72.8,226.9,72.1,226.3,71.6z M222.6,67.7v-0.7c0-0.2,0.1-0.3,0.3-0.3
		h0.2c0.2,0,0.3,0.1,0.3,0.3v0.7c0,0.2-0.1,0.3-0.3,0.3H223C222.8,68,222.6,67.9,222.6,67.7z M225.1,67.7v-0.7
		c0-0.2,0.1-0.3,0.3-0.3h0.2c0.2,0,0.3,0.1,0.3,0.3v0.7c0,0.2-0.1,0.3-0.3,0.3h-0.2C225.1,68,225.1,67.9,225.1,67.7z"/>
	<path d="M235.3,77.7h0.5v0.7h-0.4c-0.9,0-1.6-0.3-2-0.8c-0.3,0.5-0.9,0.8-1.7,0.8h-2v-0.7h2c0.8,0,1.2-0.4,1.2-1.3v-5.8
		c0-0.2,0.1-0.2,0.3-0.2h0.2c0.2,0,0.2,0.1,0.2,0.2v6C233.8,77.5,234.4,77.7,235.3,77.7z M231.8,80.5v0.7c0,0.2-0.1,0.3-0.3,0.3
		h-0.3c-0.2,0-0.3-0.1-0.3-0.3v-0.7c0-0.2,0.1-0.3,0.3-0.3h0.3C231.7,80.2,231.8,80.3,231.8,80.5z M234.2,80.5v0.7
		c0,0.2-0.1,0.3-0.3,0.3h-0.2c-0.2,0-0.3-0.1-0.3-0.3v-0.7c0-0.2,0.1-0.3,0.3-0.3h0.2C234.1,80.2,234.2,80.3,234.2,80.5z"/>
	<path d="M238.7,76.4v-5.8c0-0.2,0.1-0.2,0.3-0.2h0.2c0.2,0,0.2,0.1,0.2,0.2v5.8c0,1.2-0.8,2-2,2h-2v-0.7h2
		C238.3,77.7,238.7,77.2,238.7,76.4z M238.3,80.3v0.7c0,0.2-0.1,0.3-0.3,0.3h-0.2c-0.2,0-0.3-0.1-0.3-0.3v-0.7
		c0-0.2,0.1-0.3,0.3-0.3h0.2C238.2,80,238.3,80.1,238.3,80.3z"/>
	<path d="M243.9,81.9v-0.2c0-0.2,0.1-0.3,0.2-0.3h1.6c0.7,0,1.3-0.2,1.8-0.7c0.5-0.5,0.7-1.1,0.7-1.8v-0.5h-2.8c-1,0-1.8-0.3-2.5-1
		s-1-1.5-1-2.5v-1.4c0-1,0.4-1.8,1-2.5s1.5-1,2.5-1s1.8,0.3,2.5,1c0.7,0.7,1,1.5,1,2.5v4.1h2.5v0.7h-2.5v0.5c0,0.9-0.3,1.7-1,2.3
		c-0.6,0.6-1.4,1-2.3,1h-1.6C244,82.1,243.9,82.1,243.9,81.9z M242.7,74.9c0,0.8,0.3,1.4,0.8,2c0.5,0.5,1.2,0.8,2,0.8h2.8v-4.1
		c0-0.8-0.3-1.4-0.8-1.9c-0.5-0.5-1.2-0.8-2-0.8c-0.8,0-1.4,0.3-2,0.8c-0.5,0.5-0.8,1.2-0.8,1.9V74.9z"/>
	<path d="M263.1,76.4v-5.8c0-0.2,0.1-0.3,0.2-0.3h0.3c0.2,0,0.2,0.1,0.2,0.3v5.8c0,1.2-0.8,2-2,2H261c-0.9,0-1.6-0.3-2-0.8
		c-0.3,0.5-0.9,0.8-1.7,0.8h-0.8c-0.8,0-1.4-0.2-1.8-0.6c0,0-0.1-0.1-0.2-0.2c-0.3,0.5-0.9,0.8-1.7,0.8h-2v-0.7h2
		c0.8,0,1.2-0.4,1.2-1.3v-5.8c0-0.2,0.1-0.3,0.2-0.3h0.3c0.2,0,0.2,0.1,0.2,0.3v6c0,0.3,0.1,0.5,0.3,0.6c0.2,0.3,0.6,0.4,1.3,0.4h1
		c0.8,0,1.2-0.5,1.2-1.3v-5.3c0-0.2,0.1-0.2,0.2-0.2h0.2c0.2,0,0.3,0.1,0.3,0.2v5.5c0,0.3,0.1,0.5,0.2,0.6c0.2,0.3,0.6,0.4,1.3,0.4
		h0.9C262.6,77.7,263.1,77.2,263.1,76.4z"/>
	<path d="M266.7,76.4V66.2c0-0.2,0.1-0.2,0.2-0.2h0.3c0.1,0,0.2,0.1,0.2,0.2v10.2c0,0.8,0.4,1.3,1.3,1.3h0.7v0.7h-0.7
		C267.4,78.4,266.7,77.6,266.7,76.4z"/>
	<path d="M275.7,78.4h-6.8v-0.7h6.8c1.4,0,2.1-0.7,2.1-2v-1.7c0-0.9-0.3-1.6-0.9-2.2c-0.6-0.6-1.4-0.9-2.2-0.9
		c-1.2,0-2.2,0.5-2.9,1.5c-0.1,0.1-0.1,0.2-0.3,0.2c-0.1,0-0.1,0-0.1-0.1l-0.2-0.1c-0.1-0.1-0.1-0.1-0.1-0.2c0-0.1,0.1-0.2,0.1-0.2
		c0.7-1,1.9-1.8,3.5-1.8c1.1,0,2,0.4,2.7,1.1s1.1,1.7,1.1,2.7v1.7C278.4,77.4,277.4,78.4,275.7,78.4z"/>
	<path d="M9.1,100h-8c-0.2,0-0.2-0.1-0.2-0.3v-0.2c0-0.2,0.1-0.2,0.2-0.2h2V87.8c0-0.2,0.1-0.3,0.2-0.3h0.3c0.2,0,0.2,0.1,0.2,0.3
		v6.6c1.8-1.8,3.4-2.8,4.7-2.8c2.1,0,3.4,1.6,3.4,3.9v1.7C11.9,99,10.9,100,9.1,100z M10.1,92.8c-0.5-0.3-1-0.5-1.5-0.5
		c-1.3,0-2.8,1-4.7,3l0,0.1v3.8h5.3c1.4,0,2.1-0.7,2.1-2v-1.7C11.2,94.2,10.8,93.4,10.1,92.8z"/>
	<path d="M16.4,103.5v-0.2c0-0.2,0.1-0.3,0.2-0.3h1.6c0.7,0,1.3-0.2,1.8-0.7c0.5-0.5,0.7-1.1,0.7-1.8V100h-2.8c-1,0-1.8-0.3-2.5-1
		s-1-1.5-1-2.5v-1.4c0-1,0.4-1.8,1-2.5s1.5-1,2.5-1s1.8,0.3,2.5,1c0.7,0.7,1,1.5,1,2.5v4.1h2.5v0.7h-2.5v0.5c0,0.9-0.3,1.7-1,2.3
		c-0.6,0.6-1.4,1-2.3,1h-1.6C16.4,103.7,16.4,103.7,16.4,103.5z M15.1,96.5c0,0.8,0.3,1.4,0.8,2c0.5,0.5,1.2,0.8,2,0.8h2.8v-4.1
		c0-0.8-0.3-1.4-0.8-1.9s-1.2-0.8-2-0.8c-0.8,0-1.4,0.3-2,0.8c-0.5,0.5-0.8,1.2-0.8,1.9V96.5z"/>
	<path d="M36.1,99.3h0.6v0.7h-0.4c-0.9,0-1.7-0.4-2-1.1c-0.5,0.8-1.2,1.1-2.4,1.1h-8.5v-0.7h2.4V87.8c0-0.2,0.1-0.3,0.3-0.3h0.2
		c0.2,0,0.2,0.1,0.2,0.3v6.6c1.8-1.8,3.4-2.8,4.7-2.8c2.1,0,3.4,1.6,3.4,3.9V98C34.7,98.8,35.3,99.3,36.1,99.3z M32.9,92.8
		c-0.5-0.3-1-0.5-1.5-0.5c-1.3,0-2.8,1-4.7,3l0,0.1v3.8h5.3c1.4,0,2-0.7,2-2v-1.7C34,94.2,33.6,93.4,32.9,92.8z"/>
	<path d="M45.3,98.9c-0.5,0.7-1.2,1-2.3,1h-6.8v-0.7H43c1.4,0,2-0.7,2-2v-1.7c0-0.9-0.3-1.6-0.9-2.2c-0.6-0.6-1.4-0.9-2.2-0.9
		c-1.2,0-2.2,0.5-2.9,1.5C39,93.9,38.9,94,38.8,94c-0.1,0-0.1,0-0.1,0l-0.2-0.1c-0.1-0.1-0.1-0.1-0.1-0.2s0.1-0.2,0.1-0.2
		c0.7-1,1.9-1.8,3.5-1.8c1.1,0,2,0.4,2.7,1.1s1.1,1.7,1.1,2.7v2.8c0,0.3,0.1,0.5,0.3,0.6c0.3,0.3,0.7,0.4,1.3,0.4h0.5v0.7h-0.4
		C46.4,100,45.6,99.7,45.3,98.9z M41.3,89.3v-0.7c0-0.2,0.1-0.3,0.3-0.3h0.2c0.2,0,0.3,0.1,0.3,0.3v0.7c0,0.2-0.1,0.3-0.3,0.3h-0.2
		C41.4,89.6,41.3,89.5,41.3,89.3z"/>
	<path d="M49.5,100h-2.1v-0.7h2.1c0.8,0,1.3-0.5,1.3-1.3V87.8c0-0.2,0.1-0.2,0.2-0.2h0.3c0.2,0,0.2,0.1,0.2,0.2V98
		C51.5,99.2,50.7,100,49.5,100z"/>
	<path d="M54.9,100h-0.3c-0.2,0-0.2-0.1-0.2-0.2V87.8c0-0.2,0.1-0.2,0.2-0.2h0.3c0.1,0,0.2,0.1,0.2,0.2v11.9
		C55.2,99.9,55.1,100,54.9,100z"/>
	<path d="M64,100.5V100h-2.8c-1,0-1.8-0.3-2.5-1s-1-1.5-1-2.5v-1.4c0-1,0.4-1.8,1-2.5s1.5-1,2.5-1s1.8,0.3,2.5,1
		c0.7,0.7,1,1.5,1,2.5v5.4c0,0.9-0.3,1.7-1,2.3c-0.6,0.6-1.4,1-2.3,1h-1.6c-0.2,0-0.2-0.1-0.2-0.2v-0.2c0-0.2,0.1-0.3,0.2-0.3h1.6
		C62.8,103,64,101.8,64,100.5z M58.4,96.5c0,0.8,0.3,1.4,0.8,2c0.5,0.5,1.2,0.8,2,0.8H64v-4.1c0-0.8-0.3-1.4-0.8-1.9s-1.2-0.8-2-0.8
		c-0.8,0-1.4,0.3-2,0.8c-0.5,0.5-0.8,1.2-0.8,1.9V96.5z"/>
	<path d="M85.6,99.3h0.6v0.7h-0.4c-1,0-1.7-0.4-2-1.1c-0.5,0.8-1.2,1.1-2.4,1.1h-8c-0.2,0-0.2-0.1-0.2-0.3v-0.2
		c0-0.2,0.1-0.2,0.2-0.2h2V87.8c0-0.2,0.1-0.3,0.3-0.3h0.2c0.2,0,0.2,0.1,0.2,0.3v6.6c1.8-1.8,3.4-2.8,4.7-2.8
		c2.1,0,3.4,1.6,3.4,3.9V98C84.1,98.8,84.8,99.3,85.6,99.3z M82.3,92.8c-0.5-0.3-1-0.5-1.5-0.5c-1.3,0-2.8,1-4.7,3l0,0.1v3.8h5.3
		c1.4,0,2-0.7,2-2v-1.7C83.4,94.2,83,93.4,82.3,92.8z"/>
	<path d="M97.9,100H85.7v-0.7h4.1c-0.9-0.7-1.4-1.6-1.4-2.8v-1.4c0-1,0.3-1.8,1-2.5c0.7-0.7,1.5-1,2.5-1c1,0,1.8,0.3,2.5,1
		s1,1.5,1,2.5v4.1h2.5V100z M89.9,98.5c0.5,0.5,1.2,0.8,2,0.8h2.8v-4.1c0-0.8-0.3-1.4-0.8-2c-0.5-0.5-1.2-0.8-2-0.8
		c-0.8,0-1.4,0.3-2,0.8c-0.5,0.5-0.8,1.2-0.8,2v1.4C89.1,97.3,89.4,97.9,89.9,98.5z M90.2,89.3v-0.7c0-0.2,0.1-0.3,0.3-0.3h0.3
		c0.2,0,0.3,0.1,0.3,0.3v0.7c0,0.2-0.1,0.3-0.3,0.3h-0.3C90.3,89.6,90.2,89.5,90.2,89.3z M92.6,89.3v-0.7c0-0.2,0.1-0.3,0.3-0.3h0.2
		c0.2,0,0.3,0.1,0.3,0.3v0.7c0,0.2-0.1,0.3-0.3,0.3h-0.2C92.7,89.6,92.6,89.5,92.6,89.3z"/>
	<path d="M102.9,99.3h0.5v0.7H103c-0.9,0-1.6-0.3-2-0.8c-0.3,0.5-0.9,0.8-1.7,0.8h-2v-0.7h2c0.8,0,1.2-0.5,1.2-1.3v-5.8
		c0-0.2,0.1-0.2,0.3-0.2h0.2c0.2,0,0.2,0.1,0.2,0.2v6C101.4,99,102,99.3,102.9,99.3z M100.6,89.3v-0.7c0-0.2,0.1-0.3,0.3-0.3h0.2
		c0.2,0,0.3,0.1,0.3,0.3v0.7c0,0.2-0.1,0.3-0.3,0.3h-0.2C100.7,89.6,100.6,89.5,100.6,89.3z"/>
	<path d="M105.1,100H103v-0.7h2.1c0.8,0,1.3-0.5,1.3-1.3V87.8c0-0.2,0.1-0.2,0.2-0.2h0.3c0.2,0,0.2,0.1,0.2,0.2V98
		C107.1,99.2,106.3,100,105.1,100z"/>
	<path d="M110.5,100h-0.3c-0.2,0-0.2-0.1-0.2-0.2V87.8c0-0.2,0.1-0.2,0.2-0.2h0.3c0.1,0,0.2,0.1,0.2,0.2v11.9
		C110.8,99.9,110.7,100,110.5,100z"/>
	<path d="M130.3,98v-5.8c0-0.2,0.1-0.2,0.3-0.2h0.2c0.2,0,0.2,0.1,0.2,0.2V98c0,1.2-0.8,2-2,2h-6.3c-1,0-1.9-0.3-2.6-1
		c-0.7-0.7-1-1.6-1-2.6c0-1.6,1-2.8,2.1-3.3c0,0,0.1,0,0.1,0c0.1,0,0.2,0.1,0.2,0.1l0.1,0.2c0,0,0,0.1,0,0.1c0,0.2-0.1,0.2-0.2,0.3
		c-0.9,0.5-1.6,1.4-1.6,2.6c0,0.8,0.3,1.5,0.8,2.1c0.6,0.6,1.3,0.8,2.1,0.8h6.3C129.9,99.3,130.3,98.8,130.3,98z M124.3,91v-0.7
		c0-0.2,0.1-0.3,0.3-0.3h0.2c0.2,0,0.3,0.1,0.3,0.3V91c0,0.2-0.1,0.3-0.3,0.3h-0.2C124.4,91.2,124.3,91.1,124.3,91z M126.7,91v-0.7
		c0-0.2,0.1-0.3,0.3-0.3h0.3c0.2,0,0.3,0.1,0.3,0.3V91c0,0.2-0.1,0.3-0.3,0.3H127C126.8,91.2,126.7,91.1,126.7,91z"/>
	<path d="M133.9,98V87.8c0-0.2,0.1-0.2,0.2-0.2h0.3c0.1,0,0.2,0.1,0.2,0.2V98c0,0.8,0.4,1.3,1.3,1.3h0.7v0.7h-0.7
		C134.7,100,133.9,99.2,133.9,98z"/>
	<path d="M141.7,99.3h0.5v0.7h-0.4c-0.9,0-1.6-0.3-2-0.8c-0.3,0.5-0.9,0.8-1.7,0.8h-2v-0.7h2c0.8,0,1.2-0.4,1.2-1.3v-5.8
		c0-0.2,0.1-0.2,0.3-0.2h0.2c0.2,0,0.2,0.1,0.2,0.2v6C140.2,99.1,140.8,99.3,141.7,99.3z M138.1,102.1v0.7c0,0.2-0.1,0.3-0.3,0.3
		h-0.3c-0.2,0-0.3-0.1-0.3-0.3v-0.7c0-0.2,0.1-0.3,0.3-0.3h0.3C138,101.8,138.1,101.9,138.1,102.1z M140.5,102.1v0.7
		c0,0.2-0.1,0.3-0.3,0.3H140c-0.2,0-0.3-0.1-0.3-0.3v-0.7c0-0.2,0.1-0.3,0.3-0.3h0.2C140.4,101.8,140.5,101.9,140.5,102.1z"/>
	<path d="M145.4,98v-5.8c0-0.2,0.1-0.2,0.3-0.2h0.2c0.2,0,0.2,0.1,0.2,0.2V98c0,1.2-0.8,2-2,2h-2.4v-0.7h2.4
		C145,99.3,145.4,98.8,145.4,98z M144.1,89.3v-0.7c0-0.2,0.1-0.3,0.3-0.3h0.2c0.2,0,0.3,0.1,0.3,0.3v0.7c0,0.2-0.1,0.3-0.3,0.3h-0.2
		C144.3,89.6,144.1,89.5,144.1,89.3z M145.9,87.6h-0.2c-0.2,0-0.3-0.1-0.3-0.3v-0.7c0-0.2,0.1-0.3,0.3-0.3h0.2
		c0.2,0,0.3,0.1,0.3,0.3v0.7C146.2,87.4,146.1,87.6,145.9,87.6z M147.4,88.5v0.7c0,0.2-0.1,0.3-0.3,0.3h-0.3c-0.2,0-0.3-0.1-0.3-0.3
		v-0.7c0-0.2,0.1-0.3,0.3-0.3h0.3C147.3,88.2,147.4,88.3,147.4,88.5z"/>
	<path d="M149.9,100h-0.3c-0.2,0-0.2-0.1-0.2-0.2V87.8c0-0.2,0.1-0.2,0.2-0.2h0.3c0.1,0,0.2,0.1,0.2,0.2v11.9
		C150.1,99.9,150,100,149.9,100z"/>
	<path d="M160.4,99.3h0.6l0,0.7h-0.4c-0.9,0-1.6-0.4-2-1c-0.4,0.7-1.2,1-2.4,1h-3.6c-0.2,0-0.2-0.1-0.2-0.2v-0.3
		c0-0.2,0.1-0.2,0.2-0.2h3.6c1.4,0,2-0.5,2-1.8v-2.9c0-1.2-1-2.2-2.2-2.2c-0.8,0-1.5,0.2-1.9,0.5c-0.1,0-0.1,0.1-0.2,0.1
		c-0.1,0-0.2,0-0.2-0.1l-0.1-0.2c0-0.1-0.1-0.1-0.1-0.2v0c0-0.1,0.1-0.2,0.2-0.2c0.6-0.4,1.3-0.6,2.3-0.6c0.8,0,1.5,0.3,2.1,0.9
		s0.9,1.3,0.9,2.1V98C158.9,98.8,159.6,99.3,160.4,99.3z"/>
	<path d="M167.3,100h-6.8v-0.7h6.8c1.4,0,2.1-0.7,2.1-2v-1.7c0-0.9-0.3-1.6-0.9-2.2c-0.6-0.6-1.4-0.9-2.2-0.9
		c-1.2,0-2.2,0.5-2.9,1.5c-0.1,0.1-0.1,0.2-0.3,0.2c-0.1,0-0.1,0-0.1-0.1l-0.2-0.1c-0.1-0.1-0.1-0.1-0.1-0.2s0.1-0.2,0.1-0.2
		c0.7-1,1.9-1.8,3.5-1.8c1.1,0,2,0.4,2.7,1.1s1.1,1.7,1.1,2.7v1.7C170.1,99,169.1,100,167.3,100z"/>
	<path d="M173.1,102.6v1h1.5c0.2,0,0.3,0.1,0.3,0.2v0c0,0.2-0.1,0.3-0.3,0.3h-2.4c-0.2,0-0.2-0.1-0.2-0.3v0c0-0.2,0.1-0.2,0.2-0.2
		h0.4v-1c0-0.6,0.5-1.2,1.2-1.2c0.5,0,0.9,0.2,1.1,0.7c0,0,0,0.1,0,0.1c0,0.2-0.1,0.3-0.3,0.3c-0.1,0-0.2-0.1-0.2-0.2
		c-0.1-0.3-0.3-0.4-0.6-0.4C173.4,102,173.1,102.2,173.1,102.6z M173.1,99.8V87.8c0-0.2,0.1-0.3,0.3-0.3h0.2c0.2,0,0.2,0.1,0.2,0.3
		v11.9c0,0.2-0.1,0.2-0.2,0.2h-0.2C173.2,100,173.1,99.9,173.1,99.8z"/>
	<path d="M189.6,100c-0.1,0.9-0.5,1.6-1.2,2.3c-0.7,0.6-1.5,0.9-2.4,0.9c-1,0-1.9-0.3-2.6-1c-0.7-0.7-1-1.6-1-2.6v-3.9
		c0-0.2,0.1-0.2,0.2-0.2h0.2c0.2,0,0.2,0.1,0.2,0.2v3.9c0,0.8,0.3,1.5,0.8,2s1.2,0.8,2.1,0.8c0.8,0,1.5-0.3,2-0.8s0.8-1.2,0.8-2
		V87.8c0-0.2,0.1-0.3,0.3-0.3h0.2c0.2,0,0.3,0.1,0.3,0.3v11.4h2.4v0.7H189.6z"/>
	<path d="M197.1,99.3h0.5v0.7h-0.4c-0.8,0-1.4-0.2-1.8-0.6c-0.1-0.1-0.1-0.1-0.2-0.2c-0.3,0.5-0.9,0.8-1.7,0.8h-2v-0.7h2
		c0.8,0,1.2-0.4,1.2-1.3v-5.8c0-0.2,0.1-0.2,0.3-0.2h0.2c0.2,0,0.2,0.1,0.2,0.2v6C195.5,99.1,196.2,99.3,197.1,99.3z M193.6,89.3
		v-0.7c0-0.2,0.1-0.3,0.3-0.3h0.2c0.2,0,0.3,0.1,0.3,0.3v0.7c0,0.2-0.1,0.3-0.3,0.3h-0.2C193.7,89.6,193.6,89.5,193.6,89.3z
		 M195.6,86.5v0.7c0,0.2-0.1,0.3-0.3,0.3h-0.2c-0.2,0-0.3-0.1-0.3-0.3v-0.7c0-0.2,0.1-0.3,0.3-0.3h0.2
		C195.5,86.2,195.6,86.4,195.6,86.5z M196,89.3v-0.7c0-0.2,0.1-0.3,0.3-0.3h0.3c0.2,0,0.3,0.1,0.3,0.3v0.7c0,0.2-0.1,0.3-0.3,0.3
		h-0.3C196.1,89.6,196,89.5,196,89.3z"/>
	<path d="M197.1,99.3h2.7v-4.1c0-1,0.3-1.8,1-2.5s1.5-1,2.5-1s1.8,0.3,2.5,1s1,1.5,1,2.5v1.4c0,1-0.3,1.8-1,2.5s-1.5,1-2.5,1h-6.2
		V99.3z M203.4,99.3c0.8,0,1.4-0.3,2-0.8c0.5-0.5,0.8-1.2,0.8-2v-1.4c0-0.8-0.3-1.4-0.8-2c-0.5-0.5-1.2-0.8-2-0.8s-1.4,0.3-1.9,0.8
		c-0.5,0.5-0.8,1.2-0.8,2v4.1H203.4z"/>
	<path d="M224.9,100h-6.1c-1,0-1.8-0.3-2.5-1s-1-1.5-1-2.5v-1.4c0-1,0.3-1.8,1-2.5s1.5-1,2.5-1c1,0,1.8,0.3,2.5,1
		c0.7,0.7,1,1.5,1,2.5v4.1h2.6V100z M220.7,93.2c-0.5-0.5-1.2-0.8-2-0.8c-0.8,0-1.4,0.3-2,0.8c-0.5,0.5-0.8,1.2-0.8,2v1.4
		c0,0.8,0.3,1.4,0.8,2c0.5,0.5,1.2,0.8,2,0.8h2.8v-4.1C221.5,94.4,221.3,93.7,220.7,93.2z M217.1,89.3v-0.7c0-0.2,0.1-0.3,0.3-0.3
		h0.2c0.2,0,0.3,0.1,0.3,0.3v0.7c0,0.2-0.1,0.3-0.3,0.3h-0.2C217.2,89.6,217.1,89.5,217.1,89.3z M219.5,89.3v-0.7
		c0-0.2,0.1-0.3,0.3-0.3h0.2c0.2,0,0.3,0.1,0.3,0.3v0.7c0,0.2-0.1,0.3-0.3,0.3h-0.2C219.6,89.6,219.5,89.5,219.5,89.3z"/>
	<path d="M229.7,99.3h0.5v0.7h-0.4c-0.9,0-1.6-0.3-2-0.8c-0.3,0.5-0.9,0.8-1.7,0.8h-2v-0.7h2c0.8,0,1.2-0.4,1.2-1.3v-5.8
		c0-0.2,0.1-0.2,0.3-0.2h0.2c0.2,0,0.2,0.1,0.2,0.2v6C228.2,99.1,228.8,99.3,229.7,99.3z M226.2,102.1v0.7c0,0.2-0.1,0.3-0.3,0.3
		h-0.3c-0.2,0-0.3-0.1-0.3-0.3v-0.7c0-0.2,0.1-0.3,0.3-0.3h0.3C226.1,101.8,226.2,101.9,226.2,102.1z M228.6,102.1v0.7
		c0,0.2-0.1,0.3-0.3,0.3h-0.2c-0.2,0-0.3-0.1-0.3-0.3v-0.7c0-0.2,0.1-0.3,0.3-0.3h0.2C228.5,101.8,228.6,101.9,228.6,102.1z"/>
	<path d="M241.9,98v-5.8c0-0.2,0.1-0.3,0.2-0.3h0.3c0.2,0,0.2,0.1,0.2,0.3V98c0,1.2-0.8,2-2,2h-0.8c-0.9,0-1.6-0.3-2-0.8
		c-0.3,0.5-0.9,0.8-1.7,0.8h-0.8c-0.8,0-1.4-0.2-1.8-0.6c0,0-0.1-0.1-0.2-0.2c-0.3,0.5-0.9,0.8-1.7,0.8h-2v-0.7h2
		c0.8,0,1.2-0.4,1.2-1.3v-5.8c0-0.2,0.1-0.3,0.2-0.3h0.3c0.2,0,0.2,0.1,0.2,0.3v6c0,0.3,0.1,0.5,0.3,0.6c0.2,0.3,0.6,0.4,1.3,0.4h1
		c0.8,0,1.2-0.5,1.2-1.3v-5.3c0-0.2,0.1-0.2,0.2-0.2h0.2c0.2,0,0.3,0.1,0.3,0.2v5.5c0,0.3,0.1,0.5,0.2,0.6c0.2,0.3,0.6,0.4,1.3,0.4
		h0.9C241.5,99.3,241.9,98.8,241.9,98z"/>
	<path d="M253,99.3h0.6l0,0.7h-0.4c-0.9,0-1.6-0.4-2-1c-0.4,0.7-1.2,1-2.4,1h-3.6c-0.2,0-0.2-0.1-0.2-0.2v-0.3
		c0-0.2,0.1-0.2,0.2-0.2h3.6c1.4,0,2-0.5,2-1.8v-2.9c0-1.2-1-2.2-2.2-2.2c-0.8,0-1.5,0.2-1.9,0.5c-0.1,0-0.1,0.1-0.2,0.1
		c-0.1,0-0.2,0-0.2-0.1l-0.1-0.2c0-0.1-0.1-0.1-0.1-0.2v0c0-0.1,0.1-0.2,0.2-0.2c0.6-0.4,1.3-0.6,2.3-0.6c0.8,0,1.5,0.3,2.1,0.9
		s0.9,1.3,0.9,2.1V98C251.5,98.8,252.1,99.3,253,99.3z"/>
	<path d="M258.6,99.3h0.5v0.7h-0.4c-0.9,0-1.6-0.3-2-0.8c-0.3,0.5-0.9,0.8-1.7,0.8h-2v-0.7h2c0.8,0,1.2-0.5,1.2-1.3v-5.8
		c0-0.2,0.1-0.2,0.3-0.2h0.2c0.2,0,0.2,0.1,0.2,0.2v6C257.1,99,257.7,99.3,258.6,99.3z M256.3,89.3v-0.7c0-0.2,0.1-0.3,0.3-0.3h0.2
		c0.2,0,0.3,0.1,0.3,0.3v0.7c0,0.2-0.1,0.3-0.3,0.3h-0.2C256.4,89.6,256.3,89.5,256.3,89.3z"/>
	<path d="M268.4,99.3h2.8v0.7h-2.4v0.4c0,1-0.3,1.8-1,2.5c-0.7,0.7-1.5,1-2.5,1c-1,0-1.8-0.3-2.5-1c-0.7-0.7-1-1.5-1-2.5V100h-3.1
		v-0.7h3.1v-4.1c0-1,0.3-1.8,1-2.5c0.7-0.7,1.5-1,2.5-1c1,0,1.8,0.3,2.5,1c0.7,0.7,1,1.5,1,2.5v1.4c0,1-0.3,1.8-1,2.5
		c-0.7,0.7-1.5,1-2.5,1h-2.8v0.4c0,0.8,0.3,1.4,0.8,2c0.5,0.5,1.2,0.8,2,0.8c0.8,0,1.4-0.3,2-0.8c0.5-0.5,0.8-1.2,0.8-2v-0.7
		C268,99.4,268.2,99.3,268.4,99.3z M265.3,99.3c0.8,0,1.4-0.3,2-0.8c0.5-0.5,0.8-1.2,0.8-2v-1.4c0-0.8-0.3-1.4-0.8-2
		c-0.5-0.5-1.2-0.8-2-0.8c-0.8,0-1.4,0.3-2,0.8c-0.5,0.5-0.8,1.2-0.8,2v4.1H265.3z"/>
	<path d="M272.8,100h-2.1v-0.7h2.1c0.8,0,1.3-0.5,1.3-1.3V87.8c0-0.2,0.1-0.2,0.2-0.2h0.3c0.2,0,0.2,0.1,0.2,0.2V98
		C274.8,99.2,274,100,272.8,100z"/>
	<path d="M278.2,100H278c-0.2,0-0.2-0.1-0.2-0.2V87.8c0-0.2,0.1-0.2,0.2-0.2h0.3c0.1,0,0.2,0.1,0.2,0.2v11.9
		C278.5,99.9,278.4,100,278.2,100z"/>
	<path d="M8,121.6c-0.1,0.9-0.5,1.6-1.2,2.3c-0.7,0.6-1.5,0.9-2.4,0.9c-1,0-1.9-0.3-2.6-1s-1-1.6-1-2.6v-3.9c0-0.2,0.1-0.2,0.2-0.2
		h0.2c0.2,0,0.2,0.1,0.2,0.2v3.9c0,0.8,0.3,1.5,0.8,2s1.2,0.8,2.1,0.8c0.8,0,1.5-0.3,2-0.8s0.8-1.2,0.8-2v-11.7
		c0-0.2,0.1-0.3,0.3-0.3h0.2c0.2,0,0.3,0.1,0.3,0.3v11.4h2.4v0.7H8z"/>
	<path d="M15.5,120.9H16v0.7h-0.4c-0.8,0-1.4-0.2-1.8-0.6c-0.1-0.1-0.1-0.1-0.2-0.2c-0.3,0.5-0.9,0.8-1.7,0.8h-2v-0.7h2
		c0.8,0,1.2-0.4,1.2-1.3v-5.8c0-0.2,0.1-0.2,0.3-0.2h0.2c0.2,0,0.2,0.1,0.2,0.2v6C14,120.7,14.6,120.9,15.5,120.9z M12,110.9v-0.7
		c0-0.2,0.1-0.3,0.3-0.3h0.2c0.2,0,0.3,0.1,0.3,0.3v0.7c0,0.2-0.1,0.3-0.3,0.3h-0.2C12.1,111.2,12,111.1,12,110.9z M14,108.1v0.7
		c0,0.2-0.1,0.3-0.3,0.3h-0.2c-0.2,0-0.3-0.1-0.3-0.3v-0.7c0-0.2,0.1-0.3,0.3-0.3h0.2C13.9,107.8,14,108,14,108.1z M14.4,110.9v-0.7
		c0-0.2,0.1-0.3,0.3-0.3h0.3c0.2,0,0.3,0.1,0.3,0.3v0.7c0,0.2-0.1,0.3-0.3,0.3h-0.3C14.5,111.2,14.4,111.1,14.4,110.9z"/>
	<path d="M26.3,120.9h1v0.7h-0.9c-0.9,0-1.8-0.4-2.1-1.2c-0.7,0.8-1.6,1.2-2.6,1.2h-6.2v-0.7h2.7v-4.1c0-1,0.3-1.8,1-2.5
		s1.5-1,2.5-1s1.8,0.3,2.5,1c0.7,0.7,1,1.5,1,2.5v1.4c0,0.6-0.2,1.2-0.5,1.7C25,120.5,25.6,120.9,26.3,120.9z M23.8,120.1
		c0.5-0.5,0.8-1.2,0.8-2v-1.4c0-0.8-0.3-1.4-0.8-2c-0.5-0.5-1.2-0.8-2-0.8s-1.4,0.3-1.9,0.8c-0.5,0.5-0.8,1.2-0.8,2v4.1h2.8
		C22.6,120.9,23.2,120.6,23.8,120.1z"/>
	<path d="M30.7,119.6v-5.8c0-0.2,0.1-0.2,0.2-0.2h0.2c0.2,0,0.3,0.1,0.3,0.2v6c0,0.3,0.1,0.5,0.2,0.6c0.2,0.3,0.7,0.4,1.3,0.4h0.6
		v0.7H33c-0.8,0-1.4-0.2-1.8-0.6c-0.1-0.1-0.1-0.1-0.2-0.2c-0.1,0.1-0.2,0.2-0.2,0.3c-0.4,0.4-0.8,0.5-1.5,0.5h-2.5v-0.7h2.5
		C30.2,120.9,30.7,120.4,30.7,119.6z M29.4,110.9v-0.7c0-0.2,0.1-0.3,0.3-0.3H30c0.2,0,0.3,0.1,0.3,0.3v0.7c0,0.2-0.1,0.3-0.3,0.3
		h-0.2C29.5,111.2,29.4,111.1,29.4,110.9z M32.1,109.9h0.2c0.2,0,0.3,0.1,0.3,0.3v0.7c0,0.2-0.1,0.3-0.3,0.3h-0.2
		c-0.2,0-0.3-0.1-0.3-0.3v-0.7C31.8,110,32,109.9,32.1,109.9z"/>
	<path d="M35.1,121.6H33v-0.7h2.1c0.8,0,1.3-0.5,1.3-1.3v-10.2c0-0.2,0.1-0.2,0.2-0.2h0.3c0.2,0,0.2,0.1,0.2,0.2v10.2
		C37.1,120.8,36.3,121.6,35.1,121.6z"/>
	<path d="M65.3,119.6v-5.8c0-0.2,0.1-0.2,0.3-0.2h0.2c0.2,0,0.2,0.1,0.2,0.2v5.8c0,1.2-0.8,2-2,2h-6.3c-1,0-1.9-0.3-2.6-1
		s-1-1.6-1-2.6c0-1.6,1-2.8,2.1-3.3c0,0,0.1,0,0.1,0c0.1,0,0.2,0.1,0.2,0.1l0.1,0.2c0,0,0,0.1,0,0.1c0,0.2-0.1,0.2-0.2,0.3
		c-0.9,0.5-1.6,1.4-1.6,2.6c0,0.8,0.3,1.5,0.8,2.1c0.6,0.6,1.3,0.8,2.1,0.8H64C64.9,120.9,65.3,120.4,65.3,119.6z M59.3,112.6v-0.7
		c0-0.2,0.1-0.3,0.3-0.3h0.2c0.2,0,0.3,0.1,0.3,0.3v0.7c0,0.2-0.1,0.3-0.3,0.3h-0.2C59.4,112.8,59.3,112.7,59.3,112.6z M61.7,112.6
		v-0.7c0-0.2,0.1-0.3,0.3-0.3h0.3c0.2,0,0.3,0.1,0.3,0.3v0.7c0,0.2-0.1,0.3-0.3,0.3H62C61.8,112.8,61.7,112.7,61.7,112.6z"/>
	<path d="M68.9,119.6v-10.2c0-0.2,0.1-0.2,0.2-0.2h0.3c0.1,0,0.2,0.1,0.2,0.2v10.2c0,0.8,0.4,1.3,1.3,1.3h0.7v0.7h-0.7
		C69.7,121.6,68.9,120.8,68.9,119.6z"/>
	<path d="M76.7,120.9h0.5v0.7h-0.4c-0.9,0-1.6-0.3-2-0.8c-0.3,0.5-0.9,0.8-1.7,0.8h-2v-0.7h2c0.8,0,1.2-0.4,1.2-1.3v-5.8
		c0-0.2,0.1-0.2,0.3-0.2h0.2c0.2,0,0.2,0.1,0.2,0.2v6C75.2,120.7,75.8,120.9,76.7,120.9z M73.1,123.7v0.7c0,0.2-0.1,0.3-0.3,0.3
		h-0.3c-0.2,0-0.3-0.1-0.3-0.3v-0.7c0-0.2,0.1-0.3,0.3-0.3h0.3C73,123.4,73.1,123.5,73.1,123.7z M75.5,123.7v0.7
		c0,0.2-0.1,0.3-0.3,0.3H75c-0.2,0-0.3-0.1-0.3-0.3v-0.7c0-0.2,0.1-0.3,0.3-0.3h0.2C75.4,123.4,75.5,123.5,75.5,123.7z"/>
	<path d="M82.3,120.9h0.5v0.7h-0.4c-0.9,0-1.6-0.3-2-0.8c-0.3,0.5-0.9,0.8-1.7,0.8h-2v-0.7h2c0.8,0,1.2-0.5,1.2-1.3v-5.8
		c0-0.2,0.1-0.2,0.3-0.2h0.2c0.2,0,0.2,0.1,0.2,0.2v6C80.8,120.6,81.4,120.9,82.3,120.9z M80,110.9v-0.7c0-0.2,0.1-0.3,0.3-0.3h0.2
		c0.2,0,0.3,0.1,0.3,0.3v0.7c0,0.2-0.1,0.3-0.3,0.3h-0.2C80.1,111.2,80,111.1,80,110.9z"/>
	<path d="M91.4,120.5c-0.5,0.7-1.2,1-2.3,1h-6.8v-0.7h6.8c1.4,0,2-0.7,2-2v-1.7c0-0.9-0.3-1.6-0.9-2.2c-0.6-0.6-1.4-0.9-2.2-0.9
		c-1.2,0-2.2,0.5-2.9,1.5c-0.1,0.1-0.1,0.2-0.3,0.2c-0.1,0-0.1,0-0.1,0l-0.2-0.1c-0.1-0.1-0.1-0.1-0.1-0.2c0-0.1,0.1-0.2,0.1-0.2
		c0.4-0.5,0.9-1,1.5-1.3c0.6-0.3,1.3-0.5,2-0.5c1.1,0,2,0.4,2.7,1.1s1.1,1.7,1.1,2.7v2.8c0,0.3,0.1,0.5,0.3,0.6
		c0.2,0.3,0.6,0.4,1.2,0.4h0.6v0.7h-0.4C92.5,121.6,91.7,121.3,91.4,120.5z"/>
	<path d="M99,120.9h0.5v0.7h-0.4c-0.9,0-1.6-0.3-2-0.8c-0.3,0.5-0.9,0.8-1.7,0.8h-2v-0.7h2c0.8,0,1.2-0.5,1.2-1.3v-5.8
		c0-0.2,0.1-0.2,0.3-0.2h0.2c0.2,0,0.2,0.1,0.2,0.2v6C97.5,120.6,98.1,120.9,99,120.9z M96.7,110.9v-0.7c0-0.2,0.1-0.3,0.3-0.3h0.2
		c0.2,0,0.3,0.1,0.3,0.3v0.7c0,0.2-0.1,0.3-0.3,0.3H97C96.8,111.2,96.7,111.1,96.7,110.9z"/>
	<path d="M109.8,120.9h1v0.7H110c-0.9,0-1.8-0.4-2.1-1.2c-0.7,0.8-1.6,1.2-2.6,1.2h-6.2v-0.7h2.7v-4.1c0-1,0.3-1.8,1-2.5
		s1.5-1,2.5-1s1.8,0.3,2.5,1s1,1.5,1,2.5v1.4c0,0.6-0.2,1.2-0.5,1.7C108.5,120.5,109.1,120.9,109.8,120.9z M107.3,120.1
		c0.5-0.5,0.8-1.2,0.8-2v-1.4c0-0.8-0.3-1.4-0.8-2c-0.5-0.5-1.2-0.8-2-0.8s-1.4,0.3-1.9,0.8c-0.5,0.5-0.8,1.2-0.8,2v4.1h2.8
		C106.1,120.9,106.7,120.6,107.3,120.1z"/>
	<path d="M116,120.9h0.5v0.7h-0.4c-0.9,0-1.5-0.3-1.9-0.8c-0.1,0.1-0.1,0.2-0.2,0.3c-0.4,0.4-0.9,0.5-1.5,0.5h-2.1v-0.7h2.1
		c0.8,0,1.3-0.4,1.3-1.3v-10.2c0-0.2,0.1-0.2,0.2-0.2h0.3c0.2,0,0.2,0.1,0.2,0.2v10.4C114.5,120.6,115.1,120.9,116,120.9z"/>
	<path d="M118.2,121.6h-2.1v-0.7h2.1c0.8,0,1.3-0.5,1.3-1.3v-10.2c0-0.2,0.1-0.2,0.2-0.2h0.3c0.2,0,0.2,0.1,0.2,0.2v10.2
		C120.2,120.8,119.4,121.6,118.2,121.6z"/>
	<path d="M146.8,121.6h-6.1c-1,0-1.8-0.3-2.5-1s-1-1.5-1-2.5v-1.4c0-1,0.3-1.8,1-2.5s1.5-1,2.5-1c1,0,1.8,0.3,2.5,1
		c0.7,0.7,1,1.5,1,2.5v4.1h2.6V121.6z M142.7,114.8c-0.5-0.5-1.2-0.8-2-0.8c-0.8,0-1.4,0.3-2,0.8c-0.5,0.5-0.8,1.2-0.8,2v1.4
		c0,0.8,0.3,1.4,0.8,2c0.5,0.5,1.2,0.8,2,0.8h2.8v-4.1C143.5,116,143.2,115.3,142.7,114.8z M139,110.9v-0.7c0-0.2,0.1-0.3,0.3-0.3
		h0.2c0.2,0,0.3,0.1,0.3,0.3v0.7c0,0.2-0.1,0.3-0.3,0.3h-0.2C139.1,111.2,139,111.1,139,110.9z M141.4,110.9v-0.7
		c0-0.2,0.1-0.3,0.3-0.3h0.2c0.2,0,0.3,0.1,0.3,0.3v0.7c0,0.2-0.1,0.3-0.3,0.3h-0.2C141.5,111.2,141.4,111.1,141.4,110.9z"/>
	<path d="M151.7,120.9h0.5v0.7h-0.4c-0.9,0-1.6-0.3-2-0.8c-0.3,0.5-0.9,0.8-1.7,0.8h-2v-0.7h2c0.8,0,1.2-0.4,1.2-1.3v-5.8
		c0-0.2,0.1-0.2,0.3-0.2h0.2c0.2,0,0.2,0.1,0.2,0.2v6C150.2,120.7,150.8,120.9,151.7,120.9z M148.2,123.7v0.7c0,0.2-0.1,0.3-0.3,0.3
		h-0.3c-0.2,0-0.3-0.1-0.3-0.3v-0.7c0-0.2,0.1-0.3,0.3-0.3h0.3C148.1,123.4,148.2,123.5,148.2,123.7z M150.6,123.7v0.7
		c0,0.2-0.1,0.3-0.3,0.3H150c-0.2,0-0.3-0.1-0.3-0.3v-0.7c0-0.2,0.1-0.3,0.3-0.3h0.2C150.5,123.4,150.6,123.5,150.6,123.7z"/>
	<path d="M160.3,121.6h-8.5v-0.7h2.4v-6.8c0-0.2,0.1-0.3,0.3-0.3h0.2c0.2,0,0.2,0.1,0.2,0.3v1.8c1.8-1.8,3.3-2.6,4.7-2.6
		c2.1,0,3.4,1.6,3.4,3.9v1.7C163,120.6,162,121.6,160.3,121.6z M161.2,114.4c-0.5-0.3-1-0.5-1.5-0.5c-1.4,0-2.9,1-4.7,2.9l0,0.1v4
		h5.3c1.4,0,2-0.7,2-2v-1.7C162.3,115.8,162,115,161.2,114.4z M158.1,110.9v-0.7c0-0.2,0.1-0.3,0.3-0.3h0.2c0.2,0,0.3,0.1,0.3,0.3
		v0.7c0,0.2-0.1,0.3-0.3,0.3h-0.2C158.2,111.2,158.1,111.1,158.1,110.9z"/>
	<path d="M165.9,119.6v-10.2c0-0.2,0.1-0.2,0.2-0.2h0.3c0.1,0,0.2,0.1,0.2,0.2v10.2c0,0.8,0.4,1.3,1.3,1.3h0.7v0.7h-0.7
		C166.7,121.6,165.9,120.8,165.9,119.6z"/>
	<path d="M171.5,119.6v-5.8c0-0.2,0.1-0.2,0.3-0.2h0.2c0.2,0,0.2,0.1,0.2,0.2v5.8c0,1.2-0.8,2-2,2h-2v-0.7h2
		C171,120.9,171.5,120.4,171.5,119.6z M169.5,123.6v0.7c0,0.2-0.1,0.3-0.3,0.3H169c-0.2,0-0.3-0.1-0.3-0.3v-0.7
		c0-0.2,0.1-0.3,0.3-0.3h0.2C169.4,123.4,169.5,123.4,169.5,123.6z M171.9,123.6v0.7c0,0.2-0.1,0.3-0.3,0.3h-0.2
		c-0.2,0-0.3-0.1-0.3-0.3v-0.7c0-0.2,0.1-0.3,0.3-0.3h0.2C171.8,123.4,171.9,123.4,171.9,123.6z"/>
	<path d="M173.9,125.3h-0.6c-0.2,0-0.2-0.1-0.2-0.2v-0.2c0-0.2,0.1-0.3,0.2-0.3h0.6c1.4,0,2.1-0.7,2.1-2v-8.7c0-0.2,0.1-0.2,0.2-0.2
		h0.2c0.2,0,0.2,0.1,0.2,0.2v7h2.5v0.7h-2.5v1C176.7,124.3,175.7,125.3,173.9,125.3z"/>
	<path d="M180.7,121.6h-2.1v-0.7h2.1c0.8,0,1.3-0.5,1.3-1.3v-10.2c0-0.2,0.1-0.2,0.2-0.2h0.3c0.2,0,0.2,0.1,0.2,0.2v10.2
		C182.7,120.8,181.9,121.6,180.7,121.6z"/>
	<path d="M186.1,121.6h-0.3c-0.2,0-0.2-0.1-0.2-0.2v-11.9c0-0.2,0.1-0.2,0.2-0.2h0.3c0.1,0,0.2,0.1,0.2,0.2v11.9
		C186.4,121.5,186.3,121.6,186.1,121.6z"/>
	<path d="M214.5,119.6v-5.8c0-0.2,0.1-0.2,0.3-0.2h0.2c0.2,0,0.2,0.1,0.2,0.2v5.8c0,1.2-0.8,2-2,2H207c-1,0-1.9-0.3-2.6-1
		s-1-1.6-1-2.6c0-1.6,1-2.8,2.1-3.3c0,0,0.1,0,0.1,0c0.1,0,0.2,0.1,0.2,0.1l0.1,0.2c0,0,0,0.1,0,0.1c0,0.2-0.1,0.2-0.2,0.3
		c-0.9,0.5-1.6,1.4-1.6,2.6c0,0.8,0.3,1.5,0.8,2.1c0.6,0.6,1.3,0.8,2.1,0.8h6.3C214.1,120.9,214.5,120.4,214.5,119.6z M208.5,112.6
		v-0.7c0-0.2,0.1-0.3,0.3-0.3h0.2c0.2,0,0.3,0.1,0.3,0.3v0.7c0,0.2-0.1,0.3-0.3,0.3h-0.2C208.6,112.8,208.5,112.7,208.5,112.6z
		 M210.9,112.6v-0.7c0-0.2,0.1-0.3,0.3-0.3h0.3c0.2,0,0.3,0.1,0.3,0.3v0.7c0,0.2-0.1,0.3-0.3,0.3h-0.3
		C211,112.8,210.9,112.7,210.9,112.6z"/>
	<path d="M222.8,121.6h-5c-0.2,0-0.2-0.1-0.2-0.2v-0.3c0-0.2,0.1-0.2,0.2-0.2h5c1.4,0,2-0.7,2-2.1v-9.4c0-0.2,0.1-0.2,0.3-0.2h0.2
		c0.2,0,0.3,0.1,0.3,0.2v9.4C225.5,120.6,224.5,121.6,222.8,121.6z M220.3,118.5v-7.7c0-0.2,0.1-0.2,0.2-0.2h0.3
		c0.2,0,0.2,0.1,0.2,0.2v7.7c0,0.2-0.1,0.2-0.2,0.2h-0.3C220.3,118.8,220.3,118.7,220.3,118.5z"/>
	<path d="M231.4,114c-0.9,0-1.5,0.2-2,0.5c-0.1,0-0.1,0.1-0.1,0.1h0c-0.1,0-0.1,0-0.2-0.1l-0.1-0.2c0,0,0-0.1,0-0.1v0
		c0-0.1,0.1-0.2,0.2-0.2c0.6-0.4,1.3-0.6,2.3-0.6c0.8,0,1.5,0.3,2.1,0.9s0.9,1.3,0.9,2.1v2.9c0,1.7-0.9,2.5-2.8,2.5H228
		c-0.2,0-0.2-0.1-0.2-0.2v-0.3c0-0.2,0.1-0.2,0.2-0.2h3.6c1.4,0,2.1-0.5,2.1-1.8v-2.9C233.7,115,232.7,114,231.4,114z"/>
	<path d="M237.3,119.6v-10.2c0-0.2,0.1-0.2,0.2-0.2h0.3c0.1,0,0.2,0.1,0.2,0.2v10.2c0,0.8,0.4,1.3,1.3,1.3h0.7v0.7h-0.7
		C238,121.6,237.3,120.8,237.3,119.6z"/>
	<path d="M250.3,121.6h-10.7v-0.7h3.9l-2-4.2c0-0.1,0-0.1,0-0.2v-0.1c0.1-0.8,0.5-1.5,1.2-2.2c0.7-0.7,1.6-1,2.5-1
		c0.9,0,1.8,0.3,2.5,1c0.7,0.6,1.1,1.4,1.2,2.3v0c0,0.1,0,0.1,0,0.2l-2,4.2h3.4V121.6z M243.1,114.8c-0.6,0.5-0.9,1.1-1,1.7l2.1,4.4
		h1.9l2.1-4.4c-0.1-0.7-0.4-1.3-1-1.8c-0.6-0.5-1.3-0.8-2-0.8C244.4,114,243.7,114.2,243.1,114.8z"/>
	<path d="M260.6,120.9h1v0.7h-0.9c-0.9,0-1.8-0.4-2.1-1.2c-0.7,0.8-1.6,1.2-2.6,1.2h-6.2v-0.7h2.7v-4.1c0-1,0.3-1.8,1-2.5
		s1.5-1,2.5-1s1.8,0.3,2.5,1s1,1.5,1,2.5v1.4c0,0.6-0.2,1.2-0.5,1.7C259.2,120.5,259.8,120.9,260.6,120.9z M258,120.1
		c0.5-0.5,0.8-1.2,0.8-2v-1.4c0-0.8-0.3-1.4-0.8-2c-0.5-0.5-1.2-0.8-2-0.8s-1.4,0.3-1.9,0.8c-0.5,0.5-0.8,1.2-0.8,2v4.1h2.8
		C256.8,120.9,257.5,120.6,258,120.1z"/>
	<path d="M263.2,121.6h-2.1v-0.7h2.1c0.8,0,1.3-0.5,1.3-1.3v-10.2c0-0.2,0.1-0.2,0.2-0.2h0.3c0.2,0,0.2,0.1,0.2,0.2v10.2
		C265.2,120.8,264.5,121.6,263.2,121.6z"/>
	<path d="M268.7,121.6h-0.3c-0.2,0-0.2-0.1-0.2-0.2v-11.9c0-0.2,0.1-0.2,0.2-0.2h0.3c0.1,0,0.2,0.1,0.2,0.2v11.9
		C268.9,121.5,268.8,121.6,268.7,121.6z"/>
	<path d="M277.7,122.1v-0.5H275c-1,0-1.8-0.3-2.5-1s-1-1.5-1-2.5v-1.4c0-1,0.4-1.8,1-2.5s1.5-1,2.5-1c1,0,1.8,0.3,2.5,1
		c0.7,0.7,1,1.5,1,2.5v5.4c0,0.9-0.3,1.7-1,2.3c-0.6,0.6-1.4,1-2.3,1h-1.6c-0.2,0-0.2-0.1-0.2-0.2v-0.2c0-0.2,0.1-0.3,0.2-0.3h1.6
		C276.6,124.6,277.7,123.4,277.7,122.1z M272.2,118.1c0,0.8,0.3,1.4,0.8,2c0.5,0.5,1.2,0.8,2,0.8h2.8v-4.1c0-0.8-0.3-1.4-0.8-1.9
		c-0.5-0.5-1.2-0.8-2-0.8c-0.8,0-1.4,0.3-2,0.8c-0.5,0.5-0.8,1.2-0.8,1.9V118.1z"/>
	<path d="M12,141.2v-5.8c0-0.2,0.1-0.2,0.3-0.2h0.2c0.2,0,0.2,0.1,0.2,0.2v5.8c0,1.2-0.8,2-2,2H4.5c-1,0-1.9-0.3-2.6-1s-1-1.6-1-2.6
		c0-1.6,1-2.8,2.1-3.3c0,0,0.1,0,0.1,0c0.1,0,0.2,0.1,0.2,0.1l0.1,0.2c0,0,0,0.1,0,0.1c0,0.2-0.1,0.2-0.2,0.3
		c-0.9,0.5-1.6,1.4-1.6,2.6c0,0.8,0.3,1.5,0.8,2.1c0.6,0.6,1.3,0.8,2.1,0.8h6.3C11.6,142.5,12,142,12,141.2z M6,134.2v-0.7
		c0-0.2,0.1-0.3,0.3-0.3h0.2c0.2,0,0.3,0.1,0.3,0.3v0.7c0,0.2-0.1,0.3-0.3,0.3H6.4C6.2,134.4,6,134.3,6,134.2z M8.5,134.2v-0.7
		c0-0.2,0.1-0.3,0.3-0.3H9c0.2,0,0.3,0.1,0.3,0.3v0.7c0,0.2-0.1,0.3-0.3,0.3H8.8C8.6,134.4,8.5,134.3,8.5,134.2z"/>
	<path d="M15.6,141.2V131c0-0.2,0.1-0.2,0.2-0.2h0.3c0.1,0,0.2,0.1,0.2,0.2v10.2c0,0.8,0.4,1.3,1.3,1.3h0.7v0.7h-0.7
		C16.4,143.2,15.6,142.4,15.6,141.2z"/>
	<path d="M23.4,142.5h0.5v0.7h-0.4c-0.9,0-1.6-0.3-2-0.8c-0.3,0.5-0.9,0.8-1.7,0.8h-2v-0.7h2c0.8,0,1.2-0.4,1.2-1.3v-5.8
		c0-0.2,0.1-0.2,0.3-0.2h0.2c0.2,0,0.2,0.1,0.2,0.2v6C21.9,142.3,22.5,142.5,23.4,142.5z M19.9,145.3v0.7c0,0.2-0.1,0.3-0.3,0.3
		h-0.3c-0.2,0-0.3-0.1-0.3-0.3v-0.7c0-0.2,0.1-0.3,0.3-0.3h0.3C19.8,145,19.9,145.1,19.9,145.3z M22.2,145.3v0.7
		c0,0.2-0.1,0.3-0.3,0.3h-0.2c-0.2,0-0.3-0.1-0.3-0.3v-0.7c0-0.2,0.1-0.3,0.3-0.3H22C22.2,145,22.2,145.1,22.2,145.3z"/>
	<path d="M23.5,142.5h2.7v-4.1c0-1,0.3-1.8,1-2.5s1.5-1,2.5-1s1.8,0.3,2.5,1c0.7,0.7,1,1.5,1,2.5v1.4c0,1-0.3,1.8-1,2.5
		c-0.7,0.7-1.5,1-2.5,1h-6.2V142.5z M29.7,142.5c0.8,0,1.4-0.3,2-0.8c0.5-0.5,0.8-1.2,0.8-2v-1.4c0-0.8-0.3-1.4-0.8-2
		c-0.5-0.5-1.2-0.8-2-0.8s-1.4,0.3-1.9,0.8c-0.5,0.5-0.8,1.2-0.8,2v4.1H29.7z"/>
	<path d="M37.7,146.7v-0.2c0-0.2,0.1-0.3,0.2-0.3h1.6c0.7,0,1.3-0.2,1.8-0.7c0.5-0.5,0.7-1.1,0.7-1.8v-0.5h-2.8c-1,0-1.8-0.3-2.5-1
		s-1-1.5-1-2.5v-1.4c0-1,0.4-1.8,1-2.5s1.5-1,2.5-1c1,0,1.8,0.3,2.5,1c0.7,0.7,1,1.5,1,2.5v4.1h2.5v0.7h-2.5v0.5
		c0,0.9-0.3,1.7-1,2.3c-0.6,0.6-1.4,1-2.3,1h-1.6C37.8,146.9,37.7,146.9,37.7,146.7z M36.5,139.7c0,0.8,0.3,1.4,0.8,2
		c0.5,0.5,1.2,0.8,2,0.8H42v-4.1c0-0.8-0.3-1.4-0.8-1.9s-1.2-0.8-2-0.8c-0.8,0-1.4,0.3-2,0.8c-0.5,0.5-0.8,1.2-0.8,1.9V139.7z"/>
	<path d="M56.9,141.2v-5.8c0-0.2,0.1-0.3,0.2-0.3h0.3c0.2,0,0.2,0.1,0.2,0.3v5.8c0,1.2-0.8,2-2,2h-0.8c-0.9,0-1.6-0.3-2-0.8
		c-0.3,0.5-0.9,0.8-1.7,0.8h-0.8c-0.8,0-1.4-0.2-1.8-0.6c0,0-0.1-0.1-0.2-0.2c-0.3,0.5-0.9,0.8-1.7,0.8h-2v-0.7h2
		c0.8,0,1.2-0.4,1.2-1.3v-5.8c0-0.2,0.1-0.3,0.2-0.3h0.3c0.2,0,0.2,0.1,0.2,0.3v6c0,0.3,0.1,0.5,0.3,0.6c0.2,0.3,0.6,0.4,1.3,0.4h1
		c0.8,0,1.2-0.5,1.2-1.3v-5.3c0-0.2,0.1-0.2,0.2-0.2h0.2c0.2,0,0.3,0.1,0.3,0.2v5.5c0,0.3,0.1,0.5,0.2,0.6c0.2,0.3,0.6,0.4,1.3,0.4
		h0.9C56.4,142.5,56.9,142,56.9,141.2z"/>
	<path d="M59.3,146.9h-0.6c-0.2,0-0.2-0.1-0.2-0.2v-0.2c0-0.2,0.1-0.3,0.2-0.3h0.6c1.4,0,2.1-0.7,2.1-2v-8.7c0-0.2,0.1-0.2,0.2-0.2
		h0.2c0.2,0,0.2,0.1,0.2,0.2v7h2.5v0.7h-2.5v1C62.1,145.9,61.1,146.9,59.3,146.9z"/>
	<path d="M66.1,143.2H64v-0.7h2.1c0.8,0,1.3-0.5,1.3-1.3V131c0-0.2,0.1-0.2,0.2-0.2h0.3c0.2,0,0.2,0.1,0.2,0.2v10.2
		C68.1,142.4,67.3,143.2,66.1,143.2z"/>
	<path d="M71.5,143.2h-0.3c-0.2,0-0.2-0.1-0.2-0.2V131c0-0.2,0.1-0.2,0.2-0.2h0.3c0.1,0,0.2,0.1,0.2,0.2V143
		C71.8,143.1,71.7,143.2,71.5,143.2z"/>
	<path d="M85.7,143.2c-0.1,0.9-0.5,1.6-1.2,2.3c-0.7,0.6-1.5,0.9-2.4,0.9c-1,0-1.9-0.3-2.6-1s-1-1.6-1-2.6v-3.9
		c0-0.2,0.1-0.2,0.2-0.2H79c0.2,0,0.3,0.1,0.3,0.2v3.9c0,0.8,0.3,1.5,0.8,2s1.2,0.8,2,0.8c0.8,0,1.5-0.3,2-0.8s0.8-1.2,0.8-2v-7.3
		c0-0.2,0.1-0.2,0.2-0.2h0.2c0.2,0,0.3,0.1,0.3,0.2v7h2.4v0.7H85.7z M81.5,134.2v-0.7c0-0.2,0.1-0.3,0.3-0.3H82
		c0.2,0,0.3,0.1,0.3,0.3v0.7c0,0.2-0.1,0.3-0.3,0.3h-0.2C81.6,134.5,81.5,134.3,81.5,134.2z"/>
	<path d="M92.7,142.5H97c0.2,0,0.2,0.1,0.2,0.2v0.3c0,0.2-0.1,0.2-0.2,0.2h-9.4v-0.7H91c-0.6-0.6-0.8-1.3-0.8-2.2v-2
		c0-1,0.3-1.8,1-2.5s1.5-1,2.5-1c1.3,0,2.3,0.8,3.2,2.2c0,0.1,0,0.1,0,0.1c0,0.1,0,0.1-0.1,0.2l-0.2,0.1c-0.1,0-0.1,0-0.1,0
		c-0.1,0-0.2-0.1-0.3-0.2c-0.7-1.1-1.5-1.7-2.5-1.7c-0.8,0-1.4,0.3-2,0.8c-0.5,0.5-0.8,1.2-0.8,2v2
		C90.9,141.4,91.6,142.5,92.7,142.5z"/>
	<path d="M123.9,143.2h-16.3c-1,0-1.8-0.3-2.5-1c-0.7-0.7-1.1-1.5-1.1-2.6c0-0.7,0.2-1.3,0.5-1.9c0.4-0.6,0.9-1.1,1.6-1.4
		c0,0,0.1,0,0.1,0c0.1,0,0.2,0.1,0.2,0.1l0.1,0.2c0,0,0,0.1,0,0.1c0,0.2-0.1,0.2-0.2,0.3c-0.9,0.5-1.6,1.4-1.6,2.6
		c0,0.8,0.3,1.5,0.8,2.1c0.5,0.5,1.2,0.8,2,0.8h7.8c-0.9-0.7-1.4-1.6-1.4-2.8v-1.4c0-1,0.4-1.8,1-2.5s1.5-1,2.5-1c1,0,1.8,0.3,2.5,1
		s1,1.5,1,2.5v4.1h2.9V143.2z M115.5,141.7c0.5,0.5,1.2,0.8,2,0.8h2.8v-4.1c0-0.8-0.3-1.4-0.8-2c-0.5-0.5-1.2-0.8-2-0.8
		c-0.8,0-1.4,0.3-2,0.8c-0.5,0.5-0.8,1.2-0.8,2v1.4C114.7,140.5,115,141.1,115.5,141.7z M116.9,132.5v-0.7c0-0.2,0.1-0.3,0.3-0.3
		h0.2c0.2,0,0.3,0.1,0.3,0.3v0.7c0,0.2-0.1,0.3-0.3,0.3h-0.2C117,132.8,116.9,132.7,116.9,132.5z"/>
	<path d="M128.5,142.5h0.5v0.7h-0.4c-0.9,0-1.5-0.3-1.9-0.8c-0.1,0.1-0.1,0.2-0.2,0.3c-0.4,0.4-0.9,0.5-1.5,0.5h-2.1v-0.7h2.1
		c0.8,0,1.3-0.4,1.3-1.3V131c0-0.2,0.1-0.2,0.2-0.2h0.3c0.2,0,0.2,0.1,0.2,0.2v10.4C127,142.2,127.6,142.5,128.5,142.5z"/>
	<path d="M132.4,141.2v-5.8c0-0.2,0.1-0.2,0.2-0.2h0.2c0.2,0,0.3,0.1,0.3,0.2v6c0,0.3,0.1,0.5,0.2,0.6c0.2,0.3,0.7,0.4,1.3,0.4h0.6
		v0.7h-0.4c-0.8,0-1.4-0.2-1.8-0.6c-0.1-0.1-0.1-0.1-0.2-0.2c-0.1,0.1-0.2,0.2-0.2,0.3c-0.4,0.4-0.8,0.5-1.5,0.5h-2.5v-0.7h2.5
		C131.9,142.5,132.4,142,132.4,141.2z M131.1,132.5v-0.7c0-0.2,0.1-0.3,0.3-0.3h0.2c0.2,0,0.3,0.1,0.3,0.3v0.7
		c0,0.2-0.1,0.3-0.3,0.3h-0.2C131.2,132.8,131.1,132.7,131.1,132.5z M133.8,131.5h0.2c0.2,0,0.3,0.1,0.3,0.3v0.7
		c0,0.2-0.1,0.3-0.3,0.3h-0.2c-0.2,0-0.3-0.1-0.3-0.3v-0.7C133.5,131.6,133.6,131.5,133.8,131.5z"/>
	<path d="M143.7,142.1c-0.5,0.7-1.2,1-2.3,1h-6.8v-0.7h6.8c1.4,0,2-0.7,2-2v-1.7c0-0.9-0.3-1.6-0.9-2.2c-0.6-0.6-1.4-0.9-2.2-0.9
		c-1.2,0-2.2,0.5-2.9,1.5c-0.1,0.1-0.1,0.2-0.3,0.2c-0.1,0-0.1,0-0.1,0l-0.2-0.1c-0.1-0.1-0.1-0.1-0.1-0.2s0.1-0.2,0.1-0.2
		c0.7-1,1.9-1.8,3.5-1.8c1.1,0,2,0.4,2.7,1.1s1.1,1.7,1.1,2.7v2.8c0,0.3,0.1,0.5,0.3,0.6c0.3,0.3,0.7,0.4,1.3,0.4h0.5v0.7h-0.4
		C144.8,143.2,144.1,142.9,143.7,142.1z M139.7,132.5v-0.7c0-0.2,0.1-0.3,0.3-0.3h0.2c0.2,0,0.3,0.1,0.3,0.3v0.7
		c0,0.2-0.1,0.3-0.3,0.3H140C139.8,132.8,139.7,132.7,139.7,132.5z"/>
	<path d="M149.6,141.2v-5.8c0-0.2,0.1-0.2,0.2-0.2h0.3c0.2,0,0.2,0.1,0.2,0.2v5.8c0,1.2-0.8,2-2,2h-2.5v-0.7h2.5
		C149.1,142.5,149.6,142,149.6,141.2z M148.3,132.5v-0.7c0-0.2,0.1-0.3,0.3-0.3h0.2c0.2,0,0.3,0.1,0.3,0.3v0.7
		c0,0.2-0.1,0.3-0.3,0.3h-0.2C148.4,132.8,148.3,132.7,148.3,132.5z M150.7,132.5v-0.7c0-0.2,0.1-0.3,0.3-0.3h0.2
		c0.2,0,0.3,0.1,0.3,0.3v0.7c0,0.2-0.1,0.3-0.3,0.3H151C150.9,132.8,150.7,132.6,150.7,132.5z"/>
	<path d="M170.5,142.5h0.5v0.7h-0.4c-0.9,0-1.6-0.3-1.9-0.8l-0.2,0.3c-0.4,0.4-0.8,0.5-1.5,0.5h-6c-1,0-1.8-0.4-2.5-1.1
		c-0.7-0.7-1.1-1.5-1.1-2.5c0-1.6,1-2.8,2.1-3.3c0,0,0.1,0,0.1,0c0.1,0,0.2,0,0.2,0.1l0.1,0.2c0,0,0,0.1,0,0.1
		c0,0.2-0.1,0.2-0.2,0.3c-0.9,0.5-1.6,1.4-1.6,2.6c0,0.8,0.3,1.5,0.8,2s1.2,0.8,2.1,0.8h6c0.8,0,1.3-0.4,1.3-1.3V131
		c0-0.2,0.1-0.2,0.3-0.2h0.2c0.2,0,0.3,0.1,0.3,0.2v10.4C169,142.3,169.7,142.5,170.5,142.5z M163.3,135.2v1h1.6
		c0.2,0,0.2,0.1,0.2,0.3v0c0,0.2-0.1,0.3-0.2,0.3h-2.4c-0.2,0-0.3-0.1-0.3-0.3v0c0-0.2,0.1-0.3,0.3-0.3h0.4v-1
		c0-0.6,0.5-1.2,1.2-1.2c0.5,0,0.8,0.2,1,0.7c0,0,0,0.1,0,0.1c0,0.1-0.2,0.2-0.3,0.2c-0.1,0-0.1-0.1-0.2-0.2
		c-0.1-0.3-0.3-0.4-0.6-0.4C163.6,134.5,163.3,134.8,163.3,135.2z"/>
	<path d="M172.7,143.2h-2.1v-0.7h2.1c0.8,0,1.3-0.5,1.3-1.3V131c0-0.2,0.1-0.2,0.2-0.2h0.3c0.2,0,0.2,0.1,0.2,0.2v10.2
		C174.7,142.4,173.9,143.2,172.7,143.2z"/>
	<path d="M185.1,142.5h0.6v0.7h-0.4c-0.9,0-1.6-0.4-2-1c-0.4,0.7-1.2,1-2.4,1h-3.6c-0.2,0-0.2-0.1-0.2-0.2v-0.3
		c0-0.2,0.1-0.2,0.2-0.2h3.6c1.4,0,2-0.5,2-1.8v-2.9c0-1.2-1-2.2-2.2-2.2c-0.8,0-1.5,0.2-1.9,0.5c-0.1,0-0.1,0.1-0.2,0.1
		c-0.1,0-0.2,0-0.2-0.1l-0.1-0.2c0-0.1-0.1-0.1-0.1-0.2v0c0-0.1,0.1-0.2,0.2-0.2c0.6-0.4,1.3-0.6,2.3-0.6c0.8,0,1.5,0.3,2.1,0.9
		s0.9,1.3,0.9,2.1v3.4C183.6,142,184.3,142.5,185.1,142.5z M180.1,132.5v-0.7c0-0.2,0.1-0.3,0.3-0.3h0.3c0.2,0,0.3,0.1,0.3,0.3v0.7
		c0,0.2-0.1,0.3-0.3,0.3h-0.3C180.2,132.8,180.1,132.7,180.1,132.5z"/>
	<path d="M188.5,141.2v-5.8c0-0.2,0.1-0.2,0.3-0.2h0.2c0.2,0,0.2,0.1,0.2,0.2v5.8c0,1.2-0.8,2-2,2h-2v-0.7h2
		C188.1,142.5,188.5,142,188.5,141.2z M188.1,145.1v0.7c0,0.2-0.1,0.3-0.3,0.3h-0.2c-0.2,0-0.3-0.1-0.3-0.3v-0.7
		c0-0.2,0.1-0.3,0.3-0.3h0.2C188,144.8,188.1,144.9,188.1,145.1z"/>
	<path d="M210.9,137.5v4.9h2.1v0.7h-2.4c-0.2,0-0.4-0.2-0.4-0.4v-5.3c0-1.1-0.9-2-2-2c-1.1,0-2,0.9-2,2v7.1c0,0.2-0.2,0.4-0.4,0.4
		h-6.3c-1,0-1.9-0.4-2.6-1.1s-1-1.5-1-2.6c0-1.6,1-2.8,2.1-3.3c0,0,0.1,0,0.1,0c0.1,0,0.2,0.1,0.2,0.1l0.1,0.2c0,0,0,0.1,0,0.1
		s0,0.1,0,0.1c0,0.1-0.1,0.1-0.2,0.2c-0.9,0.4-1.6,1.4-1.6,2.6c0,0.8,0.3,1.5,0.9,2.1c0.6,0.6,1.2,0.8,2,0.8h5.9v-6.7
		c0-1.5,1.2-2.7,2.7-2.7S210.9,136.1,210.9,137.5z M201.1,147v0.7c0,0.2-0.1,0.3-0.3,0.3h-0.2c-0.2,0-0.3-0.1-0.3-0.3V147
		c0-0.2,0.1-0.3,0.3-0.3h0.2C201,146.7,201.1,146.8,201.1,147z M203.5,147v0.7c0,0.2-0.1,0.3-0.3,0.3h-0.2c-0.2,0-0.3-0.1-0.3-0.3
		V147c0-0.2,0.1-0.3,0.3-0.3h0.2C203.4,146.7,203.5,146.8,203.5,147z"/>
	<path d="M223.6,135.2c0.7,0.7,1.1,1.6,1.1,2.6v1.8c0,1-0.4,1.9-1.1,2.6c-0.7,0.7-1.6,1.1-2.6,1.1h-8.5v-0.7h3.5
		c-0.5-0.5-0.8-1.1-0.8-1.8v-1.6c0-0.7,0.2-1.3,0.7-1.8c0.4-0.5,1-0.8,1.6-0.9c0.5-1.2,1.7-2.3,3.4-2.3
		C222,134.1,222.9,134.4,223.6,135.2z M217.9,142.5h2v-3.4c0-0.6-0.2-1.1-0.6-1.4c-0.4-0.4-0.8-0.6-1.4-0.6c-0.5,0-1,0.2-1.4,0.6
		c-0.4,0.3-0.6,0.7-0.6,1.4v1.6C216,141.6,216.9,142.5,217.9,142.5z M220.6,139.1v3.4h0.4c0.8,0,1.5-0.3,2.1-0.9s0.9-1.3,0.9-2.1
		v-1.8c0-0.8-0.3-1.5-0.9-2.1s-1.3-0.9-2.1-0.9c-1.2,0-2.2,0.8-2.6,1.6C219.6,136.6,220.6,137.7,220.6,139.1z"/>
	<path d="M233.5,143.7v-0.5h-2.8c-1,0-1.8-0.3-2.5-1s-1-1.5-1-2.5v-1.4c0-1,0.4-1.8,1-2.5s1.5-1,2.5-1c1,0,1.8,0.3,2.5,1
		c0.7,0.7,1,1.5,1,2.5v5.4c0,0.9-0.3,1.7-1,2.3c-0.6,0.6-1.4,1-2.3,1h-1.6c-0.2,0-0.2-0.1-0.2-0.2v-0.2c0-0.2,0.1-0.3,0.2-0.3h1.6
		C232.3,146.2,233.5,145,233.5,143.7z M227.9,139.7c0,0.8,0.3,1.4,0.8,2c0.5,0.5,1.2,0.8,2,0.8h2.8v-4.1c0-0.8-0.3-1.4-0.8-1.9
		s-1.2-0.8-2-0.8c-0.8,0-1.4,0.3-2,0.8c-0.5,0.5-0.8,1.2-0.8,1.9V139.7z"/>
	<path d="M241.8,142.2v0.7c0,0.2-0.1,0.3-0.3,0.3h-0.3c-0.2,0-0.3-0.1-0.3-0.3v-0.7c0-0.2,0.1-0.3,0.3-0.3h0.3
		C241.7,141.9,241.8,142,241.8,142.2z"/>
	<path d="M243.5,146.9h-0.6c-0.2,0-0.2-0.1-0.2-0.2v-0.2c0-0.2,0.1-0.3,0.2-0.3h0.6c1.4,0,2-0.7,2-2v-8.8c0-0.2,0.1-0.2,0.3-0.2h0.2
		c0.2,0,0.2,0.1,0.2,0.2v8.8C246.3,145.9,245.3,146.9,243.5,146.9z"/>
	<path d="M250.8,146.7v-0.2c0-0.2,0.1-0.3,0.2-0.3h1.6c0.7,0,1.3-0.2,1.8-0.7c0.5-0.5,0.7-1.1,0.7-1.8v-0.5h-2.8c-1,0-1.8-0.3-2.5-1
		s-1-1.5-1-2.5v-1.4c0-1,0.4-1.8,1-2.5s1.5-1,2.5-1c1,0,1.8,0.3,2.5,1c0.7,0.7,1,1.5,1,2.5v4.1h2.5v0.7h-2.5v0.5
		c0,0.9-0.3,1.7-1,2.3c-0.6,0.6-1.4,1-2.3,1H251C250.9,146.9,250.8,146.9,250.8,146.7z M249.6,139.7c0,0.8,0.3,1.4,0.8,2
		c0.5,0.5,1.2,0.8,2,0.8h2.8v-4.1c0-0.8-0.3-1.4-0.8-1.9s-1.2-0.8-2-0.8c-0.8,0-1.4,0.3-2,0.8c-0.5,0.5-0.8,1.2-0.8,1.9V139.7z"/>
	<path d="M270.6,142.5h0.6v0.7h-0.4c-1,0-1.7-0.4-2-1.1c-0.5,0.8-1.2,1.1-2.4,1.1h-8.5v-0.7h2.4v-6.8c0-0.2,0.1-0.3,0.3-0.3h0.2
		c0.2,0,0.2,0.1,0.2,0.3v1.8c1.8-1.8,3.3-2.6,4.7-2.6c2.1,0,3.4,1.6,3.4,3.9v2.5C269.1,142,269.8,142.5,270.6,142.5z M267.3,136
		c-0.5-0.3-1-0.5-1.5-0.5c-1.3,0-2.9,1-4.7,2.9l0,0.1v4h5.3c1.4,0,2-0.7,2-2v-1.7C268.4,137.4,268,136.6,267.3,136z"/>
	<path d="M272.8,143.2h-2.1v-0.7h2.1c0.8,0,1.3-0.5,1.3-1.3V131c0-0.2,0.1-0.2,0.2-0.2h0.3c0.2,0,0.2,0.1,0.2,0.2v10.2
		C274.8,142.4,274,143.2,272.8,143.2z"/>
	<path d="M278.2,143.2H278c-0.2,0-0.2-0.1-0.2-0.2V131c0-0.2,0.1-0.2,0.2-0.2h0.3c0.1,0,0.2,0.1,0.2,0.2V143
		C278.5,143.1,278.4,143.2,278.2,143.2z"/>
	<path d="M4.8,166.6c0.7,0,1.3-0.3,1.8-0.8c0.5-0.5,0.8-1.1,0.8-1.8v-12c0-0.2,0.1-0.3,0.2-0.3h0.8c0.2,0,0.3,0.1,0.3,0.3v11.4h2.7
		v1.3H8.6c-0.2,0.9-0.6,1.7-1.3,2.3c-0.7,0.6-1.5,0.9-2.5,0.9c-1.1,0-2-0.4-2.8-1.2s-1.1-1.7-1.1-2.8v-4.2c0-0.2,0.1-0.2,0.2-0.2H2
		c0.2,0,0.2,0.1,0.2,0.2v4.2C2.2,165.5,3.4,166.6,4.8,166.6z"/>
	<path d="M25.7,163.5h0.8v1.3h-0.6c-0.8,0-1.4-0.3-1.9-0.7c0,0-0.1,0-0.1-0.1c0,0-0.1,0.1-0.1,0.2c-0.4,0.4-1,0.6-1.7,0.6h-0.9
		c-0.9,0-1.5-0.2-2-0.7v0l0,0c-0.1,0.1-0.1,0.1-0.1,0.1c-0.4,0.4-1,0.6-1.7,0.6h-0.9c-0.9,0-1.5-0.2-2-0.7v0c0,0-0.1,0.1-0.1,0.1
		c-0.4,0.4-1,0.6-1.7,0.6h-2.3v-1.3H13c0.6,0,0.9-0.3,0.9-1v-6c0-0.2,0.1-0.3,0.2-0.3H15c0.2,0,0.2,0.1,0.2,0.3v6.3
		c0,0.2,0,0.3,0.1,0.5c0.2,0.2,0.6,0.3,1.1,0.3h1.2c0.6,0,1-0.3,1-1v-5.6c0-0.2,0.1-0.2,0.2-0.2h0.8c0.2,0,0.2,0.1,0.2,0.2v5.8
		c0,0.2,0,0.3,0.1,0.5c0.2,0.2,0.6,0.3,1.1,0.3h1.1c0.7,0,1-0.3,1-1v-6c0-0.2,0.1-0.3,0.2-0.3h0.8c0.2,0,0.2,0.1,0.2,0.3v6
		C24.5,163.2,25,163.5,25.7,163.5z"/>
	<path d="M33,152.5h1.5c0.2,0,0.2,0.1,0.2,0.2v0.8c0,0.2-0.1,0.3-0.2,0.3H33c-1.9,0-2.9,1-3.1,2.9h3.3c1.2,0,2.1,0.4,2.9,1.2
		s1.1,1.7,1.1,2.9v1.9c0,0.2,0.1,0.4,0.2,0.5c0.2,0.2,0.5,0.3,1.1,0.3h0.9v1.3h-0.7c-0.9,0-1.5-0.2-2-0.7l0,0
		c-0.4,0.5-1,0.7-1.7,0.7h-8.8v-1.3h8.8c0.7,0,1-0.3,1-1v-1.7c0-1.6-1.1-2.8-2.7-2.8h-4c-0.4,0-0.7-0.3-0.7-0.7
		C28.5,154.4,30.1,152.5,33,152.5z"/>
	<path d="M42.4,162.5v-6.1c0-0.2,0.1-0.3,0.2-0.3h0.8c0.2,0,0.2,0.1,0.2,0.3v6.3c0,0.2,0.1,0.4,0.2,0.5c0.2,0.2,0.5,0.3,1.1,0.3h0.8
		v1.3h-0.6c-0.9,0-1.5-0.3-2-0.7c-0.4,0.4-1,0.7-1.7,0.7h-2.6v-1.3h2.6C42.1,163.5,42.4,163.2,42.4,162.5z M43.8,166.6v1.1
		c0,0.2-0.1,0.2-0.3,0.2h-0.9c-0.2,0-0.2-0.1-0.2-0.2v-1.1c0-0.2,0.1-0.3,0.2-0.3h0.9C43.7,166.4,43.8,166.5,43.8,166.6z"/>
	<path d="M48.4,162.5V152c0-0.2,0.1-0.3,0.2-0.3h0.8c0.2,0,0.2,0.1,0.2,0.3v10.5c0,1.4-0.9,2.3-2.3,2.3h-2.1v-1.3h2.1h0
		C48.1,163.5,48.4,163.2,48.4,162.5z"/>
	<path d="M53.7,164.8h-0.9c-0.2,0-0.2-0.1-0.2-0.2V152c0-0.2,0.1-0.2,0.2-0.2h0.9c0.1,0,0.2,0.1,0.2,0.2v12.5
		C53.9,164.7,53.9,164.8,53.7,164.8z"/>
	<path d="M71.4,165.6H77v-6.8c0-0.8,0.3-1.5,0.9-2.1c0.6-0.6,1.3-0.9,2.1-0.9s1.5,0.3,2.1,0.9c0.6,0.6,0.9,1.3,0.9,2.1v4.6h2.3v1.3
		h-2.9c-0.4,0-0.7-0.3-0.7-0.7v-5.3c0-0.9-0.8-1.7-1.7-1.7s-1.7,0.8-1.7,1.7v7.4c0,0.4-0.3,0.7-0.7,0.7h-6.3c-1,0-1.9-0.4-2.7-1.1
		c-0.8-0.8-1.1-1.7-1.1-2.8c0-1.7,1-3,2.2-3.5l0.4-0.2c0,0,0.1,0,0.1,0c0.1,0,0.2,0.1,0.2,0.1l0.4,0.7c0,0.1,0,0.1,0,0.1
		c0,0.1,0,0.1-0.1,0.2l-0.4,0.2c-0.8,0.4-1.5,1.3-1.5,2.4C68.8,164.4,70,165.6,71.4,165.6z"/>
	<path d="M87.8,162.5V152c0-0.2,0.1-0.3,0.2-0.3h0.8c0.2,0,0.2,0.1,0.2,0.3v10.7c0,0.2,0.1,0.4,0.2,0.5c0.2,0.2,0.5,0.3,1.1,0.3h0.9
		v1.3h-0.7c-0.9,0-1.5-0.3-2-0.7c0,0-0.1,0.1-0.1,0.1c-0.4,0.4-1,0.6-1.7,0.6h-2.2v-1.3h2.2C87.5,163.5,87.8,163.2,87.8,162.5z"/>
	<path d="M96.5,163.5h4.5c0.2,0,0.2,0.1,0.2,0.2v0.8c0,0.2-0.1,0.2-0.2,0.2H90.7v-1.3h3.5c-0.4-0.6-0.5-1.2-0.5-1.9v-2
		c0-1,0.4-2,1.1-2.7c0.7-0.7,1.6-1.1,2.7-1.1c0.8,0,1.5,0.2,2.2,0.7c0.6,0.5,1.1,1,1.2,1.7l0.1,0.4c0,0,0,0.1,0,0.1
		c0,0.1-0.1,0.2-0.2,0.2l-0.8,0.2h-0.1c-0.1,0-0.2-0.1-0.2-0.2l-0.1-0.4c-0.2-0.8-1.2-1.4-2.1-1.4c-1.4,0-2.5,1.1-2.5,2.5v2
		C95,162.6,95.6,163.5,96.5,163.5z"/>
	<path d="M123.3,163.5h0.8v1.3h-0.6c-0.8,0-1.4-0.3-1.9-0.7c-0.1-0.1-0.2-0.2-0.2-0.2c-0.5,0.6-1.3,0.9-2.4,0.9h-3.9
		c-0.2,0-0.2-0.1-0.2-0.2v-0.8c0-0.2,0.1-0.2,0.2-0.2h3.9c1.2,0,1.7-0.3,1.7-1.5v-2.9c0-1-0.9-1.9-1.9-1.9c-0.8,0-1.3,0.1-1.7,0.4
		l-0.3,0.2c-0.1,0-0.1,0-0.1,0h0c-0.1,0-0.1,0-0.1-0.1l-0.5-0.7c0,0-0.1-0.1-0.1-0.1v0c0-0.1,0.1-0.1,0.1-0.2l0.3-0.2
		c0.6-0.4,1.4-0.6,2.5-0.6c0.9,0,1.7,0.3,2.3,1c0.6,0.6,1,1.4,1,2.3v3.4C122.1,163.2,122.6,163.5,123.3,163.5z"/>
	<path d="M135.1,163.5h1.4v1.3h-1.1c-0.9,0-1.7-0.4-2.2-1c-0.7,0.7-1.6,1-2.6,1h-6.9v-1.3h3.1v-3.8c0-1,0.4-2,1.1-2.7
		c0.7-0.7,1.6-1.1,2.7-1.1s1.9,0.4,2.7,1.1c0.7,0.7,1.1,1.7,1.1,2.7v1.4c0,0.6-0.1,1.2-0.4,1.8C134.1,163.2,134.5,163.5,135.1,163.5
		z M128.1,159.6v3.8h2.5c1.4,0,2.5-1.1,2.5-2.5v-1.4c0-1.4-1.1-2.5-2.5-2.5C129.3,157.2,128.1,158.3,128.1,159.6z"/>
	<path d="M140.1,162.5v-6c0-0.2,0.1-0.3,0.2-0.3h0.8c0.2,0,0.2,0.1,0.2,0.3v6.3c0,0.2,0.1,0.3,0.2,0.5c0.2,0.2,0.5,0.3,1.1,0.3h0.8
		v1.3h-0.6c-0.9,0-1.6-0.2-2-0.7c0,0,0,0,0,0l-0.1,0.1c-0.4,0.4-1,0.6-1.7,0.6H136v-1.3h3.1C139.8,163.5,140.1,163.1,140.1,162.5z
		 M138.9,153.8v-1.1c0-0.2,0.1-0.3,0.3-0.3h0.9c0.2,0,0.2,0.1,0.2,0.3v1.1c0,0.2-0.1,0.2-0.2,0.2h-0.9
		C139,154.1,138.9,154,138.9,153.8z M141.3,153.8v-1.1c0-0.2,0.1-0.3,0.2-0.3h0.9c0.2,0,0.3,0.1,0.3,0.3v1.1c0,0.2-0.1,0.2-0.3,0.2
		h-0.9C141.3,154.1,141.3,154,141.3,153.8z"/>
	<path d="M155.4,164.8H143v-1.3h4.2l-1.8-3.8c0-0.1-0.1-0.2-0.1-0.3v-0.1c0.1-0.9,0.6-1.7,1.3-2.4c0.8-0.8,1.7-1.1,2.7-1.1
		s1.9,0.4,2.7,1.1s1.2,1.5,1.3,2.5v0.1c0,0.1,0,0.2-0.1,0.3l-1.8,3.8h3.7V164.8z M147.7,157.8c-0.5,0.4-0.8,0.9-0.9,1.5l1.9,4.1h1.5
		l1.9-4.2c-0.1-0.6-0.4-1.1-0.9-1.5c-0.5-0.4-1.1-0.6-1.8-0.6C148.8,157.2,148.2,157.4,147.7,157.8z"/>
	<path d="M158.9,162.5v-6.1c0-0.2,0.1-0.3,0.2-0.3h0.8c0.1,0,0.2,0.1,0.2,0.3v6.1c0,1.4-0.9,2.3-2.3,2.3h-3.1v-1.3h3.1h0
		C158.6,163.5,158.9,163.2,158.9,162.5z M157.7,153.8v-1.1c0-0.2,0.1-0.3,0.3-0.3h0.9c0.2,0,0.3,0.1,0.3,0.3v1.1
		c0,0.2-0.1,0.2-0.3,0.2h-0.9C157.8,154.1,157.7,154,157.7,153.8z M161.4,152.8v1.1c0,0.2-0.1,0.2-0.2,0.2h-0.9
		c-0.2,0-0.3-0.1-0.3-0.2v-1.1c0-0.2,0.1-0.3,0.3-0.3h0.9C161.4,152.5,161.4,152.6,161.4,152.8z"/>
	<path d="M178,165.6h5.6v-6.8c0-0.8,0.3-1.5,0.9-2.1c0.6-0.6,1.3-0.9,2.1-0.9s1.5,0.3,2.1,0.9c0.6,0.6,0.9,1.3,0.9,2.1v4.6h2.3v1.3
		h-2.9c-0.4,0-0.7-0.3-0.7-0.7v-5.3c0-0.9-0.8-1.7-1.7-1.7s-1.7,0.8-1.7,1.7v7.4c0,0.4-0.3,0.6-0.7,0.6h-6.3c-1,0-1.9-0.4-2.7-1.1
		c-0.8-0.8-1.1-1.7-1.1-2.8c0-1.7,1-3,2.2-3.6l0.4-0.2c0,0,0.1,0,0.1,0c0.1,0,0.2,0.1,0.2,0.1l0.4,0.8c0,0.1,0,0.1,0,0.1
		c0,0.1,0,0.1-0.1,0.2l-0.4,0.2c-0.8,0.4-1.5,1.3-1.5,2.4C175.4,164.4,176.6,165.6,178,165.6z M179.7,168.9v1.1
		c0,0.2-0.1,0.2-0.2,0.2h-0.9c-0.2,0-0.2-0.1-0.2-0.2v-1.1c0-0.2,0.1-0.3,0.2-0.3h0.9C179.7,168.6,179.7,168.7,179.7,168.9z
		 M182.1,168.9v1.1c0,0.2-0.1,0.2-0.2,0.2H181c-0.2,0-0.3-0.1-0.3-0.2v-1.1c0-0.2,0.1-0.3,0.3-0.3h0.9
		C182.1,168.6,182.1,168.7,182.1,168.9z"/>
	<path d="M195.3,162.5v-6c0-0.2,0.1-0.3,0.2-0.3h0.8c0.2,0,0.2,0.1,0.2,0.3v6.3c0,0.2,0.1,0.3,0.2,0.5c0.2,0.2,0.5,0.3,1.1,0.3h0.8
		v1.3h-0.6c-0.9,0-1.6-0.2-2-0.7c0,0,0,0,0,0l-0.1,0.1c-0.4,0.4-1,0.6-1.7,0.6h-3.1v-1.3h3.1C195,163.5,195.3,163.1,195.3,162.5z
		 M194.1,153.8v-1.1c0-0.2,0.1-0.3,0.3-0.3h0.9c0.2,0,0.2,0.1,0.2,0.3v1.1c0,0.2-0.1,0.2-0.2,0.2h-0.9
		C194.1,154.1,194.1,154,194.1,153.8z M196.5,153.8v-1.1c0-0.2,0.1-0.3,0.2-0.3h0.9c0.2,0,0.3,0.1,0.3,0.3v1.1
		c0,0.2-0.1,0.2-0.3,0.2h-0.9C196.5,154.1,196.5,154,196.5,153.8z"/>
	<path d="M201.3,162.5V152c0-0.2,0.1-0.3,0.2-0.3h0.8c0.2,0,0.2,0.1,0.2,0.3v10.5c0,1.4-0.9,2.3-2.3,2.3h-2.1v-1.3h2.1h0
		C201,163.5,201.3,163.2,201.3,162.5z"/>
	<path d="M206.6,164.8h-0.9c-0.2,0-0.2-0.1-0.2-0.2V152c0-0.2,0.1-0.2,0.2-0.2h0.9c0.1,0,0.2,0.1,0.2,0.2v12.5
		C206.8,164.7,206.7,164.8,206.6,164.8z"/>
	<path d="M230.8,164.8h-6.6c-1,0-1.9-0.4-2.7-1.1s-1.1-1.6-1.1-2.7v-1.4c0-1,0.4-2,1.1-2.7c0.7-0.7,1.6-1.1,2.7-1.1
		c1,0,1.9,0.4,2.7,1.1c0.7,0.7,1.1,1.7,1.1,2.7v3.8h2.8V164.8z M224.2,163.5h2.5v-3.8c0-1.4-1.1-2.5-2.5-2.5c-1.4,0-2.5,1.1-2.5,2.5
		v1.4C221.7,162.3,222.8,163.5,224.2,163.5z M222,153.8v-1.1c0-0.2,0.1-0.3,0.2-0.3h0.9c0.2,0,0.2,0.1,0.2,0.3v1.1
		c0,0.2-0.1,0.2-0.2,0.2h-0.9C222.1,154.1,222,154,222,153.8z M224.4,153.8v-1.1c0-0.2,0.1-0.3,0.3-0.3h0.9c0.2,0,0.3,0.1,0.3,0.3
		v1.1c0,0.2-0.1,0.2-0.3,0.2h-0.9C224.5,154.1,224.4,154,224.4,153.8z"/>
	<path d="M233.6,162.5v-6c0-0.2,0.1-0.3,0.3-0.3h0.8c0.2,0,0.3,0.1,0.3,0.3v6.3c0,0.2,0,0.3,0.1,0.5c0.2,0.2,0.5,0.3,1.1,0.3h0.8
		v1.3h-0.6c-0.9,0-1.5-0.2-2-0.7c0,0,0,0,0,0c0,0,0,0.1-0.1,0.1c-0.4,0.4-1,0.6-1.7,0.6h-2.7v-1.3h2.7
		C233.3,163.5,233.6,163.2,233.6,162.5z M232.9,166.8v1c0,0.2-0.1,0.3-0.2,0.3h-0.9c-0.2,0-0.2-0.1-0.2-0.3v-1
		c0-0.2,0.1-0.3,0.2-0.3h0.9C232.8,166.5,232.9,166.6,232.9,166.8z M235.3,166.8v1c0,0.2-0.1,0.3-0.3,0.3h-0.9
		c-0.2,0-0.3-0.1-0.3-0.3v-1c0-0.2,0.1-0.3,0.3-0.3h0.9C235.2,166.5,235.3,166.6,235.3,166.8z"/>
	<path d="M250.2,163.5h0.8v1.3h-0.6c-0.8,0-1.4-0.3-1.9-0.7c-0.1-0.1-0.1-0.1-0.2-0.3c-0.5,0.6-1.3,1-2.4,1h-9.4v-1.3h2.8V152
		c0-0.2,0.1-0.3,0.2-0.3h0.8c0.1,0,0.2,0.1,0.2,0.3v6.3c1.8-1.7,3.3-2.5,4.6-2.5c2.3,0,3.7,1.8,3.7,4.2v2.5
		C249,163.2,249.5,163.5,250.2,163.5z M247.6,161.7V160c0-0.6-0.1-1.2-0.4-1.7c-0.4-0.8-1-1.2-2-1.2c-0.6,0-1.4,0.3-2.3,0.9
		c-0.9,0.6-1.7,1.3-2.3,2.1v3.3h5.3C247.1,163.5,247.6,162.9,247.6,161.7z"/>
	<path d="M263.9,164.8h-13.3v-1.3h3.9c-0.6-0.7-0.9-1.5-0.9-2.5v-1.4c0-1,0.4-1.9,1.1-2.7c0.7-0.7,1.7-1.1,2.7-1.1s1.9,0.4,2.7,1.1
		c0.7,0.7,1.1,1.6,1.1,2.7v3.8h2.7V164.8z M254.9,159.6v1.4c0,1.4,1.1,2.5,2.5,2.5h2.5v-3.8c0-1.4-1.1-2.5-2.5-2.5
		C256,157.2,254.9,158.3,254.9,159.6z M255.4,153.8v-1.1c0-0.2,0.1-0.3,0.2-0.3h0.9c0.2,0,0.3,0.1,0.3,0.3v1.1
		c0,0.2-0.1,0.2-0.3,0.2h-0.9C255.5,154.1,255.4,154,255.4,153.8z M257.8,153.8v-1.1c0-0.2,0.1-0.3,0.3-0.3h0.9
		c0.2,0,0.2,0.1,0.2,0.3v1.1c0,0.2-0.1,0.2-0.2,0.2h-0.9C257.9,154.1,257.8,154,257.8,153.8z"/>
	<path d="M266.9,162.5v-6c0-0.2,0.1-0.3,0.3-0.3h0.8c0.2,0,0.3,0.1,0.3,0.3v6.3c0,0.2,0,0.3,0.1,0.5c0.2,0.2,0.5,0.3,1.1,0.3h0.8
		v1.3h-0.6c-0.9,0-1.5-0.2-2-0.7c0,0,0,0,0,0c0,0,0,0.1-0.1,0.1c-0.4,0.4-1,0.6-1.7,0.6h-2.7v-1.3h2.7
		C266.6,163.5,266.9,163.2,266.9,162.5z M266.9,153.8v-1.1c0-0.2,0.1-0.3,0.2-0.3h0.9c0.2,0,0.3,0.1,0.3,0.3v1.1
		c0,0.2-0.1,0.2-0.3,0.2h-0.9C267,154.1,266.9,154,266.9,153.8z"/>
	<path d="M272.9,162.5V152c0-0.2,0.1-0.3,0.2-0.3h0.8c0.2,0,0.2,0.1,0.2,0.3v10.5c0,1.4-0.9,2.3-2.3,2.3h-2.1v-1.3h2.1h0
		C272.6,163.5,272.9,163.2,272.9,162.5z"/>
	<path d="M278.2,164.8h-0.9c-0.2,0-0.2-0.1-0.2-0.2V152c0-0.2,0.1-0.2,0.2-0.2h0.9c0.1,0,0.2,0.1,0.2,0.2v12.5
		C278.4,164.7,278.4,164.8,278.2,164.8z"/>
</g>
</svg>
