<?xml version="1.0" encoding="utf-8"?>
<!-- Generator: Adobe Illustrator 19.1.0, SVG Export Plug-In . SVG Version: 6.00 Build 0)  -->
<svg version="1.1" xmlns="http://www.w3.org/2000/svg" xmlns:xlink="http://www.w3.org/1999/xlink" x="0px" y="0px"
	 viewBox="0 0 88 78" style="enable-background:new 0 0 88 78;" xml:space="preserve">
<style type="text/css">
	.st0{display:none;}
</style>
<g id="Layer_2" class="st0">
</g>
<g id="Layer_1">
	<g>
		<g>
			<path d="M62.7,6l18.5,33L62.5,72h-37L6.9,39L25.5,6H63 M66,0H22L0,39l22,39h44l22-39L66,0L66,0z"/>
		</g>
		<g>
			<path d="M57.4,29.7c-0.1,0-0.2,0-0.2,0c-13.9,3-21.4,9.5-21.4,12.7c0,4,5.6,5.6,15.1,5.6c1.9,0,3.9-0.1,6.1-0.2l-4.6,8.5
				c-2.3,0.3-4.4,0.5-6.4,0.5c-10,0-15.3-4.5-15.3-11.5c0-7.3,6.7-13.7,15.1-17.1c-2.8-0.3-5.6-0.5-7.8-0.5c-2.1,0-4.3,0.3-6.7,1.1
				l1.2-7.7c2-0.7,3.9-1,5.7-1c6.9,0,13.3,3.2,19.7,5.9L57.4,29.7z"/>
		</g>
	</g>
</g>
</svg>
