<svg id="svg" version="1.1" width="400" height="112.8344671201814" xmlns="http://www.w3.org/2000/svg" xmlns:xlink="http://www.w3.org/1999/xlink" style="display: block;"><g id="svgg"><path id="path0" d="M4.333 42.165 L 4.333 80.330 19.010 80.373 L 33.687 80.417 35.219 79.812 C 36.061 79.479,38.137 78.644,39.833 77.957 C 41.529 77.269,44.717 75.977,46.917 75.086 C 49.117 74.194,52.679 72.751,54.833 71.877 C 56.987 71.004,59.406 70.029,60.208 69.710 L 61.667 69.130 61.657 43.940 L 61.648 18.750 59.866 17.884 C 58.885 17.407,56.096 15.975,53.667 14.702 C 51.237 13.429,45.837 10.607,41.667 8.430 C 37.496 6.254,34.000 4.367,33.898 4.237 C 33.741 4.035,31.512 4.000,19.023 4.000 L 4.333 4.000 4.333 42.165 M101.944 4.111 C 101.883 4.172,101.833 21.347,101.833 42.277 L 101.833 80.332 116.542 80.374 L 131.250 80.417 133.667 79.444 C 134.996 78.910,138.221 77.608,140.833 76.552 C 143.446 75.496,146.956 74.077,148.633 73.399 C 150.310 72.721,151.717 72.167,151.758 72.167 C 151.799 72.167,151.833 74.004,151.833 76.249 L 151.833 80.332 166.458 80.374 L 181.083 80.417 182.667 79.803 C 183.537 79.466,185.750 78.579,187.583 77.832 C 189.417 77.085,193.054 75.608,195.667 74.549 C 198.279 73.491,201.692 72.107,203.250 71.474 C 204.808 70.842,206.777 70.053,207.625 69.723 L 209.167 69.123 209.167 43.974 L 209.167 18.825 208.774 18.676 C 208.558 18.594,206.102 17.330,203.316 15.868 C 200.530 14.406,195.137 11.580,191.333 9.589 C 181.311 4.342,181.255 4.312,181.194 4.149 C 181.162 4.063,174.935 4.000,166.486 4.000 L 151.833 4.000 151.833 9.417 C 151.833 13.262,151.780 14.833,151.649 14.833 C 151.548 14.833,147.966 13.005,143.691 10.770 C 139.415 8.535,134.942 6.200,133.750 5.580 C 132.558 4.960,131.500 4.351,131.398 4.227 C 131.201 3.985,102.185 3.871,101.944 4.111 M238.667 42.166 L 238.667 80.332 253.375 80.374 L 268.083 80.417 269.583 79.812 C 270.936 79.267,274.259 77.921,284.910 73.605 C 286.831 72.827,288.462 72.226,288.535 72.271 C 288.607 72.316,288.667 74.148,288.667 76.342 L 288.667 80.332 303.292 80.374 L 317.917 80.417 320.333 79.444 C 324.517 77.760,332.784 74.421,336.244 73.017 C 338.075 72.274,339.668 71.667,339.786 71.667 C 339.955 71.667,340.000 72.584,340.000 75.998 L 340.000 80.330 354.678 80.373 L 369.355 80.417 373.803 78.616 C 385.344 73.942,388.900 72.503,392.958 70.866 L 397.333 69.101 397.333 43.963 L 397.333 18.825 396.952 18.680 C 396.609 18.550,392.538 16.436,388.583 14.335 C 387.758 13.897,383.821 11.834,379.833 9.752 C 370.138 4.688,369.426 4.306,369.361 4.142 C 369.331 4.064,362.712 4.000,354.653 4.000 L 340.000 4.000 340.000 9.833 C 340.000 13.472,339.939 15.667,339.839 15.667 C 339.751 15.667,339.207 15.411,338.631 15.100 C 337.715 14.604,326.606 8.798,320.417 5.580 C 319.225 4.960,318.167 4.351,318.065 4.227 C 317.911 4.039,315.388 4.000,303.273 4.000 L 288.667 4.000 288.667 9.417 C 288.667 13.434,288.616 14.833,288.472 14.833 C 288.170 14.833,268.440 4.505,268.232 4.237 C 268.074 4.035,265.869 4.000,253.357 4.000 L 238.667 4.000 238.667 42.166 M33.000 42.250 L 33.000 79.667 19.083 79.667 L 5.167 79.667 5.167 42.250 L 5.167 4.833 19.083 4.833 L 33.000 4.833 33.000 42.250 M130.629 41.917 C 130.654 62.267,130.634 79.085,130.584 79.292 L 130.494 79.667 116.580 79.667 L 102.667 79.667 102.667 42.249 L 102.667 4.831 116.625 4.874 L 130.583 4.917 130.629 41.917 M180.459 42.208 L 180.417 79.583 166.500 79.583 L 152.583 79.583 152.541 42.417 C 152.517 21.975,152.534 5.156,152.577 5.042 C 152.640 4.877,155.594 4.833,166.578 4.833 L 180.501 4.833 180.459 42.208 M267.333 42.250 L 267.333 79.667 253.417 79.667 L 239.500 79.667 239.500 42.250 L 239.500 4.833 253.417 4.833 L 267.333 4.833 267.333 42.250 M317.296 41.917 C 317.321 62.267,317.300 79.085,317.251 79.292 L 317.160 79.667 303.247 79.667 L 289.333 79.667 289.333 42.249 L 289.333 4.831 303.292 4.874 L 317.250 4.917 317.296 41.917 M368.625 42.208 L 368.583 79.583 354.667 79.583 L 340.750 79.583 340.708 42.208 L 340.666 4.833 354.667 4.833 L 368.667 4.833 368.625 42.208 M137.667 8.500 C 139.637 9.530,143.350 11.465,145.917 12.800 C 148.483 14.134,150.865 15.401,151.208 15.615 L 151.833 16.004 151.833 43.651 L 151.833 71.299 150.125 71.970 C 149.185 72.339,146.167 73.555,143.417 74.672 C 135.927 77.715,131.485 79.500,131.405 79.500 C 131.366 79.500,131.333 62.770,131.333 42.323 L 131.333 5.146 132.708 5.886 C 133.465 6.293,135.696 7.469,137.667 8.500 M288.449 15.860 C 288.763 16.121,288.773 71.043,288.458 71.289 C 288.344 71.379,287.575 71.717,286.750 72.040 C 285.925 72.363,283.862 73.190,282.167 73.877 C 280.471 74.564,277.096 75.931,274.667 76.913 C 272.237 77.896,269.821 78.880,269.297 79.100 C 268.772 79.320,268.304 79.500,268.255 79.500 C 268.206 79.500,268.167 62.783,268.167 42.352 L 268.167 5.204 278.199 10.442 C 283.716 13.322,288.329 15.760,288.449 15.860 M326.750 9.757 C 330.050 11.482,334.362 13.738,336.333 14.771 L 339.917 16.650 339.917 43.687 L 339.917 70.724 337.333 71.753 C 335.912 72.318,332.575 73.664,329.917 74.743 C 322.251 77.855,318.155 79.500,318.075 79.500 C 318.034 79.500,318.000 62.770,318.000 42.323 L 318.000 5.146 319.375 5.884 C 320.131 6.290,323.450 8.033,326.750 9.757 M43.250 10.123 C 48.108 12.657,53.921 15.686,56.167 16.853 C 58.413 18.021,60.419 19.097,60.626 19.246 L 61.001 19.516 60.959 44.049 L 60.917 68.582 56.333 70.435 C 53.813 71.455,51.188 72.519,50.500 72.801 C 46.644 74.381,33.963 79.500,33.904 79.500 C 33.865 79.500,33.833 62.804,33.833 42.399 C 33.833 7.134,33.848 5.303,34.125 5.407 C 34.285 5.467,38.392 7.589,43.250 10.123 M188.583 9.012 C 192.433 11.034,198.452 14.190,201.958 16.025 L 208.333 19.363 208.333 43.911 C 208.333 63.354,208.290 68.492,208.125 68.617 C 208.010 68.703,205.067 69.923,201.583 71.326 C 198.100 72.730,194.275 74.276,193.083 74.762 C 185.684 77.780,181.713 79.383,181.458 79.456 C 181.181 79.535,181.167 77.693,181.167 42.436 C 181.167 12.864,181.209 5.334,181.375 5.335 C 181.490 5.336,184.733 6.991,188.583 9.012 M377.906 9.611 C 382.404 11.963,386.683 14.208,387.417 14.599 C 388.150 14.990,390.475 16.211,392.583 17.313 L 396.417 19.316 396.459 43.961 L 396.501 68.605 395.626 68.958 C 395.144 69.152,392.125 70.371,388.917 71.665 C 385.708 72.960,382.183 74.387,381.083 74.837 C 375.631 77.065,369.885 79.382,369.625 79.456 C 369.348 79.535,369.333 77.693,369.333 42.436 C 369.333 13.887,369.379 5.333,369.531 5.333 C 369.640 5.333,373.409 7.258,377.906 9.611 M14.261 98.820 C 13.962 99.152,13.942 99.416,13.983 102.563 L 14.026 105.948 13.500 106.391 C 12.025 107.632,10.414 106.852,10.420 104.899 C 10.424 103.680,10.304 103.552,10.026 104.478 C 9.229 107.139,11.383 108.817,13.706 107.345 C 14.798 106.652,14.833 106.532,14.833 103.500 C 14.833 101.898,14.906 100.676,15.013 100.476 C 15.148 100.224,15.131 100.009,14.946 99.612 C 14.810 99.321,14.673 98.944,14.641 98.773 C 14.587 98.482,14.564 98.485,14.261 98.820 M135.287 98.793 C 135.075 99.027,135.000 99.405,135.000 100.244 C 135.000 101.378,134.716 102.717,134.493 102.630 C 134.428 102.604,134.010 102.098,133.563 101.505 C 132.550 100.161,131.927 99.765,131.574 100.240 C 131.138 100.826,131.770 102.119,132.456 102.046 C 132.834 102.006,134.000 103.157,134.000 103.571 C 134.000 103.701,133.667 104.094,133.260 104.445 C 132.590 105.023,132.200 105.844,132.542 105.958 C 134.273 106.535,135.331 105.784,135.020 104.200 C 134.847 103.323,134.862 103.140,135.160 102.484 C 135.343 102.080,135.494 101.593,135.496 101.401 C 135.498 101.208,135.650 100.878,135.833 100.667 C 136.175 100.273,136.264 99.818,136.042 99.599 C 135.973 99.531,135.839 99.251,135.745 98.976 C 135.578 98.489,135.566 98.484,135.287 98.793 M165.042 98.942 C 164.520 99.673,164.462 104.877,164.968 105.501 C 165.383 106.014,167.332 106.174,168.191 105.767 C 168.716 105.518,168.836 105.516,169.489 105.746 C 171.160 106.336,171.864 105.532,171.063 103.950 C 170.265 102.375,169.536 102.428,168.683 104.125 L 168.327 104.833 166.917 104.833 L 165.507 104.833 165.462 101.625 L 165.417 98.417 165.042 98.942 M177.875 99.056 C 177.529 99.562,177.500 99.787,177.501 102.010 C 177.502 105.070,177.635 105.596,178.464 105.826 C 179.205 106.032,185.821 106.056,186.140 105.854 C 186.630 105.543,186.270 104.943,185.233 104.341 C 184.673 104.016,183.941 103.534,183.606 103.271 C 182.699 102.557,181.657 102.481,181.094 103.087 C 180.518 103.709,180.556 103.869,181.250 103.739 C 182.111 103.577,182.860 103.773,183.508 104.330 L 184.083 104.825 181.250 104.788 L 178.417 104.750 178.333 101.629 L 178.250 98.508 177.875 99.056 M292.316 98.948 C 291.980 99.313,291.911 99.509,292.009 99.833 C 292.077 100.063,292.141 101.281,292.150 102.542 L 292.167 104.833 291.177 104.833 C 289.968 104.833,290.047 104.966,289.904 102.701 C 289.779 100.731,289.655 100.463,289.311 101.416 C 289.195 101.736,288.971 102.040,288.813 102.090 C 288.430 102.211,287.333 103.437,287.333 103.744 C 287.333 104.434,288.675 105.028,289.186 104.566 C 289.486 104.294,289.500 104.302,289.500 104.732 C 289.500 105.541,290.164 106.000,291.337 106.000 C 293.033 106.000,293.000 106.056,293.000 103.150 C 293.000 101.690,293.074 100.506,293.178 100.312 C 293.308 100.069,293.302 99.913,293.157 99.738 C 293.047 99.606,292.911 99.269,292.853 98.989 L 292.749 98.479 292.316 98.948 M325.375 98.979 C 324.981 99.513,324.771 105.667,325.147 105.667 C 325.709 105.667,325.841 104.852,325.795 101.653 L 325.750 98.471 325.375 98.979 M47.292 98.953 C 46.977 99.302,46.843 104.995,47.139 105.461 C 47.439 105.934,54.195 106.299,55.236 105.899 C 55.827 105.672,55.548 104.923,54.723 104.522 C 54.296 104.315,53.639 103.897,53.265 103.594 C 51.771 102.388,50.617 102.302,50.072 103.356 L 49.823 103.838 50.715 103.733 C 51.684 103.619,52.316 103.837,52.905 104.487 L 53.226 104.842 50.488 104.796 L 47.750 104.750 47.667 101.690 C 47.587 98.762,47.571 98.644,47.292 98.953 M289.494 99.010 C 289.322 99.333,289.283 99.339,288.911 99.095 C 288.391 98.754,288.062 98.764,287.924 99.124 C 287.702 99.704,288.834 100.268,289.136 99.727 C 289.276 99.478,289.333 99.481,289.818 99.767 C 290.364 100.090,290.657 99.955,290.664 99.379 C 290.670 98.933,289.700 98.627,289.494 99.010 M343.378 99.247 C 342.384 99.679,341.652 101.599,342.530 101.470 C 342.766 101.435,342.938 101.252,343.019 100.948 C 343.266 100.020,344.207 99.579,345.024 100.010 C 346.209 100.634,345.679 102.333,344.299 102.333 C 343.424 102.333,343.725 103.058,344.652 103.181 C 346.507 103.429,346.424 105.696,344.549 105.948 C 343.761 106.054,342.833 105.368,342.833 104.679 C 342.833 104.421,342.727 104.333,342.417 104.333 C 341.081 104.333,342.398 106.407,343.944 106.740 C 346.266 107.240,348.142 103.998,346.182 102.873 L 345.718 102.607 346.151 102.234 C 347.809 100.808,345.504 98.323,343.378 99.247 M26.202 99.673 C 26.006 99.985,25.961 99.992,25.624 99.756 C 25.135 99.413,24.881 99.434,24.667 99.833 C 24.392 100.347,25.547 100.893,25.897 100.415 C 26.120 100.111,26.140 100.111,26.591 100.406 C 27.041 100.701,27.063 100.701,27.278 100.407 C 27.594 99.974,27.561 99.874,27.008 99.588 C 26.400 99.273,26.455 99.267,26.202 99.673 M51.178 99.646 C 50.904 100.158,50.958 100.303,51.530 100.599 C 52.505 101.103,52.824 100.245,51.883 99.649 C 51.356 99.315,51.355 99.315,51.178 99.646 M147.202 99.673 C 147.006 99.985,146.961 99.992,146.624 99.756 C 146.135 99.413,145.881 99.434,145.667 99.833 C 145.392 100.347,146.547 100.893,146.897 100.415 C 147.120 100.111,147.140 100.111,147.591 100.406 C 148.041 100.701,148.063 100.701,148.278 100.407 C 148.594 99.974,148.561 99.874,148.008 99.588 C 147.400 99.273,147.455 99.267,147.202 99.673 M181.930 99.808 C 181.598 100.449,182.647 101.143,183.081 100.569 C 183.421 100.120,183.404 100.074,182.751 99.689 L 182.169 99.346 181.930 99.808 M302.850 99.702 C 302.655 100.014,302.675 100.089,303.023 100.357 C 303.520 100.739,303.773 100.744,303.981 100.375 C 304.136 100.098,304.171 100.099,304.667 100.391 C 304.955 100.561,305.212 100.673,305.239 100.641 C 305.653 100.155,305.623 99.879,305.126 99.586 C 304.612 99.282,304.602 99.283,304.365 99.640 L 304.125 100.001 303.598 99.675 C 303.070 99.350,303.070 99.350,302.850 99.702 M333.581 99.777 C 333.430 100.007,333.331 100.212,333.362 100.232 C 334.462 100.952,334.554 100.964,334.798 100.428 C 334.965 100.061,334.929 99.991,334.419 99.690 L 333.856 99.358 333.581 99.777 M126.339 100.989 C 126.102 101.432,126.101 101.431,126.690 101.850 C 127.196 102.210,127.221 102.213,127.440 101.913 C 127.772 101.458,127.722 101.271,127.183 100.953 C 126.577 100.595,126.549 100.596,126.339 100.989 M159.707 100.998 C 159.431 101.439,159.425 101.424,160.023 101.850 C 160.530 102.210,160.554 102.213,160.773 101.913 C 161.115 101.445,161.050 101.201,160.508 100.921 C 159.901 100.607,159.954 100.602,159.707 100.998 M26.024 101.922 C 24.868 102.895,24.766 104.131,25.807 104.563 C 26.412 104.814,26.405 104.816,24.792 104.825 C 23.328 104.832,23.167 104.803,23.167 104.530 C 23.167 104.059,22.654 102.667,22.480 102.667 C 22.129 102.667,21.968 103.568,22.238 104.025 C 22.675 104.764,22.591 104.833,21.265 104.833 L 20.029 104.833 19.915 104.157 C 19.761 103.246,19.133 102.515,18.718 102.766 C 17.580 103.455,17.453 105.822,18.554 105.836 C 19.514 105.848,19.085 106.834,17.888 107.363 C 17.028 107.743,16.561 107.683,15.625 107.071 C 14.788 106.523,14.827 106.887,15.693 107.711 C 16.962 108.918,19.065 108.309,19.702 106.549 L 19.900 106.000 24.580 106.000 C 28.633 106.000,29.311 105.964,29.647 105.729 C 30.006 105.477,30.097 105.479,30.906 105.754 C 32.504 106.297,33.156 105.725,32.599 104.268 C 31.944 102.553,30.971 102.408,30.257 103.917 L 29.824 104.833 28.851 104.833 L 27.879 104.833 27.770 103.904 C 27.551 102.042,26.841 101.235,26.024 101.922 M44.121 102.075 C 43.969 102.394,43.904 102.691,43.977 102.736 C 44.176 102.859,44.737 104.819,44.609 104.946 C 44.251 105.305,42.269 105.079,42.158 104.667 C 42.018 104.148,41.814 104.521,41.775 105.366 C 41.738 106.173,42.313 106.400,43.858 106.186 C 45.503 105.958,45.630 105.613,44.993 103.088 C 44.584 101.465,44.473 101.336,44.121 102.075 M147.032 101.915 C 145.868 102.895,145.763 104.130,146.807 104.563 C 147.416 104.816,147.414 104.816,145.875 104.825 C 144.492 104.832,144.333 104.802,144.333 104.530 C 144.333 104.093,143.826 102.667,143.671 102.667 C 143.327 102.667,143.132 103.645,143.400 104.027 C 143.895 104.733,143.766 104.833,142.365 104.833 L 141.063 104.833 140.853 104.015 C 140.455 102.460,139.784 102.306,139.044 103.599 C 138.501 104.549,138.792 105.826,139.554 105.836 C 140.514 105.848,140.085 106.834,138.888 107.363 C 138.028 107.743,137.561 107.683,136.625 107.071 C 135.788 106.523,135.827 106.887,136.693 107.711 C 137.962 108.918,140.065 108.309,140.702 106.549 L 140.900 106.000 145.580 106.000 C 149.633 106.000,150.311 105.964,150.647 105.729 C 151.006 105.477,151.097 105.479,151.906 105.754 C 153.504 106.297,154.156 105.725,153.599 104.268 C 152.944 102.553,151.971 102.408,151.257 103.917 L 150.824 104.833 149.852 104.833 L 148.880 104.833 148.785 104.033 C 148.552 102.066,147.854 101.223,147.032 101.915 M174.959 102.010 C 174.755 102.512,174.771 102.673,175.123 103.643 C 175.573 104.882,175.517 105.001,174.441 105.123 C 173.375 105.243,172.837 105.077,172.816 104.622 C 172.803 104.323,172.766 104.355,172.629 104.780 C 172.217 106.060,172.821 106.477,174.658 106.181 C 176.334 105.911,176.448 105.546,175.731 102.750 C 175.402 101.469,175.243 101.316,174.959 102.010 M304.319 101.756 C 303.152 102.368,302.876 104.150,303.881 104.587 C 304.395 104.811,304.358 104.821,302.985 104.827 L 301.553 104.833 301.351 103.930 C 301.083 102.733,300.776 102.472,300.428 103.145 C 300.285 103.422,300.235 103.689,300.318 103.740 C 300.400 103.791,300.546 104.058,300.642 104.333 L 300.816 104.833 299.408 104.833 C 298.003 104.833,298.000 104.832,298.000 104.400 C 298.000 102.637,296.819 102.232,296.080 103.742 C 295.545 104.836,295.719 105.394,296.728 105.823 L 297.381 106.100 296.849 106.707 C 295.909 107.777,294.734 107.876,293.594 106.978 C 293.138 106.620,292.997 106.857,293.380 107.337 C 294.625 108.894,296.733 108.624,297.643 106.791 L 298.035 106.000 302.643 105.999 C 306.449 105.998,307.335 105.954,307.738 105.743 C 308.176 105.515,308.303 105.515,308.976 105.744 C 310.674 106.323,311.368 105.539,310.563 103.950 C 309.773 102.390,308.991 102.434,308.225 104.083 C 307.917 104.747,307.910 104.750,306.874 104.800 L 305.833 104.849 305.833 104.205 C 305.833 102.480,305.124 101.334,304.319 101.756 M322.285 101.932 C 322.051 102.385,322.061 102.510,322.424 103.586 C 322.899 104.998,322.839 105.083,321.376 105.083 C 320.333 105.083,320.262 105.059,320.166 104.667 L 320.065 104.250 319.951 104.667 C 319.563 106.095,320.031 106.465,321.885 106.192 C 323.675 105.928,323.755 105.746,323.148 103.323 C 322.677 101.444,322.601 101.322,322.285 101.932 M289.333 103.167 C 289.333 103.919,289.101 104.020,288.495 103.529 L 288.119 103.225 288.685 102.876 C 288.996 102.685,289.269 102.521,289.292 102.514 C 289.315 102.506,289.333 102.800,289.333 103.167 M26.888 103.303 C 27.341 104.079,27.174 104.214,26.364 103.731 C 25.669 103.316,25.654 103.290,25.935 102.980 C 26.302 102.574,26.502 102.642,26.888 103.303 M147.835 103.208 C 148.317 103.999,148.276 104.233,147.708 103.934 C 146.721 103.413,146.597 103.260,146.910 102.947 C 147.307 102.550,147.460 102.593,147.835 103.208 M305.000 103.333 C 305.377 104.072,305.288 104.132,304.422 103.719 C 303.804 103.424,303.701 103.199,304.033 102.867 C 304.382 102.518,304.650 102.647,305.000 103.333 M329.402 102.955 C 328.324 104.033,328.411 105.447,329.580 105.832 C 330.109 106.007,330.147 106.059,329.975 106.381 C 329.279 107.681,327.665 107.953,326.427 106.978 C 325.705 106.411,325.907 107.044,326.667 107.731 C 327.922 108.864,329.660 108.436,330.476 106.791 L 330.869 106.000 334.247 106.000 C 336.997 106.000,337.663 105.955,337.827 105.758 C 338.163 105.353,337.953 104.965,337.167 104.538 C 336.754 104.314,336.154 103.925,335.833 103.674 C 334.408 102.560,333.418 102.378,332.742 103.108 C 332.184 103.709,332.228 103.868,332.917 103.739 C 333.776 103.578,334.526 103.773,335.174 104.328 L 335.750 104.820 333.292 104.827 L 330.833 104.833 330.833 104.428 C 330.833 103.210,330.002 102.355,329.402 102.955 M37.576 103.390 C 36.724 104.243,36.901 104.811,37.801 104.112 C 37.959 103.990,38.136 104.060,38.446 104.370 L 38.872 104.797 37.978 104.914 C 36.291 105.136,36.090 105.518,36.571 107.583 C 36.700 108.133,36.857 109.014,36.921 109.540 C 36.985 110.066,37.101 110.457,37.179 110.409 C 37.493 110.215,37.527 109.082,37.263 107.639 C 36.929 105.816,36.818 105.945,38.781 105.885 C 39.664 105.859,40.402 105.817,40.422 105.793 C 40.683 105.484,40.621 105.031,40.294 104.851 C 40.086 104.737,39.654 104.306,39.333 103.894 C 38.453 102.763,38.259 102.707,37.576 103.390 M315.943 103.332 C 315.156 104.023,315.078 104.641,315.826 104.254 C 316.291 104.013,316.339 104.020,316.667 104.372 C 316.858 104.577,316.955 104.760,316.882 104.779 C 316.810 104.797,316.326 104.896,315.808 104.998 C 314.509 105.254,314.374 105.594,314.813 107.506 C 314.992 108.282,315.192 109.292,315.258 109.750 L 315.378 110.583 315.606 110.044 C 315.829 109.513,315.796 108.965,315.399 106.643 L 315.296 106.036 316.132 105.921 C 316.593 105.858,317.298 105.826,317.700 105.851 C 319.185 105.942,319.183 105.555,317.693 103.993 L 316.553 102.797 315.943 103.332 M128.893 103.805 C 128.541 104.253,128.540 104.267,128.844 104.838 C 129.558 106.178,129.090 106.986,127.399 107.337 C 125.548 107.721,124.488 106.955,124.820 105.475 C 125.041 104.493,124.906 104.461,124.491 105.397 C 123.563 107.497,124.540 108.721,126.908 108.425 C 129.277 108.129,130.497 106.078,129.592 103.911 C 129.306 103.228,129.343 103.234,128.893 103.805 M162.259 103.823 C 161.977 104.135,161.975 104.196,162.230 104.831 C 162.725 106.070,162.611 106.637,161.792 106.996 C 159.475 108.013,158.036 107.417,158.212 105.514 L 158.298 104.583 157.901 105.417 C 156.848 107.628,158.064 108.891,160.717 108.340 C 162.715 107.925,163.628 106.479,163.139 104.505 C 162.888 103.495,162.693 103.343,162.259 103.823 M31.938 104.259 C 32.425 105.002,31.632 105.249,30.773 104.621 C 30.483 104.408,30.481 104.376,30.743 104.114 C 31.146 103.711,31.616 103.768,31.938 104.259 M152.938 104.259 C 153.425 105.002,152.632 105.249,151.773 104.621 C 151.483 104.408,151.481 104.376,151.743 104.114 C 152.146 103.711,152.616 103.768,152.938 104.259 M170.362 104.109 C 170.717 104.431,170.768 105.000,170.442 105.000 C 169.999 105.000,169.167 104.630,169.167 104.434 C 169.167 103.863,169.877 103.670,170.362 104.109 M309.862 104.109 C 310.217 104.431,310.268 105.000,309.942 105.000 C 309.499 105.000,308.667 104.630,308.667 104.434 C 308.667 103.863,309.377 103.670,309.862 104.109 M19.232 104.264 C 19.397 104.694,19.350 104.833,19.042 104.831 C 18.585 104.827,18.275 104.559,18.387 104.267 C 18.519 103.923,19.101 103.921,19.232 104.264 M140.232 104.264 C 140.397 104.694,140.350 104.833,140.042 104.831 C 139.585 104.827,139.275 104.559,139.387 104.267 C 139.519 103.923,140.101 103.921,140.232 104.264 M297.394 104.367 C 297.629 104.743,297.447 104.898,296.924 104.767 C 296.371 104.628,296.310 103.949,296.858 104.030 C 297.055 104.059,297.296 104.211,297.394 104.367 M330.227 104.367 C 330.462 104.743,330.280 104.898,329.758 104.767 C 329.205 104.628,329.144 103.949,329.691 104.030 C 329.888 104.059,330.129 104.211,330.227 104.367 M134.470 104.542 C 134.436 104.783,134.283 104.936,134.042 104.970 C 133.596 105.033,133.567 104.886,133.942 104.471 C 134.316 104.059,134.534 104.088,134.470 104.542 M21.209 107.713 C 20.805 108.236,20.828 108.336,21.418 108.617 C 22.040 108.914,22.324 108.788,22.331 108.213 C 22.335 107.882,21.401 107.465,21.209 107.713 M142.376 107.713 C 141.973 108.235,141.995 108.336,142.575 108.613 C 143.164 108.894,143.829 108.564,143.558 108.126 C 143.355 107.797,142.533 107.510,142.376 107.713 M299.319 107.859 C 299.011 108.436,299.998 109.102,300.467 108.633 C 300.792 108.308,300.698 108.025,300.175 107.754 C 299.550 107.431,299.549 107.431,299.319 107.859 " stroke="none" fill="#000000" fill-rule="evenodd"></path><path id="path1" d="M0.000 56.417 L 0.000 112.833 200.000 112.833 L 400.000 112.833 400.000 56.417 L 400.000 0.000 200.000 0.000 L 0.000 0.000 0.000 56.417 M33.898 4.237 C 34.000 4.367,37.496 6.254,41.667 8.430 C 45.837 10.607,51.237 13.429,53.667 14.702 C 56.096 15.975,58.885 17.407,59.866 17.884 L 61.648 18.750 61.657 43.940 L 61.667 69.130 60.208 69.710 C 59.406 70.029,56.987 71.004,54.833 71.877 C 52.679 72.751,49.117 74.194,46.917 75.086 C 44.717 75.977,41.529 77.269,39.833 77.957 C 38.137 78.644,36.061 79.479,35.219 79.812 L 33.687 80.417 19.010 80.373 L 4.333 80.330 4.333 42.165 L 4.333 4.000 19.023 4.000 C 31.512 4.000,33.741 4.035,33.898 4.237 M131.398 4.227 C 131.500 4.351,132.558 4.960,133.750 5.580 C 134.942 6.200,139.415 8.535,143.691 10.770 C 147.966 13.005,151.548 14.833,151.649 14.833 C 151.780 14.833,151.833 13.262,151.833 9.417 L 151.833 4.000 166.486 4.000 C 174.935 4.000,181.162 4.063,181.194 4.149 C 181.255 4.312,181.311 4.342,191.333 9.589 C 195.137 11.580,200.530 14.406,203.316 15.868 C 206.102 17.330,208.558 18.594,208.774 18.676 L 209.167 18.825 209.167 43.974 L 209.167 69.123 207.625 69.723 C 206.777 70.053,204.808 70.842,203.250 71.474 C 201.692 72.107,198.279 73.491,195.667 74.549 C 193.054 75.608,189.417 77.085,187.583 77.832 C 185.750 78.579,183.537 79.466,182.667 79.803 L 181.083 80.417 166.458 80.374 L 151.833 80.332 151.833 76.249 C 151.833 74.004,151.799 72.167,151.758 72.167 C 151.717 72.167,150.310 72.721,148.633 73.399 C 146.956 74.077,143.446 75.496,140.833 76.552 C 138.221 77.608,134.996 78.910,133.667 79.444 L 131.250 80.417 116.542 80.374 L 101.833 80.332 101.833 42.277 C 101.833 21.347,101.883 4.172,101.944 4.111 C 102.185 3.871,131.201 3.985,131.398 4.227 M268.232 4.237 C 268.440 4.505,288.170 14.833,288.472 14.833 C 288.616 14.833,288.667 13.434,288.667 9.417 L 288.667 4.000 303.273 4.000 C 315.388 4.000,317.911 4.039,318.065 4.227 C 318.167 4.351,319.225 4.960,320.417 5.580 C 326.606 8.798,337.715 14.604,338.631 15.100 C 339.207 15.411,339.751 15.667,339.839 15.667 C 339.939 15.667,340.000 13.472,340.000 9.833 L 340.000 4.000 354.653 4.000 C 362.712 4.000,369.331 4.064,369.361 4.142 C 369.426 4.306,370.138 4.688,379.833 9.752 C 383.821 11.834,387.758 13.897,388.583 14.335 C 392.538 16.436,396.609 18.550,396.952 18.680 L 397.333 18.825 397.333 43.963 L 397.333 69.101 392.958 70.866 C 388.900 72.503,385.344 73.942,373.803 78.616 L 369.355 80.417 354.678 80.373 L 340.000 80.330 340.000 75.998 C 340.000 72.584,339.955 71.667,339.786 71.667 C 339.668 71.667,338.075 72.274,336.244 73.017 C 332.784 74.421,324.517 77.760,320.333 79.444 L 317.917 80.417 303.292 80.374 L 288.667 80.332 288.667 76.342 C 288.667 74.148,288.607 72.316,288.535 72.271 C 288.462 72.226,286.831 72.827,284.910 73.605 C 274.259 77.921,270.936 79.267,269.583 79.812 L 268.083 80.417 253.375 80.374 L 238.667 80.332 238.667 42.166 L 238.667 4.000 253.357 4.000 C 265.869 4.000,268.074 4.035,268.232 4.237 M5.167 42.250 L 5.167 79.667 19.083 79.667 L 33.000 79.667 33.000 42.250 L 33.000 4.833 19.083 4.833 L 5.167 4.833 5.167 42.250 M102.667 42.249 L 102.667 79.667 116.580 79.667 L 130.494 79.667 130.584 79.292 C 130.634 79.085,130.654 62.267,130.629 41.917 L 130.583 4.917 116.625 4.874 L 102.667 4.831 102.667 42.249 M152.577 5.042 C 152.534 5.156,152.517 21.975,152.541 42.417 L 152.583 79.583 166.500 79.583 L 180.417 79.583 180.459 42.208 L 180.501 4.833 166.578 4.833 C 155.594 4.833,152.640 4.877,152.577 5.042 M239.500 42.250 L 239.500 79.667 253.417 79.667 L 267.333 79.667 267.333 42.250 L 267.333 4.833 253.417 4.833 L 239.500 4.833 239.500 42.250 M289.333 42.249 L 289.333 79.667 303.247 79.667 L 317.160 79.667 317.251 79.292 C 317.300 79.085,317.321 62.267,317.296 41.917 L 317.250 4.917 303.292 4.874 L 289.333 4.831 289.333 42.249 M340.708 42.208 L 340.750 79.583 354.667 79.583 L 368.583 79.583 368.625 42.208 L 368.667 4.833 354.667 4.833 L 340.666 4.833 340.708 42.208 M131.333 42.323 C 131.333 62.770,131.366 79.500,131.405 79.500 C 131.485 79.500,135.927 77.715,143.417 74.672 C 146.167 73.555,149.185 72.339,150.125 71.970 L 151.833 71.299 151.833 43.651 L 151.833 16.004 151.208 15.615 C 150.865 15.401,148.483 14.134,145.917 12.800 C 139.027 9.217,134.260 6.722,132.708 5.886 L 131.333 5.146 131.333 42.323 M268.167 42.352 C 268.167 62.783,268.206 79.500,268.255 79.500 C 268.304 79.500,268.772 79.320,269.297 79.100 C 269.821 78.880,272.237 77.896,274.667 76.913 C 277.096 75.931,280.471 74.564,282.167 73.877 C 283.862 73.190,285.925 72.363,286.750 72.040 C 287.575 71.717,288.344 71.379,288.458 71.289 C 288.773 71.043,288.763 16.121,288.449 15.860 C 288.329 15.760,283.716 13.322,278.199 10.442 L 268.167 5.204 268.167 42.352 M318.000 42.323 C 318.000 62.770,318.034 79.500,318.075 79.500 C 318.155 79.500,322.251 77.855,329.917 74.743 C 332.575 73.664,335.912 72.318,337.333 71.753 L 339.917 70.724 339.917 43.687 L 339.917 16.650 336.333 14.771 C 334.362 13.738,330.050 11.482,326.750 9.757 C 323.450 8.033,320.131 6.290,319.375 5.884 L 318.000 5.146 318.000 42.323 M33.833 42.399 C 33.833 62.804,33.865 79.500,33.904 79.500 C 33.963 79.500,46.644 74.381,50.500 72.801 C 51.188 72.519,53.813 71.455,56.333 70.435 L 60.917 68.582 60.959 44.049 L 61.001 19.516 60.626 19.246 C 60.419 19.097,58.413 18.021,56.167 16.853 C 53.921 15.686,48.108 12.657,43.250 10.123 C 38.392 7.589,34.285 5.467,34.125 5.407 C 33.848 5.303,33.833 7.134,33.833 42.399 M181.167 42.436 C 181.167 77.693,181.181 79.535,181.458 79.456 C 181.713 79.383,185.684 77.780,193.083 74.762 C 194.275 74.276,198.100 72.730,201.583 71.326 C 205.067 69.923,208.010 68.703,208.125 68.617 C 208.290 68.492,208.333 63.354,208.333 43.911 L 208.333 19.363 201.958 16.025 C 198.452 14.190,192.433 11.034,188.583 9.012 C 184.733 6.991,181.490 5.336,181.375 5.335 C 181.209 5.334,181.167 12.864,181.167 42.436 M369.333 42.436 C 369.333 77.693,369.348 79.535,369.625 79.456 C 369.885 79.382,375.631 77.065,381.083 74.837 C 382.183 74.387,385.708 72.960,388.917 71.665 C 392.125 70.371,395.144 69.152,395.626 68.958 L 396.501 68.605 396.459 43.961 L 396.417 19.316 392.583 17.313 C 390.475 16.211,388.150 14.990,387.417 14.599 C 381.945 11.681,369.692 5.333,369.531 5.333 C 369.379 5.333,369.333 13.887,369.333 42.436 M14.946 99.612 C 15.131 100.009,15.148 100.224,15.013 100.476 C 14.906 100.676,14.833 101.898,14.833 103.500 C 14.833 106.532,14.798 106.652,13.706 107.345 C 11.383 108.817,9.229 107.139,10.026 104.478 C 10.304 103.552,10.424 103.680,10.420 104.899 C 10.414 106.852,12.025 107.632,13.500 106.391 L 14.026 105.948 13.983 102.563 C 13.942 99.416,13.962 99.152,14.261 98.820 C 14.564 98.485,14.587 98.482,14.641 98.773 C 14.673 98.944,14.810 99.321,14.946 99.612 M136.042 99.599 C 136.264 99.818,136.175 100.273,135.833 100.667 C 135.650 100.878,135.498 101.208,135.496 101.401 C 135.494 101.593,135.343 102.080,135.160 102.484 C 134.862 103.140,134.847 103.323,135.020 104.200 C 135.331 105.784,134.273 106.535,132.542 105.958 C 132.200 105.844,132.590 105.023,133.260 104.445 C 133.667 104.094,134.000 103.701,134.000 103.571 C 134.000 103.157,132.834 102.006,132.456 102.046 C 131.770 102.119,131.138 100.826,131.574 100.240 C 131.927 99.765,132.550 100.161,133.563 101.505 C 134.010 102.098,134.428 102.604,134.493 102.630 C 134.716 102.717,135.000 101.378,135.000 100.244 C 135.000 98.839,135.441 98.089,135.745 98.976 C 135.839 99.251,135.973 99.531,136.042 99.599 M166.917 104.833 L 168.327 104.833 168.683 104.125 C 169.536 102.428,170.265 102.375,171.063 103.950 C 171.864 105.532,171.160 106.336,169.489 105.746 C 168.836 105.516,168.716 105.518,168.191 105.767 C 167.332 106.174,165.383 106.014,164.968 105.501 C 164.462 104.877,164.520 99.673,165.042 98.942 L 165.417 98.417 165.462 101.625 L 165.507 104.833 166.917 104.833 M181.250 104.788 L 184.083 104.825 183.508 104.330 C 182.860 103.773,182.111 103.577,181.250 103.739 C 180.556 103.869,180.518 103.709,181.094 103.087 C 181.657 102.481,182.699 102.557,183.606 103.271 C 183.941 103.534,184.673 104.016,185.233 104.341 C 186.270 104.943,186.630 105.543,186.140 105.854 C 185.821 106.056,179.205 106.032,178.464 105.826 C 177.635 105.596,177.502 105.070,177.501 102.010 C 177.500 99.787,177.529 99.562,177.875 99.056 L 178.250 98.508 178.333 101.629 L 178.417 104.750 181.250 104.788 M293.157 99.738 C 293.302 99.913,293.308 100.069,293.178 100.312 C 293.074 100.506,293.000 101.690,293.000 103.150 C 293.000 106.056,293.033 106.000,291.337 106.000 C 290.164 106.000,289.500 105.541,289.500 104.732 C 289.500 104.302,289.486 104.294,289.186 104.566 C 288.675 105.028,287.333 104.434,287.333 103.744 C 287.333 103.437,288.430 102.211,288.813 102.090 C 288.971 102.040,289.195 101.736,289.311 101.416 C 289.655 100.463,289.779 100.731,289.904 102.701 C 290.047 104.966,289.968 104.833,291.177 104.833 L 292.167 104.833 292.150 102.542 C 292.141 101.281,292.077 100.063,292.009 99.833 C 291.911 99.509,291.980 99.313,292.316 98.948 L 292.749 98.479 292.853 98.989 C 292.911 99.269,293.047 99.606,293.157 99.738 M325.568 105.250 C 325.069 106.012,325.000 105.689,325.000 102.577 C 325.000 99.634,325.018 99.462,325.375 98.979 L 325.750 98.471 325.795 101.653 C 325.834 104.369,325.801 104.895,325.568 105.250 M50.488 104.796 L 53.226 104.842 52.905 104.487 C 52.316 103.837,51.684 103.619,50.715 103.733 L 49.823 103.838 50.072 103.356 C 50.617 102.302,51.771 102.388,53.265 103.594 C 53.639 103.897,54.296 104.315,54.723 104.522 C 55.548 104.923,55.827 105.672,55.236 105.899 C 54.195 106.299,47.439 105.934,47.139 105.461 C 46.843 104.995,46.977 99.302,47.292 98.953 C 47.571 98.644,47.587 98.762,47.667 101.690 L 47.750 104.750 50.488 104.796 M290.664 99.379 C 290.657 99.955,290.364 100.090,289.818 99.767 C 289.333 99.481,289.276 99.478,289.136 99.727 C 288.834 100.268,287.702 99.704,287.924 99.124 C 288.062 98.764,288.391 98.754,288.911 99.095 C 289.283 99.339,289.322 99.333,289.494 99.010 C 289.700 98.627,290.670 98.933,290.664 99.379 M345.380 99.227 C 346.647 99.763,347.076 101.439,346.151 102.234 L 345.718 102.607 346.182 102.873 C 348.142 103.998,346.266 107.240,343.944 106.740 C 342.398 106.407,341.081 104.333,342.417 104.333 C 342.727 104.333,342.833 104.421,342.833 104.679 C 342.833 105.368,343.761 106.054,344.549 105.948 C 346.424 105.696,346.507 103.429,344.652 103.181 C 343.725 103.058,343.424 102.333,344.299 102.333 C 345.679 102.333,346.209 100.634,345.024 100.010 C 344.207 99.579,343.266 100.020,343.019 100.948 C 342.839 101.625,342.166 101.709,342.167 101.053 C 342.169 99.581,343.897 98.599,345.380 99.227 M27.008 99.588 C 27.561 99.874,27.594 99.974,27.278 100.407 C 27.063 100.701,27.041 100.701,26.591 100.406 C 26.140 100.111,26.120 100.111,25.897 100.415 C 25.547 100.893,24.392 100.347,24.667 99.833 C 24.881 99.434,25.135 99.413,25.624 99.756 C 25.961 99.992,26.006 99.985,26.202 99.673 C 26.455 99.267,26.400 99.273,27.008 99.588 M52.458 100.123 C 52.613 100.590,52.060 100.873,51.530 100.599 C 50.958 100.303,50.904 100.158,51.178 99.646 C 51.357 99.311,52.305 99.664,52.458 100.123 M148.008 99.588 C 148.561 99.874,148.594 99.974,148.278 100.407 C 148.063 100.701,148.041 100.701,147.591 100.406 C 147.140 100.111,147.120 100.111,146.897 100.415 C 146.547 100.893,145.392 100.347,145.667 99.833 C 145.881 99.434,146.135 99.413,146.624 99.756 C 146.961 99.992,147.006 99.985,147.202 99.673 C 147.455 99.267,147.400 99.273,148.008 99.588 M183.328 100.141 C 183.301 100.689,182.830 100.884,182.265 100.580 C 181.707 100.279,181.698 100.257,181.930 99.808 L 182.169 99.346 182.751 99.689 C 183.071 99.878,183.331 100.082,183.328 100.141 M304.365 99.640 C 304.602 99.283,304.612 99.282,305.126 99.586 C 305.623 99.879,305.653 100.155,305.239 100.641 C 305.212 100.673,304.955 100.561,304.667 100.391 C 304.171 100.099,304.136 100.098,303.981 100.375 C 303.773 100.744,303.520 100.739,303.023 100.357 C 302.342 99.833,302.859 99.219,303.598 99.675 L 304.125 100.001 304.365 99.640 M334.798 100.428 C 334.554 100.964,334.462 100.952,333.362 100.232 C 333.331 100.212,333.430 100.007,333.581 99.777 L 333.856 99.358 334.419 99.690 C 334.929 99.991,334.965 100.061,334.798 100.428 M127.183 100.953 C 127.722 101.271,127.772 101.458,127.440 101.913 C 127.228 102.203,126.167 101.770,126.167 101.394 C 126.167 100.780,126.584 100.599,127.183 100.953 M160.508 100.921 C 161.050 101.201,161.115 101.445,160.773 101.913 C 160.554 102.213,160.530 102.210,160.023 101.850 C 159.425 101.424,159.431 101.439,159.707 100.998 C 159.954 100.602,159.901 100.607,160.508 100.921 M27.338 102.342 C 27.515 102.690,27.710 103.393,27.770 103.904 L 27.879 104.833 28.851 104.833 L 29.824 104.833 30.257 103.917 C 30.971 102.408,31.944 102.553,32.599 104.268 C 33.156 105.725,32.504 106.297,30.906 105.754 C 30.097 105.479,30.006 105.477,29.647 105.729 C 29.311 105.964,28.633 106.000,24.580 106.000 L 19.900 106.000 19.702 106.549 C 19.065 108.309,16.962 108.918,15.693 107.711 C 14.827 106.887,14.788 106.523,15.625 107.071 C 16.561 107.683,17.028 107.743,17.888 107.363 C 19.085 106.834,19.514 105.848,18.554 105.836 C 17.453 105.822,17.580 103.455,18.718 102.766 C 19.133 102.515,19.761 103.246,19.915 104.157 L 20.029 104.833 21.265 104.833 C 22.591 104.833,22.675 104.764,22.238 104.025 C 21.968 103.568,22.129 102.667,22.480 102.667 C 22.654 102.667,23.167 104.059,23.167 104.530 C 23.167 104.803,23.328 104.832,24.792 104.825 C 26.405 104.816,26.412 104.814,25.807 104.563 C 24.766 104.131,24.868 102.895,26.024 101.922 C 26.619 101.422,26.917 101.517,27.338 102.342 M44.993 103.088 C 45.630 105.613,45.503 105.958,43.858 106.186 C 42.313 106.400,41.738 106.173,41.775 105.366 C 41.814 104.521,42.018 104.148,42.158 104.667 C 42.269 105.079,44.251 105.305,44.609 104.946 C 44.737 104.819,44.176 102.859,43.977 102.736 C 43.904 102.691,43.969 102.394,44.121 102.075 C 44.473 101.336,44.584 101.465,44.993 103.088 M148.408 102.528 C 148.563 102.915,148.733 103.592,148.785 104.033 L 148.880 104.833 149.852 104.833 L 150.824 104.833 151.257 103.917 C 151.971 102.408,152.944 102.553,153.599 104.268 C 154.156 105.725,153.504 106.297,151.906 105.754 C 151.097 105.479,151.006 105.477,150.647 105.729 C 150.311 105.964,149.633 106.000,145.580 106.000 L 140.900 106.000 140.702 106.549 C 140.065 108.309,137.962 108.918,136.693 107.711 C 135.827 106.887,135.788 106.523,136.625 107.071 C 137.561 107.683,138.028 107.743,138.888 107.363 C 140.085 106.834,140.514 105.848,139.554 105.836 C 138.792 105.826,138.501 104.549,139.044 103.599 C 139.784 102.306,140.455 102.460,140.853 104.015 L 141.063 104.833 142.365 104.833 C 143.766 104.833,143.895 104.733,143.400 104.027 C 143.132 103.645,143.327 102.667,143.671 102.667 C 143.826 102.667,144.333 104.093,144.333 104.530 C 144.333 104.802,144.492 104.832,145.875 104.825 C 147.414 104.816,147.416 104.816,146.807 104.563 C 145.763 104.130,145.868 102.895,147.032 101.915 C 147.655 101.391,148.018 101.553,148.408 102.528 M175.731 102.750 C 176.448 105.546,176.334 105.911,174.658 106.181 C 172.821 106.477,172.217 106.060,172.629 104.780 C 172.766 104.355,172.803 104.323,172.816 104.622 C 172.837 105.077,173.375 105.243,174.441 105.123 C 175.517 105.001,175.573 104.882,175.123 103.643 C 174.771 102.673,174.755 102.512,174.959 102.010 C 175.243 101.316,175.402 101.469,175.731 102.750 M305.578 102.700 C 305.718 103.173,305.833 103.850,305.833 104.205 L 305.833 104.849 306.874 104.800 C 307.910 104.750,307.917 104.747,308.225 104.083 C 308.991 102.434,309.773 102.390,310.563 103.950 C 311.368 105.539,310.674 106.323,308.976 105.744 C 308.303 105.515,308.176 105.515,307.738 105.743 C 307.335 105.954,306.449 105.998,302.643 105.999 L 298.035 106.000 297.643 106.791 C 296.733 108.624,294.625 108.894,293.380 107.337 C 292.997 106.857,293.138 106.620,293.594 106.978 C 294.734 107.876,295.909 107.777,296.849 106.707 L 297.381 106.100 296.728 105.823 C 295.719 105.394,295.545 104.836,296.080 103.742 C 296.819 102.232,298.000 102.637,298.000 104.400 C 298.000 104.832,298.003 104.833,299.408 104.833 L 300.816 104.833 300.642 104.333 C 300.546 104.058,300.400 103.791,300.318 103.740 C 300.235 103.689,300.285 103.422,300.428 103.145 C 300.776 102.472,301.083 102.733,301.351 103.930 L 301.553 104.833 302.985 104.827 C 304.358 104.821,304.395 104.811,303.881 104.587 C 303.128 104.260,303.005 103.648,303.503 102.711 C 304.269 101.267,305.151 101.262,305.578 102.700 M323.148 103.323 C 323.755 105.746,323.675 105.928,321.885 106.192 C 320.031 106.465,319.563 106.095,319.951 104.667 L 320.065 104.250 320.166 104.667 C 320.262 105.059,320.333 105.083,321.376 105.083 C 322.839 105.083,322.899 104.998,322.424 103.586 C 322.061 102.510,322.051 102.385,322.285 101.932 C 322.601 101.322,322.677 101.444,323.148 103.323 M288.685 102.876 L 288.119 103.225 288.495 103.529 C 289.101 104.020,289.333 103.919,289.333 103.167 C 289.333 102.800,289.315 102.506,289.292 102.514 C 289.269 102.521,288.996 102.685,288.685 102.876 M25.935 102.980 C 25.654 103.290,25.669 103.316,26.364 103.731 C 27.174 104.214,27.341 104.079,26.888 103.303 C 26.502 102.642,26.302 102.574,25.935 102.980 M146.910 102.947 C 146.597 103.260,146.721 103.413,147.708 103.934 C 148.276 104.233,148.317 103.999,147.835 103.208 C 147.460 102.593,147.307 102.550,146.910 102.947 M304.033 102.867 C 303.701 103.199,303.804 103.424,304.422 103.719 C 305.288 104.132,305.377 104.072,305.000 103.333 C 304.650 102.647,304.382 102.518,304.033 102.867 M330.252 102.943 C 330.595 103.285,330.833 103.895,330.833 104.428 L 330.833 104.833 333.292 104.827 L 335.750 104.820 335.174 104.328 C 334.526 103.773,333.776 103.578,332.917 103.739 C 332.228 103.868,332.184 103.709,332.742 103.108 C 333.418 102.378,334.408 102.560,335.833 103.674 C 336.154 103.925,336.754 104.314,337.167 104.538 C 337.953 104.965,338.163 105.353,337.827 105.758 C 337.663 105.955,336.997 106.000,334.247 106.000 L 330.869 106.000 330.476 106.791 C 329.660 108.436,327.922 108.864,326.667 107.731 C 325.907 107.044,325.705 106.411,326.427 106.978 C 327.665 107.953,329.279 107.681,329.975 106.381 C 330.147 106.059,330.109 106.007,329.580 105.832 C 328.677 105.534,328.398 104.862,328.801 103.951 C 329.330 102.755,329.763 102.454,330.252 102.943 M39.333 103.894 C 39.654 104.306,40.086 104.737,40.294 104.851 C 40.621 105.031,40.683 105.484,40.422 105.793 C 40.402 105.817,39.664 105.859,38.781 105.885 C 36.818 105.945,36.929 105.816,37.263 107.639 C 37.527 109.082,37.493 110.215,37.179 110.409 C 37.101 110.457,36.985 110.066,36.921 109.540 C 36.857 109.014,36.700 108.133,36.571 107.583 C 36.090 105.518,36.291 105.136,37.978 104.914 L 38.872 104.797 38.446 104.370 C 38.136 104.060,37.959 103.990,37.801 104.112 C 36.901 104.811,36.724 104.243,37.576 103.390 C 38.259 102.707,38.453 102.763,39.333 103.894 M318.833 105.418 C 318.833 105.772,318.498 105.900,317.700 105.851 C 317.298 105.826,316.593 105.858,316.132 105.921 L 315.296 106.036 315.399 106.643 C 315.796 108.965,315.829 109.513,315.606 110.044 L 315.378 110.583 315.258 109.750 C 315.192 109.292,314.992 108.282,314.813 107.506 C 314.374 105.594,314.509 105.254,315.808 104.998 C 316.326 104.896,316.810 104.797,316.882 104.779 C 316.955 104.760,316.858 104.577,316.667 104.372 C 316.339 104.020,316.291 104.013,315.826 104.254 C 315.078 104.641,315.156 104.023,315.943 103.332 L 316.553 102.797 317.693 103.993 C 318.320 104.650,318.833 105.291,318.833 105.418 M129.592 103.911 C 130.497 106.078,129.277 108.129,126.908 108.425 C 124.540 108.721,123.563 107.497,124.491 105.397 C 124.906 104.461,125.041 104.493,124.820 105.475 C 124.488 106.955,125.548 107.721,127.399 107.337 C 129.090 106.986,129.558 106.178,128.844 104.838 C 128.540 104.267,128.541 104.253,128.893 103.805 C 129.343 103.234,129.306 103.228,129.592 103.911 M163.139 104.505 C 163.628 106.479,162.715 107.925,160.717 108.340 C 158.064 108.891,156.848 107.628,157.901 105.417 L 158.298 104.583 158.212 105.514 C 158.036 107.417,159.475 108.013,161.792 106.996 C 162.611 106.637,162.725 106.070,162.230 104.831 C 161.975 104.196,161.977 104.135,162.259 103.823 C 162.693 103.343,162.888 103.495,163.139 104.505 M30.743 104.114 C 30.481 104.376,30.483 104.408,30.773 104.621 C 31.632 105.249,32.425 105.002,31.938 104.259 C 31.616 103.768,31.146 103.711,30.743 104.114 M151.743 104.114 C 151.481 104.376,151.483 104.408,151.773 104.621 C 152.632 105.249,153.425 105.002,152.938 104.259 C 152.616 103.768,152.146 103.711,151.743 104.114 M169.367 104.033 C 169.033 104.367,169.140 104.625,169.692 104.817 C 170.433 105.075,170.667 105.046,170.667 104.692 C 170.667 104.058,169.788 103.612,169.367 104.033 M308.867 104.033 C 308.533 104.367,308.640 104.625,309.192 104.817 C 309.933 105.075,310.167 105.046,310.167 104.692 C 310.167 104.058,309.288 103.612,308.867 104.033 M18.387 104.267 C 18.275 104.559,18.585 104.827,19.042 104.831 C 19.350 104.833,19.397 104.694,19.232 104.264 C 19.101 103.921,18.519 103.923,18.387 104.267 M139.387 104.267 C 139.275 104.559,139.585 104.827,140.042 104.831 C 140.350 104.833,140.397 104.694,140.232 104.264 C 140.101 103.921,139.519 103.923,139.387 104.267 M296.500 104.319 C 296.500 104.663,297.225 104.998,297.460 104.762 C 297.645 104.578,297.241 104.087,296.858 104.030 C 296.591 103.990,296.500 104.064,296.500 104.319 M329.333 104.319 C 329.333 104.663,330.058 104.998,330.294 104.762 C 330.478 104.578,330.074 104.087,329.691 104.030 C 329.424 103.990,329.333 104.064,329.333 104.319 M133.942 104.471 C 133.567 104.886,133.596 105.033,134.042 104.970 C 134.283 104.936,134.436 104.783,134.470 104.542 C 134.534 104.088,134.316 104.059,133.942 104.471 M22.331 108.213 C 22.324 108.788,22.040 108.914,21.418 108.617 C 20.828 108.336,20.805 108.236,21.209 107.713 C 21.401 107.465,22.335 107.882,22.331 108.213 M143.558 108.126 C 143.829 108.564,143.164 108.894,142.575 108.613 C 141.995 108.336,141.973 108.235,142.376 107.713 C 142.533 107.510,143.355 107.797,143.558 108.126 M300.175 107.754 C 300.698 108.025,300.792 108.308,300.467 108.633 C 299.998 109.102,299.011 108.436,299.319 107.859 C 299.549 107.431,299.550 107.431,300.175 107.754 " stroke="none" fill="#ffffff" fill-rule="evenodd"></path></g></svg>