<svg id="svg" version="1.1" width="400" height="187.8609310548026" xmlns="http://www.w3.org/2000/svg" xmlns:xlink="http://www.w3.org/1999/xlink" style="display: block;"><g id="svgg"><path id="path0" d="M285.251 76.797 L 285.298 150.963 313.659 151.010 L 342.020 151.058 347.572 148.819 C 355.499 145.622,359.892 143.845,362.799 142.657 C 364.194 142.087,367.703 140.666,370.597 139.499 C 378.923 136.140,383.551 134.269,386.285 133.155 C 387.680 132.586,390.427 131.469,392.391 130.673 C 396.972 128.814,396.630 129.018,396.417 128.278 C 396.311 127.909,396.242 108.633,396.242 79.428 C 396.242 38.918,396.201 31.188,395.987 31.188 C 395.847 31.188,395.149 30.885,394.437 30.514 C 393.725 30.143,391.916 29.202,390.418 28.423 C 388.920 27.643,387.102 26.690,386.379 26.303 C 385.655 25.917,383.964 25.029,382.621 24.331 C 379.777 22.853,377.477 21.651,372.287 18.932 C 370.221 17.849,367.346 16.347,365.899 15.595 C 364.453 14.842,361.620 13.361,359.605 12.305 C 357.590 11.249,355.054 9.921,353.969 9.355 C 344.722 4.530,342.086 3.104,342.002 2.885 C 341.921 2.672,337.218 2.630,313.554 2.630 L 285.204 2.630 285.251 76.797 M341.005 76.844 L 341.005 149.930 313.574 149.930 L 286.144 149.930 286.144 76.844 L 286.144 3.758 313.574 3.758 L 341.005 3.758 341.005 76.844 M345.120 5.854 C 346.732 6.697,348.643 7.699,349.366 8.082 C 350.089 8.464,351.949 9.435,353.499 10.240 C 355.049 11.045,357.797 12.483,359.605 13.436 C 361.414 14.389,364.162 15.825,365.712 16.627 C 367.262 17.429,370.094 18.908,372.006 19.914 C 375.915 21.972,378.510 23.327,382.621 25.458 C 384.171 26.261,385.693 27.065,386.003 27.245 C 386.313 27.425,388.257 28.440,390.324 29.500 C 392.391 30.560,394.357 31.592,394.692 31.793 L 395.303 32.158 395.303 80.302 L 395.303 128.446 393.565 129.129 C 392.609 129.505,390.178 130.484,388.163 131.303 C 384.419 132.826,380.370 134.466,371.724 137.961 C 369.037 139.047,365.486 140.484,363.833 141.155 C 355.521 144.527,352.327 145.824,347.675 147.714 C 344.885 148.848,342.454 149.820,342.273 149.875 C 341.961 149.969,341.945 146.418,341.945 77.147 C 341.945 37.093,342.000 4.321,342.067 4.321 C 342.134 4.321,343.508 5.011,345.120 5.854 M135.321 89.291 L 135.369 150.963 159.084 151.011 L 182.800 151.058 186.233 149.669 C 195.895 145.759,198.942 144.527,201.691 143.421 C 203.344 142.756,204.866 142.132,205.073 142.036 C 205.279 141.939,207.435 141.062,209.864 140.086 C 212.292 139.111,215.843 137.679,217.755 136.904 C 219.667 136.129,222.704 134.897,224.505 134.167 C 226.306 133.437,227.828 132.775,227.887 132.695 C 227.946 132.616,227.973 114.276,227.947 91.941 L 227.899 51.332 227.408 51.209 C 227.138 51.141,225.511 50.341,223.792 49.432 C 222.073 48.522,219.399 47.120,217.849 46.316 C 216.299 45.513,213.466 44.033,211.555 43.027 C 209.643 42.021,206.895 40.583,205.449 39.830 C 204.002 39.077,201.170 37.598,199.155 36.541 C 197.140 35.485,194.307 34.007,192.860 33.256 C 185.926 29.656,183.073 28.119,182.882 27.880 C 182.706 27.659,178.978 27.619,158.974 27.619 L 135.274 27.619 135.321 89.291 M181.682 89.244 L 181.682 149.930 159.042 149.930 L 136.402 149.930 136.402 89.244 L 136.402 28.558 159.042 28.558 L 181.682 28.558 181.682 89.244 M184.571 30.037 C 185.932 30.778,188.144 31.936,192.860 34.380 C 194.307 35.129,196.167 36.102,196.994 36.541 C 198.814 37.509,201.494 38.911,205.261 40.866 C 206.811 41.671,209.389 43.022,210.991 43.870 C 212.593 44.717,215.552 46.265,217.567 47.310 C 219.582 48.355,222.499 49.881,224.049 50.701 L 226.867 52.191 226.867 92.156 L 226.867 132.120 224.800 132.962 C 221.065 134.483,216.050 136.517,210.991 138.560 C 202.549 141.971,196.336 144.486,194.176 145.368 C 193.039 145.831,190.587 146.826,188.727 147.577 C 186.867 148.329,184.819 149.165,184.177 149.437 C 183.534 149.708,182.963 149.930,182.908 149.930 C 182.854 149.930,182.809 122.790,182.809 89.620 C 182.809 45.011,182.864 29.310,183.021 29.310 C 183.137 29.310,183.835 29.637,184.571 30.037 M3.758 101.454 L 3.758 151.053 22.844 151.102 L 41.930 151.151 45.249 149.814 C 49.911 147.936,58.809 144.333,69.328 140.063 C 71.550 139.161,74.467 137.983,75.810 137.445 C 78.186 136.494,78.252 136.453,78.225 135.918 C 78.209 135.616,78.188 120.890,78.178 103.194 C 78.167 85.498,78.092 71.019,78.009 71.019 C 77.927 71.019,75.158 69.597,71.856 67.859 C 68.554 66.121,64.415 63.953,62.659 63.041 C 60.902 62.130,58.070 60.650,56.364 59.752 C 54.659 58.855,52.461 57.714,51.480 57.217 C 50.498 56.720,49.610 56.252,49.507 56.176 C 49.403 56.101,47.713 55.212,45.749 54.199 C 43.786 53.187,42.112 52.245,42.029 52.107 C 41.905 51.899,38.541 51.855,22.818 51.855 L 3.758 51.855 3.758 101.454 M40.958 101.456 L 40.958 150.117 22.828 150.117 L 4.697 150.117 4.697 101.581 C 4.697 74.886,4.753 52.989,4.822 52.920 C 4.891 52.851,13.050 52.795,22.953 52.795 L 40.958 52.795 40.958 101.456 M45.071 54.981 C 46.581 55.770,48.746 56.901,49.883 57.495 C 51.019 58.088,53.682 59.483,55.801 60.595 C 57.919 61.706,60.498 63.057,61.531 63.596 C 64.949 65.380,73.336 69.762,75.247 70.763 L 77.125 71.748 77.173 103.773 C 77.211 129.293,77.173 135.816,76.985 135.890 C 76.487 136.084,64.992 140.734,62.940 141.571 C 61.752 142.056,59.004 143.165,56.834 144.036 C 54.664 144.907,52.720 145.698,52.513 145.795 C 51.533 146.252,42.692 149.794,42.320 149.878 L 41.898 149.973 41.898 101.760 C 41.898 65.793,41.952 53.546,42.112 53.546 C 42.230 53.546,43.561 54.192,45.071 54.981 M177.045 165.759 C 176.505 166.359,176.388 166.804,176.648 167.275 C 176.772 167.500,176.852 167.827,176.825 168.002 C 176.787 168.251,177.024 168.174,177.914 167.645 C 178.930 167.042,179.542 166.235,178.753 166.537 C 177.956 166.843,176.984 166.885,176.984 166.613 C 176.984 166.326,177.574 165.959,178.190 165.862 C 178.388 165.831,178.586 165.700,178.629 165.571 C 178.773 165.136,177.466 165.291,177.045 165.759 M355.472 165.755 C 354.983 166.280,354.795 166.989,355.072 167.266 C 355.189 167.382,355.284 167.687,355.284 167.943 L 355.284 168.407 355.715 168.003 C 355.952 167.780,356.410 167.506,356.733 167.393 C 357.274 167.205,357.671 166.720,357.459 166.508 C 357.410 166.460,357.099 166.514,356.769 166.629 C 355.946 166.916,355.472 166.892,355.472 166.564 C 355.472 166.231,356.105 165.863,356.548 165.939 C 356.731 165.970,356.896 165.853,356.935 165.665 C 357.039 165.161,355.964 165.227,355.472 165.755 M21.935 166.947 C 21.858 167.025,21.794 167.324,21.794 167.611 C 21.794 168.313,21.433 168.495,21.029 167.996 C 20.594 167.459,20.479 167.484,20.479 168.116 C 20.479 168.787,20.135 169.166,19.788 168.878 C 19.652 168.765,19.540 168.538,19.540 168.375 C 19.540 168.160,19.483 168.135,19.333 168.286 C 19.210 168.409,19.178 168.730,19.254 169.075 C 19.407 169.771,20.039 169.872,20.570 169.284 C 20.798 169.033,21.047 168.947,21.335 169.019 C 21.648 169.097,21.821 169.019,21.977 168.727 C 22.207 168.298,22.169 166.709,21.935 166.947 M316.253 167.060 C 316.125 167.216,316.069 167.392,316.130 167.453 C 316.317 167.640,316.005 168.342,315.735 168.342 C 315.594 168.342,315.425 168.173,315.359 167.966 C 315.184 167.414,314.890 167.509,314.890 168.116 C 314.890 168.787,314.546 169.166,314.199 168.878 C 314.062 168.765,313.950 168.538,313.950 168.375 C 313.950 168.160,313.894 168.135,313.743 168.286 C 313.621 168.409,313.588 168.730,313.664 169.075 C 313.818 169.776,314.450 169.871,314.990 169.275 C 315.180 169.064,315.447 168.935,315.582 168.987 C 316.230 169.235,316.716 168.341,316.550 167.208 C 316.495 166.836,316.455 166.816,316.253 167.060 M57.915 168.924 C 57.229 169.752,57.261 176.771,57.953 177.463 L 58.414 177.924 63.589 177.924 L 68.765 177.924 68.765 177.286 C 68.765 176.707,68.674 176.601,67.778 176.135 C 67.236 175.852,66.496 175.389,66.134 175.105 C 64.001 173.432,62.452 173.312,61.703 174.760 L 61.402 175.343 61.936 175.183 C 63.320 174.769,65.399 175.424,65.712 176.374 C 65.779 176.577,58.742 176.762,58.581 176.562 C 58.561 176.536,58.497 174.692,58.440 172.464 L 58.337 168.413 57.915 168.924 M177.689 168.884 L 177.172 169.498 177.172 173.617 C 177.172 177.962,177.204 178.117,177.881 177.073 C 178.295 176.433,178.306 176.301,178.256 172.342 L 178.206 168.269 177.689 168.884 M197.229 168.923 L 196.712 169.599 196.713 172.869 C 196.715 178.284,196.289 177.948,203.073 177.880 L 208.079 177.830 208.135 177.261 C 208.185 176.748,208.102 176.649,207.289 176.256 C 206.794 176.016,205.817 175.397,205.120 174.881 C 203.281 173.521,201.720 173.396,201.117 174.562 C 200.742 175.287,200.771 175.311,201.719 175.058 C 202.686 174.800,203.888 175.201,204.704 176.053 L 205.245 176.617 201.589 176.566 L 197.933 176.515 197.839 172.381 L 197.745 168.248 197.229 168.923 M356.083 168.899 C 355.672 169.419,355.660 169.558,355.668 173.632 L 355.675 177.830 356.231 177.179 L 356.787 176.529 356.787 172.435 C 356.787 168.149,356.764 168.034,356.083 168.899 M375.622 168.910 C 375.016 169.662,374.964 176.651,375.559 177.386 L 375.917 177.830 381.195 177.885 L 386.473 177.941 386.473 177.278 C 386.473 176.667,386.395 176.576,385.486 176.116 C 384.944 175.841,384.162 175.343,383.748 175.009 C 381.807 173.439,380.144 173.343,379.411 174.760 L 379.110 175.343 379.644 175.183 C 380.731 174.857,381.715 174.992,382.550 175.580 C 383.974 176.584,383.872 176.623,379.961 176.566 L 376.421 176.515 376.370 172.575 C 376.315 168.340,376.268 168.108,375.622 168.910 M34.984 169.931 C 34.606 170.761,36.026 171.574,36.455 170.773 L 36.662 170.386 37.345 170.789 C 38.375 171.397,39.050 170.426,38.053 169.773 C 37.433 169.367,37.063 169.390,36.919 169.845 C 36.771 170.311,36.683 170.311,35.979 169.845 C 35.266 169.372,35.237 169.375,34.984 169.931 M63.158 169.948 C 62.868 170.585,62.855 170.550,63.551 170.974 C 64.339 171.455,64.382 171.449,64.710 170.813 C 64.983 170.287,64.976 170.272,64.267 169.874 C 63.376 169.373,63.421 169.370,63.158 169.948 M171.198 169.931 C 170.819 170.762,172.197 171.510,172.703 170.749 L 172.976 170.338 173.597 170.781 C 174.238 171.237,174.730 171.029,174.730 170.300 C 174.730 169.658,173.320 169.256,173.133 169.845 C 172.985 170.311,172.897 170.311,172.194 169.845 C 171.480 169.372,171.451 169.375,171.198 169.931 M202.464 169.932 C 202.069 170.535,202.059 170.503,202.793 170.957 C 203.606 171.459,203.745 171.449,204.009 170.870 C 204.294 170.246,204.325 170.315,203.559 169.864 C 202.741 169.381,202.829 169.376,202.464 169.932 M349.680 169.863 C 349.199 170.633,350.567 171.540,351.088 170.796 L 351.369 170.396 352.021 170.800 C 352.380 171.022,352.700 171.172,352.732 171.135 C 353.212 170.575,353.240 170.145,352.817 169.820 C 352.231 169.369,351.775 169.381,351.522 169.853 L 351.316 170.238 350.695 169.853 C 349.935 169.384,349.980 169.383,349.680 169.863 M380.919 169.929 C 380.562 170.474,380.656 170.682,381.442 171.088 C 382.003 171.378,382.037 171.373,382.366 170.946 C 382.835 170.335,382.815 170.280,381.968 169.848 L 381.222 169.467 380.919 169.929 M307.420 170.594 C 307.109 171.091,307.100 171.068,307.795 171.508 L 308.403 171.893 308.814 171.508 C 309.217 171.129,309.235 171.128,309.816 171.470 C 310.408 171.818,310.944 171.563,310.944 170.933 C 310.944 170.453,309.583 170.124,309.308 170.538 C 309.035 170.948,309.035 170.948,308.440 170.585 C 307.705 170.137,307.705 170.137,307.420 170.594 M297.252 171.654 C 297.128 171.926,297.051 172.165,297.081 172.185 C 297.111 172.205,297.401 172.405,297.727 172.630 C 298.485 173.152,298.624 173.144,298.890 172.560 C 299.174 171.936,299.200 172.000,298.475 171.551 C 297.658 171.047,297.523 171.058,297.252 171.654 M36.408 173.005 C 35.139 174.410,35.088 175.532,36.267 176.142 C 37.088 176.567,36.989 176.609,35.158 176.609 L 33.491 176.609 33.369 175.690 C 33.112 173.752,32.084 173.299,31.107 174.693 C 30.074 176.165,30.457 177.561,31.975 177.865 C 33.306 178.131,31.317 180.178,29.728 180.178 C 29.166 180.178,27.726 179.565,27.526 179.240 C 27.221 178.748,27.076 179.124,27.373 179.636 C 28.719 181.956,32.242 181.413,33.158 178.744 L 33.407 178.018 36.102 177.924 L 38.798 177.830 38.858 176.703 C 39.047 173.160,37.871 171.386,36.408 173.005 M53.834 172.901 C 53.601 173.459,53.624 173.649,54.077 174.961 C 54.678 176.702,54.620 176.799,52.909 176.936 C 51.560 177.045,51.113 176.855,51.091 176.163 C 51.068 175.478,50.756 176.385,50.744 177.172 C 50.727 178.267,50.918 178.398,52.459 178.357 C 55.553 178.276,55.793 177.891,54.950 174.365 C 54.422 172.156,54.243 171.922,53.834 172.901 M172.814 172.804 C 171.405 174.310,171.391 175.502,172.774 176.363 C 173.070 176.547,172.865 176.589,171.604 176.598 L 170.075 176.609 169.948 175.932 C 169.509 173.596,168.313 173.134,167.389 174.945 C 166.679 176.335,167.296 177.924,168.544 177.924 C 169.370 177.924,168.592 179.196,167.392 179.808 C 166.408 180.310,165.796 180.270,164.631 179.628 C 164.089 179.329,163.645 179.115,163.645 179.153 C 163.645 179.525,164.196 180.208,164.825 180.616 C 166.665 181.809,169.202 180.683,169.731 178.441 L 169.852 177.924 172.479 177.924 L 175.106 177.924 175.101 176.374 C 175.091 173.012,174.086 171.444,172.814 172.804 M193.360 172.934 C 193.150 173.515,193.179 173.740,193.631 175.013 C 194.223 176.681,194.178 176.775,192.716 176.926 C 191.224 177.080,190.701 176.912,190.694 176.276 C 190.685 175.420,190.302 176.285,190.290 177.192 C 190.275 178.264,190.490 178.400,192.132 178.356 C 195.037 178.278,195.332 177.722,194.408 174.068 C 193.941 172.221,193.709 171.970,193.360 172.934 M351.002 173.133 C 349.813 174.484,349.801 175.538,350.968 176.142 C 351.791 176.567,351.691 176.609,349.836 176.609 L 348.145 176.609 348.145 176.085 C 348.145 174.637,346.979 173.433,346.225 174.103 C 344.754 175.411,344.942 177.541,346.556 177.844 C 347.324 177.988,347.327 178.002,346.783 178.808 C 345.745 180.342,343.725 180.554,342.272 179.280 C 341.716 178.792,341.675 179.190,342.210 179.892 C 343.809 181.988,346.987 181.280,347.878 178.631 L 348.083 178.018 350.791 177.924 L 353.499 177.830 353.497 176.045 C 353.494 172.626,352.485 171.449,351.002 173.133 M371.547 172.948 C 371.294 173.552,371.302 173.684,371.638 174.468 C 372.374 176.183,372.344 176.723,371.509 176.861 C 370.314 177.058,369.182 177.006,369.106 176.750 C 368.817 175.783,368.768 175.749,368.589 176.394 C 368.115 178.108,368.793 178.648,371.006 178.319 C 373.427 177.958,373.572 177.533,372.547 173.793 C 372.086 172.111,371.946 171.993,371.547 172.948 M304.847 174.215 C 304.568 174.879,304.572 174.965,304.929 175.663 C 305.137 176.072,305.308 176.452,305.308 176.507 C 305.308 176.563,304.562 176.609,303.650 176.609 L 301.992 176.609 301.715 175.716 C 301.402 174.709,301.099 174.602,300.568 175.312 C 300.207 175.797,300.207 175.806,300.595 176.531 C 301.396 178.025,300.967 179.223,299.491 179.607 C 296.195 180.464,294.899 179.604,295.400 176.891 L 295.539 176.139 295.065 177.031 C 293.769 179.473,294.447 180.994,296.947 181.252 C 298.990 181.463,301.550 180.040,301.853 178.525 L 301.971 177.930 306.505 177.880 L 311.038 177.830 311.097 177.110 C 311.172 176.201,310.833 174.594,310.441 173.995 L 310.141 173.537 309.790 174.221 C 309.445 174.893,309.445 174.915,309.815 175.522 C 310.452 176.567,310.392 176.609,308.248 176.609 L 306.303 176.609 305.975 175.399 C 305.488 173.600,305.223 173.321,304.847 174.215 M326.756 174.249 C 326.558 174.797,326.567 174.991,326.811 175.464 C 327.366 176.537,327.279 176.609,325.416 176.609 L 323.731 176.609 323.323 175.662 C 322.870 174.608,322.202 173.978,321.538 173.978 C 321.075 173.978,320.788 174.321,320.090 175.704 C 319.681 176.514,319.679 176.515,318.536 176.570 L 317.391 176.625 316.928 175.725 C 316.386 174.673,315.988 174.513,315.666 175.220 C 315.462 175.668,315.487 175.780,315.891 176.214 C 316.880 177.275,316.906 177.691,316.058 178.837 C 315.238 179.944,313.436 180.474,312.152 179.985 C 311.421 179.707,311.361 179.911,311.983 180.560 C 313.681 182.332,316.289 181.297,317.324 178.441 C 317.493 177.972,317.597 177.924,318.441 177.924 C 319.043 177.924,319.478 177.818,319.672 177.624 C 319.947 177.349,320.039 177.350,320.766 177.643 C 321.513 177.944,327.423 178.096,327.861 177.825 C 328.344 177.527,327.926 174.571,327.310 173.928 C 327.008 173.613,326.980 173.629,326.756 174.249 M25.222 174.071 C 23.057 175.012,21.334 177.778,22.593 178.293 C 22.825 178.388,23.500 178.519,24.093 178.584 C 25.853 178.777,25.706 179.138,23.606 179.783 C 19.514 181.040,17.964 179.211,19.920 175.434 C 20.375 174.556,20.097 174.517,19.448 175.368 C 18.789 176.232,18.224 177.909,18.225 179.000 C 18.227 181.769,20.911 182.405,24.988 180.601 C 27.099 179.668,27.207 177.852,25.176 177.457 C 23.050 177.044,22.695 176.781,23.532 176.236 C 24.451 175.639,25.480 175.277,26.104 175.331 C 26.666 175.379,26.785 175.317,26.936 174.893 C 27.309 173.845,26.564 173.488,25.222 174.071 M37.640 174.241 C 37.802 174.488,37.992 174.917,38.061 175.193 L 38.187 175.696 37.227 175.166 C 36.169 174.582,36.127 174.515,36.556 174.086 C 36.971 173.671,37.298 173.718,37.640 174.241 M161.251 174.185 C 160.156 174.727,158.620 176.442,158.459 177.304 C 158.294 178.181,158.578 178.395,160.113 178.556 C 162.086 178.762,161.871 179.296,159.578 179.883 C 155.758 180.861,154.380 179.298,155.987 175.810 C 156.487 174.725,156.448 174.442,155.886 175.064 C 155.279 175.734,154.580 177.587,154.497 178.743 C 154.285 181.712,156.623 182.429,160.948 180.721 C 163.510 179.709,163.558 177.802,161.032 177.350 C 159.392 177.057,159.165 176.932,159.512 176.514 C 159.988 175.940,161.573 175.265,162.295 175.328 C 162.883 175.380,162.997 175.322,163.150 174.893 C 163.549 173.772,162.714 173.461,161.251 174.185 M173.980 174.401 C 174.756 175.674,174.014 175.775,172.492 174.604 C 172.350 174.494,173.094 173.791,173.353 173.791 C 173.493 173.791,173.776 174.065,173.980 174.401 M339.907 174.078 C 338.317 174.769,336.782 176.609,336.906 177.678 C 336.971 178.243,337.188 178.348,338.845 178.617 C 340.239 178.843,340.079 179.227,338.375 179.747 C 334.171 181.029,332.721 179.476,334.521 175.622 C 335.032 174.528,334.811 174.466,334.065 175.495 C 332.560 177.573,332.498 180.138,333.927 181.195 C 335.010 181.996,339.175 181.280,340.649 180.039 C 341.782 179.086,341.386 177.763,339.878 177.461 C 337.506 176.986,337.311 176.730,338.704 175.913 C 339.341 175.538,339.865 175.385,340.535 175.375 C 341.368 175.362,341.494 175.306,341.644 174.879 C 342.011 173.839,341.257 173.492,339.907 174.078 M352.342 174.241 C 352.504 174.488,352.694 174.918,352.764 175.196 L 352.890 175.700 351.927 175.212 C 350.954 174.719,350.775 174.429,351.188 174.016 C 351.545 173.659,352.022 173.752,352.342 174.241 M45.257 174.708 C 44.210 175.755,44.236 176.303,45.308 175.749 C 45.853 175.467,45.904 175.473,46.332 175.875 C 46.976 176.480,46.914 176.557,45.657 176.702 C 43.634 176.937,43.319 177.484,43.891 179.765 C 44.058 180.429,44.299 181.661,44.427 182.501 L 44.660 184.030 44.970 183.331 C 45.296 182.596,45.198 181.139,44.687 179.108 C 44.406 177.992,44.523 177.930,46.927 177.927 C 49.706 177.923,49.802 177.650,47.773 175.523 C 46.059 173.727,46.195 173.771,45.257 174.708 M184.876 174.658 C 183.797 175.633,183.814 176.312,184.904 175.749 C 185.449 175.467,185.500 175.473,185.928 175.875 C 186.577 176.485,186.515 176.550,185.141 176.698 C 183.018 176.925,182.904 177.242,183.653 180.840 C 183.910 182.078,184.125 183.302,184.129 183.560 L 184.137 184.030 184.406 183.560 C 184.758 182.945,184.754 181.887,184.394 179.989 C 183.989 177.853,183.921 177.924,186.377 177.924 C 189.297 177.924,189.402 177.657,187.337 175.502 C 185.639 173.728,185.832 173.794,184.876 174.658 M363.527 174.425 C 362.306 175.501,362.155 176.241,363.250 175.783 C 363.911 175.507,363.941 175.513,364.399 176.007 L 364.870 176.515 363.572 176.711 C 361.476 177.027,361.375 177.287,362.035 180.669 C 362.234 181.691,362.456 182.865,362.529 183.279 L 362.661 184.030 362.910 183.466 C 363.247 182.701,363.230 181.884,362.833 179.945 C 362.414 177.897,362.387 177.924,364.885 177.924 L 366.896 177.924 367.085 177.383 C 367.252 176.904,367.220 176.813,366.815 176.596 C 366.563 176.461,366.043 175.966,365.659 175.496 C 364.268 173.793,364.253 173.785,363.527 174.425 M322.286 175.674 C 323.093 176.633,322.635 177.055,321.366 176.524 C 320.643 176.223,320.561 175.962,321.025 175.449 C 321.459 174.969,321.734 175.018,322.286 175.674 M32.348 175.605 C 33.079 176.266,32.615 176.883,31.740 176.414 C 31.326 176.193,31.272 175.848,31.602 175.519 C 31.893 175.228,31.938 175.233,32.348 175.605 M168.906 175.669 C 169.708 176.472,169.034 176.983,168.134 176.255 C 167.759 175.951,167.732 175.857,167.948 175.597 C 168.277 175.201,168.451 175.214,168.906 175.669 M347.359 176.208 C 347.426 176.655,347.049 176.740,346.441 176.414 C 346.028 176.193,345.974 175.848,346.302 175.520 C 346.604 175.218,347.277 175.656,347.359 176.208 M325.327 180.409 C 324.917 180.995,324.945 181.064,325.769 181.484 L 326.502 181.859 326.802 181.401 C 327.202 180.790,327.208 180.804,326.360 180.371 L 325.619 179.993 325.327 180.409 M302.410 180.591 C 302.074 181.070,302.145 181.215,302.902 181.607 C 303.486 181.909,303.643 181.844,303.864 181.212 C 303.901 181.106,304.231 181.187,304.626 181.400 C 305.233 181.727,305.345 181.739,305.502 181.493 C 305.958 180.783,304.761 179.774,304.263 180.448 C 304.006 180.795,303.963 180.798,303.342 180.501 C 302.712 180.201,302.680 180.204,302.410 180.591 M19.649 183.168 C 19.212 183.650,19.278 183.856,20.009 184.287 L 20.667 184.675 20.961 184.225 L 21.256 183.776 21.926 184.171 C 22.577 184.555,22.603 184.557,22.853 184.215 C 23.212 183.724,23.186 183.640,22.518 183.165 L 21.926 182.743 21.580 183.171 L 21.233 183.599 20.590 183.219 C 19.978 182.859,19.931 182.856,19.649 183.168 " stroke="none" fill="#000000" fill-rule="evenodd"></path><path id="path1" d="M0.000 93.941 L 0.000 187.882 200.000 187.882 L 400.000 187.882 400.000 93.941 L 400.000 0.000 200.000 0.000 L 0.000 0.000 0.000 93.941 M342.002 2.885 C 342.086 3.104,344.722 4.530,353.969 9.355 C 355.054 9.921,357.590 11.249,359.605 12.305 C 361.620 13.361,364.453 14.842,365.899 15.595 C 367.346 16.347,370.221 17.849,372.287 18.932 C 377.477 21.651,379.777 22.853,382.621 24.331 C 383.964 25.029,385.655 25.917,386.379 26.303 C 387.102 26.690,388.920 27.643,390.418 28.423 C 391.916 29.202,393.725 30.143,394.437 30.514 C 395.149 30.885,395.847 31.188,395.987 31.188 C 396.201 31.188,396.242 38.918,396.242 79.428 C 396.242 108.633,396.311 127.909,396.417 128.278 C 396.630 129.018,396.972 128.814,392.391 130.673 C 390.427 131.469,387.680 132.586,386.285 133.155 C 383.551 134.269,378.923 136.140,370.597 139.499 C 367.703 140.666,364.194 142.087,362.799 142.657 C 359.892 143.845,355.499 145.622,347.572 148.819 L 342.020 151.058 313.659 151.010 L 285.298 150.963 285.251 76.797 L 285.204 2.630 313.554 2.630 C 337.218 2.630,341.921 2.672,342.002 2.885 M286.144 76.844 L 286.144 149.930 313.574 149.930 L 341.005 149.930 341.005 76.844 L 341.005 3.758 313.574 3.758 L 286.144 3.758 286.144 76.844 M341.945 77.147 C 341.945 146.418,341.961 149.969,342.273 149.875 C 342.454 149.820,344.885 148.848,347.675 147.714 C 352.327 145.824,355.521 144.527,363.833 141.155 C 365.486 140.484,369.037 139.047,371.724 137.961 C 380.370 134.466,384.419 132.826,388.163 131.303 C 390.178 130.484,392.609 129.505,393.565 129.129 L 395.303 128.446 395.303 80.302 L 395.303 32.158 394.692 31.793 C 394.357 31.592,392.391 30.560,390.324 29.500 C 388.257 28.440,386.313 27.425,386.003 27.245 C 385.693 27.065,384.171 26.261,382.621 25.458 C 378.510 23.327,375.915 21.972,372.006 19.914 C 370.094 18.908,367.262 17.429,365.712 16.627 C 364.162 15.825,361.414 14.389,359.605 13.436 C 357.797 12.483,355.049 11.045,353.499 10.240 C 351.949 9.435,350.089 8.464,349.366 8.082 C 345.285 5.924,342.174 4.321,342.067 4.321 C 342.000 4.321,341.945 37.093,341.945 77.147 M182.882 27.880 C 183.073 28.119,185.926 29.656,192.860 33.256 C 194.307 34.007,197.140 35.485,199.155 36.541 C 201.170 37.598,204.002 39.077,205.449 39.830 C 206.895 40.583,209.643 42.021,211.555 43.027 C 213.466 44.033,216.299 45.513,217.849 46.316 C 219.399 47.120,222.073 48.522,223.792 49.432 C 225.511 50.341,227.138 51.141,227.408 51.209 L 227.899 51.332 227.947 91.941 C 227.973 114.276,227.946 132.616,227.887 132.695 C 227.828 132.775,226.306 133.437,224.505 134.167 C 222.704 134.897,219.667 136.129,217.755 136.904 C 215.843 137.679,212.292 139.111,209.864 140.086 C 207.435 141.062,205.279 141.939,205.073 142.036 C 204.866 142.132,203.344 142.756,201.691 143.421 C 198.942 144.527,195.895 145.759,186.233 149.669 L 182.800 151.058 159.084 151.011 L 135.369 150.963 135.321 89.291 L 135.274 27.619 158.974 27.619 C 178.978 27.619,182.706 27.659,182.882 27.880 M136.402 89.244 L 136.402 149.930 159.042 149.930 L 181.682 149.930 181.682 89.244 L 181.682 28.558 159.042 28.558 L 136.402 28.558 136.402 89.244 M182.809 89.620 C 182.809 122.790,182.854 149.930,182.908 149.930 C 182.963 149.930,183.534 149.708,184.177 149.437 C 184.819 149.165,186.867 148.329,188.727 147.577 C 190.587 146.826,193.039 145.831,194.176 145.368 C 196.336 144.486,202.549 141.971,210.991 138.560 C 216.050 136.517,221.065 134.483,224.800 132.962 L 226.867 132.120 226.867 92.156 L 226.867 52.191 224.049 50.701 C 222.499 49.881,219.582 48.355,217.567 47.310 C 215.552 46.265,212.593 44.717,210.991 43.870 C 209.389 43.022,206.811 41.671,205.261 40.866 C 201.494 38.911,198.814 37.509,196.994 36.541 C 196.167 36.102,194.307 35.129,192.860 34.380 C 188.144 31.936,185.932 30.778,184.571 30.037 C 183.835 29.637,183.137 29.310,183.021 29.310 C 182.864 29.310,182.809 45.011,182.809 89.620 M42.029 52.107 C 42.112 52.245,43.786 53.187,45.749 54.199 C 47.713 55.212,49.403 56.101,49.507 56.176 C 49.610 56.252,50.498 56.720,51.480 57.217 C 52.461 57.714,54.659 58.855,56.364 59.752 C 58.070 60.650,60.902 62.130,62.659 63.041 C 64.415 63.953,68.554 66.121,71.856 67.859 C 75.158 69.597,77.927 71.019,78.009 71.019 C 78.092 71.019,78.167 85.498,78.178 103.194 C 78.188 120.890,78.209 135.616,78.225 135.918 C 78.252 136.453,78.186 136.494,75.810 137.445 C 74.467 137.983,71.550 139.161,69.328 140.063 C 58.809 144.333,49.911 147.936,45.249 149.814 L 41.930 151.151 22.844 151.102 L 3.758 151.053 3.758 101.454 L 3.758 51.855 22.818 51.855 C 38.541 51.855,41.905 51.899,42.029 52.107 M4.822 52.920 C 4.753 52.989,4.697 74.886,4.697 101.581 L 4.697 150.117 22.828 150.117 L 40.958 150.117 40.958 101.456 L 40.958 52.795 22.953 52.795 C 13.050 52.795,4.891 52.851,4.822 52.920 M41.898 101.760 L 41.898 149.973 42.320 149.878 C 42.692 149.794,51.533 146.252,52.513 145.795 C 52.720 145.698,54.664 144.907,56.834 144.036 C 59.004 143.165,61.752 142.056,62.940 141.571 C 64.992 140.734,76.487 136.084,76.985 135.890 C 77.173 135.816,77.211 129.293,77.173 103.773 L 77.125 71.748 75.247 70.763 C 73.336 69.762,64.949 65.380,61.531 63.596 C 60.498 63.057,57.919 61.706,55.801 60.595 C 53.682 59.483,51.019 58.088,49.883 57.495 C 48.746 56.901,46.581 55.770,45.071 54.981 C 43.561 54.192,42.230 53.546,42.112 53.546 C 41.952 53.546,41.898 65.793,41.898 101.760 M178.629 165.571 C 178.586 165.700,178.388 165.831,178.190 165.862 C 177.574 165.959,176.984 166.326,176.984 166.613 C 176.984 166.885,177.956 166.843,178.753 166.537 C 179.542 166.235,178.930 167.042,177.914 167.645 C 177.024 168.174,176.787 168.251,176.825 168.002 C 176.852 167.827,176.772 167.500,176.648 167.275 C 176.208 166.478,177.044 165.336,178.066 165.336 C 178.495 165.336,178.681 165.413,178.629 165.571 M356.935 165.665 C 356.896 165.853,356.731 165.970,356.548 165.939 C 356.105 165.863,355.472 166.231,355.472 166.564 C 355.472 166.892,355.946 166.916,356.769 166.629 C 357.099 166.514,357.410 166.460,357.459 166.508 C 357.671 166.720,357.274 167.205,356.733 167.393 C 356.410 167.506,355.952 167.780,355.715 168.003 L 355.284 168.407 355.284 167.943 C 355.284 167.687,355.189 167.382,355.072 167.266 C 354.795 166.989,354.983 166.280,355.472 165.755 C 355.964 165.227,357.039 165.161,356.935 165.665 M21.977 168.727 C 21.821 169.019,21.648 169.097,21.335 169.019 C 21.047 168.947,20.798 169.033,20.570 169.284 C 20.039 169.872,19.407 169.771,19.254 169.075 C 19.178 168.730,19.210 168.409,19.333 168.286 C 19.483 168.135,19.540 168.160,19.540 168.375 C 19.540 168.538,19.652 168.765,19.788 168.878 C 20.135 169.166,20.479 168.787,20.479 168.116 C 20.479 167.484,20.594 167.459,21.029 167.996 C 21.433 168.495,21.794 168.313,21.794 167.611 C 21.794 166.770,22.071 166.733,22.134 167.566 C 22.165 167.985,22.095 168.507,21.977 168.727 M316.498 168.254 C 316.381 168.878,316.030 169.159,315.582 168.987 C 315.447 168.935,315.180 169.064,314.990 169.275 C 314.450 169.871,313.818 169.776,313.664 169.075 C 313.588 168.730,313.621 168.409,313.743 168.286 C 313.894 168.135,313.950 168.160,313.950 168.375 C 313.950 168.538,314.062 168.765,314.199 168.878 C 314.546 169.166,314.890 168.787,314.890 168.116 C 314.890 167.509,315.184 167.414,315.359 167.966 C 315.425 168.173,315.594 168.342,315.735 168.342 C 316.005 168.342,316.317 167.640,316.130 167.453 C 316.069 167.392,316.125 167.216,316.253 167.060 C 316.549 166.701,316.674 167.313,316.498 168.254 M58.581 176.562 C 58.742 176.762,65.779 176.577,65.712 176.374 C 65.399 175.424,63.320 174.769,61.936 175.183 L 61.402 175.343 61.703 174.760 C 62.452 173.312,64.001 173.432,66.134 175.105 C 66.496 175.389,67.236 175.852,67.778 176.135 C 68.674 176.601,68.765 176.707,68.765 177.286 L 68.765 177.924 63.589 177.924 L 58.414 177.924 57.953 177.463 C 57.261 176.771,57.229 169.752,57.915 168.924 L 58.337 168.413 58.440 172.464 C 58.497 174.692,58.561 176.536,58.581 176.562 M177.881 177.073 C 177.204 178.117,177.172 177.962,177.172 173.617 L 177.172 169.498 177.689 168.884 L 178.206 168.269 178.256 172.342 C 178.306 176.301,178.295 176.433,177.881 177.073 M201.589 176.566 L 205.245 176.617 204.704 176.053 C 203.888 175.201,202.686 174.800,201.719 175.058 C 200.771 175.311,200.742 175.287,201.117 174.562 C 201.720 173.396,203.281 173.521,205.120 174.881 C 205.817 175.397,206.794 176.016,207.289 176.256 C 208.102 176.649,208.185 176.748,208.135 177.261 L 208.079 177.830 203.073 177.880 C 196.289 177.948,196.715 178.284,196.713 172.869 L 196.712 169.599 197.229 168.923 L 197.745 168.248 197.839 172.381 L 197.933 176.515 201.589 176.566 M356.787 172.435 L 356.787 176.529 356.231 177.179 L 355.675 177.830 355.668 173.632 C 355.660 169.558,355.672 169.419,356.083 168.899 C 356.764 168.034,356.787 168.149,356.787 172.435 M376.370 172.575 L 376.421 176.515 379.961 176.566 C 383.872 176.623,383.974 176.584,382.550 175.580 C 381.715 174.992,380.731 174.857,379.644 175.183 L 379.110 175.343 379.411 174.760 C 380.144 173.343,381.807 173.439,383.748 175.009 C 384.162 175.343,384.944 175.841,385.486 176.116 C 386.395 176.576,386.473 176.667,386.473 177.278 L 386.473 177.941 381.195 177.885 L 375.917 177.830 375.559 177.386 C 374.964 176.651,375.016 169.662,375.622 168.910 C 376.268 168.108,376.315 168.340,376.370 172.575 M35.979 169.845 C 36.683 170.311,36.771 170.311,36.919 169.845 C 37.063 169.390,37.433 169.367,38.053 169.773 C 39.050 170.426,38.375 171.397,37.345 170.789 L 36.662 170.386 36.455 170.773 C 36.026 171.574,34.606 170.761,34.984 169.931 C 35.237 169.375,35.266 169.372,35.979 169.845 M64.267 169.874 C 64.945 170.255,64.968 171.351,64.298 171.347 C 64.115 171.346,62.940 170.625,62.940 170.514 C 62.940 169.639,63.429 169.403,64.267 169.874 M172.194 169.845 C 172.897 170.311,172.985 170.311,173.133 169.845 C 173.320 169.256,174.730 169.658,174.730 170.300 C 174.730 171.029,174.238 171.237,173.597 170.781 L 172.976 170.338 172.703 170.749 C 172.197 171.510,170.819 170.762,171.198 169.931 C 171.451 169.375,171.480 169.372,172.194 169.845 M203.559 169.864 C 204.325 170.315,204.294 170.246,204.009 170.870 C 203.745 171.449,203.606 171.459,202.793 170.957 C 202.059 170.503,202.069 170.535,202.464 169.932 C 202.829 169.376,202.741 169.381,203.559 169.864 M350.695 169.853 L 351.316 170.238 351.522 169.853 C 351.775 169.381,352.231 169.369,352.817 169.820 C 353.240 170.145,353.212 170.575,352.732 171.135 C 352.700 171.172,352.380 171.022,352.021 170.800 L 351.369 170.396 351.088 170.796 C 350.567 171.540,349.199 170.633,349.680 169.863 C 349.980 169.383,349.935 169.384,350.695 169.853 M382.711 170.365 C 382.692 170.992,382.009 171.381,381.442 171.088 C 380.656 170.682,380.562 170.474,380.919 169.929 L 381.222 169.467 381.968 169.848 C 382.379 170.057,382.713 170.290,382.711 170.365 M308.440 170.585 C 309.035 170.948,309.035 170.948,309.308 170.538 C 309.583 170.124,310.944 170.453,310.944 170.933 C 310.944 171.563,310.408 171.818,309.816 171.470 C 309.235 171.128,309.217 171.129,308.814 171.508 L 308.403 171.893 307.795 171.508 C 307.100 171.068,307.109 171.091,307.420 170.594 C 307.705 170.137,307.705 170.137,308.440 170.585 M298.475 171.551 C 299.200 172.000,299.174 171.936,298.890 172.560 C 298.624 173.144,298.485 173.152,297.727 172.630 C 297.401 172.405,297.111 172.205,297.081 172.185 C 296.959 172.102,297.491 171.160,297.659 171.160 C 297.760 171.160,298.127 171.336,298.475 171.551 M38.262 173.001 C 38.732 173.701,38.947 175.035,38.858 176.703 L 38.798 177.830 36.102 177.924 L 33.407 178.018 33.158 178.744 C 32.242 181.413,28.719 181.956,27.373 179.636 C 27.076 179.124,27.221 178.748,27.526 179.240 C 27.726 179.565,29.166 180.178,29.728 180.178 C 31.317 180.178,33.306 178.131,31.975 177.865 C 30.457 177.561,30.074 176.165,31.107 174.693 C 32.084 173.299,33.112 173.752,33.369 175.690 L 33.491 176.609 35.158 176.609 C 36.989 176.609,37.088 176.567,36.267 176.142 C 35.088 175.532,35.139 174.410,36.408 173.005 C 37.205 172.123,37.671 172.122,38.262 173.001 M54.950 174.365 C 55.793 177.891,55.553 178.276,52.459 178.357 C 50.918 178.398,50.727 178.267,50.744 177.172 C 50.756 176.385,51.068 175.478,51.091 176.163 C 51.113 176.855,51.560 177.045,52.909 176.936 C 54.620 176.799,54.678 176.702,54.077 174.961 C 53.624 173.649,53.601 173.459,53.834 172.901 C 54.243 171.922,54.422 172.156,54.950 174.365 M174.310 172.710 C 174.835 173.269,175.095 174.477,175.101 176.374 L 175.106 177.924 172.479 177.924 L 169.852 177.924 169.731 178.441 C 169.202 180.683,166.665 181.809,164.825 180.616 C 164.196 180.208,163.645 179.525,163.645 179.153 C 163.645 179.115,164.089 179.329,164.631 179.628 C 165.796 180.270,166.408 180.310,167.392 179.808 C 168.592 179.196,169.370 177.924,168.544 177.924 C 167.296 177.924,166.679 176.335,167.389 174.945 C 168.313 173.134,169.509 173.596,169.948 175.932 L 170.075 176.609 171.604 176.598 C 172.865 176.589,173.070 176.547,172.774 176.363 C 171.391 175.502,171.405 174.310,172.814 172.804 C 173.401 172.177,173.786 172.153,174.310 172.710 M194.408 174.068 C 195.332 177.722,195.037 178.278,192.132 178.356 C 190.490 178.400,190.275 178.264,190.290 177.192 C 190.302 176.285,190.685 175.420,190.694 176.276 C 190.701 176.912,191.224 177.080,192.716 176.926 C 194.178 176.775,194.223 176.681,193.631 175.013 C 193.179 173.740,193.150 173.515,193.360 172.934 C 193.709 171.970,193.941 172.221,194.408 174.068 M352.688 172.616 C 353.267 173.297,353.496 174.264,353.497 176.045 L 353.499 177.830 350.791 177.924 L 348.083 178.018 347.878 178.631 C 346.987 181.280,343.809 181.988,342.210 179.892 C 341.675 179.190,341.716 178.792,342.272 179.280 C 343.725 180.554,345.745 180.342,346.783 178.808 C 347.327 178.002,347.324 177.988,346.556 177.844 C 344.942 177.541,344.754 175.411,346.225 174.103 C 346.979 173.433,348.145 174.637,348.145 176.085 L 348.145 176.609 349.836 176.609 C 351.691 176.609,351.791 176.567,350.968 176.142 C 349.801 175.538,349.813 174.484,351.002 173.133 C 351.799 172.227,352.241 172.092,352.688 172.616 M372.547 173.793 C 373.572 177.533,373.427 177.958,371.006 178.319 C 368.793 178.648,368.115 178.108,368.589 176.394 C 368.768 175.749,368.817 175.783,369.106 176.750 C 369.182 177.006,370.314 177.058,371.509 176.861 C 372.344 176.723,372.374 176.183,371.638 174.468 C 371.302 173.684,371.294 173.552,371.547 172.948 C 371.946 171.993,372.086 172.111,372.547 173.793 M305.975 175.399 L 306.303 176.609 308.248 176.609 C 310.392 176.609,310.452 176.567,309.815 175.522 C 309.445 174.915,309.445 174.893,309.790 174.221 L 310.141 173.537 310.441 173.995 C 310.833 174.594,311.172 176.201,311.097 177.110 L 311.038 177.830 306.505 177.880 L 301.971 177.930 301.853 178.525 C 301.550 180.040,298.990 181.463,296.947 181.252 C 294.447 180.994,293.769 179.473,295.065 177.031 L 295.539 176.139 295.400 176.891 C 294.899 179.604,296.195 180.464,299.491 179.607 C 300.967 179.223,301.396 178.025,300.595 176.531 C 300.207 175.806,300.207 175.797,300.568 175.312 C 301.099 174.602,301.402 174.709,301.715 175.716 L 301.992 176.609 303.650 176.609 C 304.562 176.609,305.308 176.563,305.308 176.507 C 305.308 176.452,305.137 176.072,304.929 175.663 C 304.572 174.965,304.568 174.879,304.847 174.215 C 305.223 173.321,305.488 173.600,305.975 175.399 M327.906 175.511 C 328.171 176.704,328.153 177.645,327.861 177.825 C 327.423 178.096,321.513 177.944,320.766 177.643 C 320.039 177.350,319.947 177.349,319.672 177.624 C 319.478 177.818,319.043 177.924,318.441 177.924 C 317.597 177.924,317.493 177.972,317.324 178.441 C 316.289 181.297,313.681 182.332,311.983 180.560 C 311.361 179.911,311.421 179.707,312.152 179.985 C 313.436 180.474,315.238 179.944,316.058 178.837 C 316.906 177.691,316.880 177.275,315.891 176.214 C 315.487 175.780,315.462 175.668,315.666 175.220 C 315.988 174.513,316.386 174.673,316.928 175.725 L 317.391 176.625 318.536 176.570 C 319.679 176.515,319.681 176.514,320.090 175.704 C 320.788 174.321,321.075 173.978,321.538 173.978 C 322.202 173.978,322.870 174.608,323.323 175.662 L 323.731 176.609 325.416 176.609 C 327.279 176.609,327.366 176.537,326.811 175.464 C 326.567 174.991,326.558 174.797,326.756 174.249 C 327.086 173.336,327.531 173.825,327.906 175.511 M26.995 174.094 C 27.255 174.771,26.808 175.392,26.104 175.331 C 25.480 175.277,24.451 175.639,23.532 176.236 C 22.695 176.781,23.050 177.044,25.176 177.457 C 28.698 178.142,25.135 181.656,20.896 181.678 C 18.117 181.693,17.309 178.172,19.448 175.368 C 20.097 174.517,20.375 174.556,19.920 175.434 C 17.964 179.211,19.514 181.040,23.606 179.783 C 25.706 179.138,25.853 178.777,24.093 178.584 C 21.995 178.354,21.683 177.825,22.700 176.223 C 23.805 174.483,26.611 173.092,26.995 174.094 M36.556 174.086 C 36.127 174.515,36.169 174.582,37.227 175.166 L 38.187 175.696 38.061 175.193 C 37.756 173.979,37.127 173.515,36.556 174.086 M163.210 174.094 C 163.474 174.783,163.023 175.392,162.295 175.328 C 161.573 175.265,159.988 175.940,159.512 176.514 C 159.165 176.932,159.392 177.057,161.032 177.350 C 164.970 178.054,161.663 181.682,157.083 181.682 C 154.276 181.682,153.546 177.649,155.886 175.064 C 156.448 174.442,156.487 174.725,155.987 175.810 C 154.380 179.298,155.758 180.861,159.578 179.883 C 161.871 179.296,162.086 178.762,160.113 178.556 C 158.578 178.395,158.294 178.181,158.459 177.304 C 158.803 175.467,162.721 172.820,163.210 174.094 M172.756 174.167 C 172.569 174.375,172.450 174.571,172.492 174.604 C 174.014 175.775,174.756 175.674,173.980 174.401 C 173.551 173.697,173.236 173.637,172.756 174.167 M341.697 174.094 C 341.988 174.853,341.529 175.359,340.535 175.375 C 339.865 175.385,339.341 175.538,338.704 175.913 C 337.311 176.730,337.506 176.986,339.878 177.461 C 341.386 177.763,341.782 179.086,340.649 180.039 C 339.175 181.280,335.010 181.996,333.927 181.195 C 332.498 180.138,332.560 177.573,334.065 175.495 C 334.811 174.466,335.032 174.528,334.521 175.622 C 332.721 179.476,334.171 181.029,338.375 179.747 C 340.079 179.227,340.239 178.843,338.845 178.617 C 336.710 178.271,336.435 177.858,337.326 176.337 C 338.358 174.576,341.302 173.065,341.697 174.094 M351.188 174.016 C 350.775 174.429,350.954 174.719,351.927 175.212 L 352.890 175.700 352.764 175.196 C 352.469 174.021,351.734 173.471,351.188 174.016 M47.773 175.523 C 49.802 177.650,49.706 177.923,46.927 177.927 C 44.523 177.930,44.406 177.992,44.687 179.108 C 45.198 181.139,45.296 182.596,44.970 183.331 L 44.660 184.030 44.427 182.501 C 44.299 181.661,44.058 180.429,43.891 179.765 C 43.319 177.484,43.634 176.937,45.657 176.702 C 46.914 176.557,46.976 176.480,46.332 175.875 C 45.904 175.473,45.853 175.467,45.308 175.749 C 44.236 176.303,44.210 175.755,45.257 174.708 C 46.195 173.771,46.059 173.727,47.773 175.523 M187.337 175.502 C 189.402 177.657,189.297 177.924,186.377 177.924 C 183.921 177.924,183.989 177.853,184.394 179.989 C 184.754 181.887,184.758 182.945,184.406 183.560 L 184.137 184.030 184.129 183.560 C 184.125 183.302,183.910 182.078,183.653 180.840 C 182.904 177.242,183.018 176.925,185.141 176.698 C 186.515 176.550,186.577 176.485,185.928 175.875 C 185.500 175.473,185.449 175.467,184.904 175.749 C 183.814 176.312,183.797 175.633,184.876 174.658 C 185.832 173.794,185.639 173.728,187.337 175.502 M364.631 174.309 C 364.812 174.491,365.274 175.025,365.659 175.496 C 366.043 175.966,366.563 176.461,366.815 176.596 C 367.220 176.813,367.252 176.904,367.085 177.383 L 366.896 177.924 364.885 177.924 C 362.387 177.924,362.414 177.897,362.833 179.945 C 363.230 181.884,363.247 182.701,362.910 183.466 L 362.661 184.030 362.529 183.279 C 362.456 182.865,362.234 181.691,362.035 180.669 C 361.375 177.287,361.476 177.027,363.572 176.711 L 364.870 176.515 364.399 176.007 C 363.941 175.513,363.911 175.507,363.250 175.783 C 362.416 176.132,362.273 176.022,362.704 175.364 C 363.484 174.173,364.140 173.815,364.631 174.309 M321.025 175.449 C 320.561 175.962,320.643 176.223,321.366 176.524 C 322.635 177.055,323.093 176.633,322.286 175.674 C 321.734 175.018,321.459 174.969,321.025 175.449 M31.602 175.519 C 31.272 175.848,31.326 176.193,31.740 176.414 C 32.615 176.883,33.079 176.266,32.348 175.605 C 31.938 175.233,31.893 175.228,31.602 175.519 M167.948 175.597 C 167.732 175.857,167.759 175.951,168.134 176.255 C 169.034 176.983,169.708 176.472,168.906 175.669 C 168.451 175.214,168.277 175.201,167.948 175.597 M346.302 175.520 C 345.974 175.848,346.028 176.193,346.441 176.414 C 347.049 176.740,347.426 176.655,347.359 176.208 C 347.277 175.656,346.604 175.218,346.302 175.520 M327.102 180.847 C 327.102 180.900,326.967 181.149,326.802 181.401 L 326.502 181.859 325.769 181.484 C 324.945 181.064,324.917 180.995,325.327 180.409 L 325.619 179.993 326.360 180.371 C 326.768 180.579,327.102 180.793,327.102 180.847 M304.263 180.448 C 304.761 179.774,305.958 180.783,305.502 181.493 C 305.345 181.739,305.233 181.727,304.626 181.400 C 304.231 181.187,303.901 181.106,303.864 181.212 C 303.643 181.844,303.486 181.909,302.902 181.607 C 301.741 181.006,302.165 179.940,303.342 180.501 C 303.963 180.798,304.006 180.795,304.263 180.448 M21.580 183.171 L 21.926 182.743 22.518 183.165 C 23.186 183.640,23.212 183.724,22.853 184.215 C 22.603 184.557,22.577 184.555,21.926 184.171 L 21.256 183.776 20.961 184.225 L 20.667 184.675 20.009 184.287 C 19.278 183.856,19.212 183.650,19.649 183.168 C 19.931 182.856,19.978 182.859,20.590 183.219 L 21.233 183.599 21.580 183.171 " stroke="none" fill="#ffffff" fill-rule="evenodd"></path></g></svg>